<?xml version="1.0" encoding="UTF-8"?><svg id="embroidery" xmlns="http://www.w3.org/2000/svg" width="53mm" height="53mm" viewBox="0 0 150.24 150.24"><defs><style>.cls-1{stroke-dasharray:0 9;}.cls-1,.cls-2,.cls-3,.cls-4{stroke-miterlimit:10;}.cls-1,.cls-2,.cls-4{fill:none;stroke:#fff;stroke-width:1.5px;}.cls-3{fill:#3e5c6d;stroke:#3f5d6d;}.cls-5{fill:#fff;stroke-width:0px;}.cls-4{stroke-dasharray:0 0 8.61 8.61;}</style></defs><circle class="cls-3" cx="75.12" cy="75.12" r="73.1"/><path class="cls-2" d="m113.42,126.1s-1.07,2.99-1.74,2.65c-.73-.18.36-3.16.36-3.16,0,0,10.38-32.57,11.22-34.41.7-1.54,2.3-.78,2.3-.78,0,0,1.71.43,1.26,2.07-.54,1.96-13.39,33.63-13.39,33.63Z"/><path class="cls-2" d="m106.25,45.2c1.06,1.56,7.95,2.37,13.7,1.19,1.03-.21,11.16-2.39,12.04-7.9.04-.28.35-2.22-.75-3.2-2.17-1.92-9.34.27-12.04,4.89-2.68,4.58-.52,10.82,2.63,19.94.84,2.42,1.34,3.48,1.88,4.89,2.02,5.25,3.78,13.29,2.26,25.2"/><path class="cls-2" d="m61.56,51.52c-.61-1.08-1.41-2.37-2.45-3.77"/><path class="cls-4" d="m53.13,41.6c-3.22-2.57-10.27-8.1-19.66-6.94-9.76,1.21-15.55,9.08-16.37,10.24-8.11,11.42-4.71,31.32,9.08,48.93,6.97,8.67,18.05,18.98,28.3,26.94"/><path class="cls-2" d="m57.91,123.37c1.24.92,2.47,1.79,3.66,2.62"/><path class="cls-2" d="m61.56,51.52c.61-1.08,1.41-2.37,2.45-3.77"/><path class="cls-4" d="m70,41.6c3.22-2.57,10.27-8.1,19.66-6.94,9.76,1.21,15.55,9.08,16.37,10.24,8.11,11.42,4.71,31.32-9.08,48.93-6.97,8.67-18.05,18.98-28.3,26.94"/><path class="cls-2" d="m65.22,123.37c-1.24.92-2.47,1.79-3.66,2.62"/><ellipse class="cls-5" cx="61.56" cy="51.15" rx=".18" ry=".28"/><path class="cls-1" d="m61.75,51.15c0,.16-.08.28-.18.28s-.18-.13-.18-.28.08-.28.18-.28.18.13.18.28Z"/></svg>