<svg width="433" height="257" viewBox="0 0 433 257" fill="none" xmlns="http://www.w3.org/2000/svg">
<path fill-rule="evenodd" clip-rule="evenodd" d="M132.675 5.07905C134.733 4.19046 136.861 3.46171 139.045 2.90034L138.672 1.44755C136.412 2.02838 134.21 2.78246 132.08 3.70197L132.675 5.07905ZM145.674 1.7336C147.882 1.51772 150.13 1.46547 152.405 1.58391L152.483 0.0859346C150.133 -0.0363628 147.811 0.0175142 145.528 0.240718L145.674 1.7336ZM121.322 12.2379C123.03 10.7533 124.835 9.41169 126.722 8.22017L125.921 6.95176C123.969 8.18424 122.103 9.5715 120.338 11.1058L121.322 12.2379ZM159.093 2.41696C161.257 2.84308 163.434 3.42413 165.614 4.16604L166.097 2.74601C163.855 1.98291 161.613 1.38445 159.383 0.945234L159.093 2.41696ZM112.575 22.4392C113.801 20.5123 115.141 18.7038 116.581 17.0202L115.441 16.045C113.955 17.7828 112.573 19.648 111.309 21.6338L112.575 22.4392ZM171.874 6.74375C173.85 7.70156 175.82 8.79666 177.776 10.0335L178.578 8.76565C176.575 7.49943 174.556 6.37688 172.528 5.39402L171.874 6.74375ZM106.897 34.6614C107.597 32.4672 108.416 30.3657 109.343 28.362L107.982 27.7319C107.028 29.793 106.187 31.9527 105.468 34.2055L106.897 34.6614ZM183.283 13.9256C185.007 15.2783 186.715 16.7483 188.401 18.3389L189.43 17.248C187.712 15.6268 185.97 14.1269 184.208 12.7453L183.283 13.9256ZM104.278 47.9453C104.479 45.6337 104.795 43.392 105.219 41.2242L103.747 40.9362C103.313 43.1573 102.989 45.4517 102.783 47.8153L104.278 47.9453ZM193.144 23.2074C194.632 24.8647 196.098 26.6242 197.536 28.4883L198.723 27.5721C197.263 25.6792 195.774 23.8909 194.26 22.2051L193.144 23.2074ZM104.393 61.4317C104.167 59.131 104.046 56.881 104.024 54.6847L102.524 54.6996C102.546 56.941 102.67 59.235 102.901 61.5787L104.393 61.4317ZM203.408 36.8386C203.299 37.0207 203.191 37.2036 203.082 37.3874L201.79 36.6259C202.017 36.2414 202.245 35.8605 202.475 35.4832C202.138 34.962 201.798 34.4473 201.457 33.9391L202.702 33.1029C202.919 33.4254 203.135 33.7505 203.35 34.0781C203.459 33.906 203.569 33.7347 203.679 33.5641L204.939 34.3779C204.707 34.7376 204.476 35.1009 204.247 35.4677C204.375 35.6688 204.502 35.8707 204.629 36.0736L203.408 36.8386ZM106.806 74.8532C106.22 72.5826 105.731 70.3501 105.335 68.1578L103.859 68.4244C104.262 70.6539 104.759 72.9226 105.354 75.228L106.806 74.8532ZM111.032 87.7011C110.174 85.5467 109.4 83.4194 108.708 81.321L107.284 81.7908C107.986 83.9185 108.769 86.0742 109.638 88.2561L111.032 87.7011ZM116.745 100.047C115.679 98.0223 114.686 96.0174 113.765 94.0333L112.404 94.6654C113.337 96.6726 114.341 98.6997 115.418 100.746L116.745 100.047ZM123.644 111.809C122.395 109.875 121.212 107.957 120.093 106.054L118.8 106.814C119.93 108.736 121.124 110.672 122.384 112.623L123.644 111.809ZM131.484 122.969C130.09 121.133 128.756 119.307 127.48 117.493L126.253 118.356C127.54 120.185 128.885 122.025 130.289 123.876L131.484 122.969ZM140.082 133.553C138.579 131.818 137.129 130.091 135.731 128.372L134.568 129.319C135.975 131.049 137.435 132.788 138.948 134.535L140.082 133.553ZM149.308 143.605C147.725 141.972 146.189 140.346 144.7 138.726L143.596 139.741C145.094 141.371 146.639 143.007 148.231 144.649L149.308 143.605ZM159.078 153.184C157.409 151.625 155.784 150.07 154.201 148.52L153.152 149.592C154.743 151.15 156.376 152.713 158.054 154.28L159.078 153.184ZM169.34 162.35C167.559 160.827 165.821 159.308 164.125 157.793L163.125 158.911C164.83 160.434 166.576 161.96 168.365 163.489L169.34 162.35ZM179.86 170.994C178.03 169.548 176.239 168.104 174.486 166.663L173.533 167.822C175.294 169.269 177.093 170.719 178.93 172.171L179.86 170.994ZM190.677 179.239C188.842 177.889 187.04 176.54 185.272 175.194L184.363 176.387C186.138 177.739 187.946 179.092 189.788 180.447L190.677 179.239ZM197.737 184.321C197.251 183.979 196.768 183.636 196.287 183.294L195.418 184.517C195.978 184.916 196.542 185.314 197.109 185.713L197.445 186.261C197.524 186.213 197.603 186.164 197.682 186.116C197.891 186.262 198.1 186.409 198.31 186.555L199.169 185.325C199.137 185.303 199.105 185.281 199.073 185.258C199.557 184.959 200.038 184.66 200.518 184.361L199.724 183.088C199.065 183.499 198.403 183.91 197.737 184.321ZM276.054 9.32582C273.984 8.35721 271.844 7.53077 269.649 6.85285L270.092 5.41966C272.353 6.11788 274.557 6.96921 276.69 7.96722L276.054 9.32582ZM262.965 5.27889C260.719 4.90902 258.435 4.6884 256.128 4.62301L256.171 3.12361C258.545 3.19091 260.896 3.41801 263.209 3.79882L262.965 5.27889ZM287.52 16.8066C285.794 15.2933 283.966 13.9096 282.052 12.6618L282.872 11.4053C284.845 12.6915 286.729 14.1181 288.509 15.6787L287.52 16.8066ZM249.265 4.88685C247.012 5.12402 244.751 5.51095 242.495 6.05306L242.145 4.5946C244.464 4.03715 246.79 3.63911 249.108 3.3951L249.265 4.88685ZM296.415 27.2038C295.179 25.2505 293.816 23.4093 292.342 21.686L293.482 20.7109C295.002 22.4883 296.408 24.3872 297.683 26.4015L296.415 27.2038ZM235.933 8.08391C233.827 8.88544 231.737 9.82992 229.674 10.922L228.972 9.59633C231.089 8.47553 233.235 7.50556 235.399 6.68201L235.933 8.08391ZM302.046 39.6777C301.386 37.4406 300.588 35.2945 299.665 33.2441L301.032 32.6281C301.984 34.7408 302.806 36.951 303.485 39.2532L302.046 39.6777ZM223.798 14.4943C221.948 15.7714 220.131 17.1788 218.355 18.7202L217.372 17.5874C219.189 16.0102 221.05 14.5689 222.945 13.26L223.798 14.4943ZM304.221 53.216C304.132 50.8647 303.907 48.5828 303.556 46.3741L305.037 46.1383C305.398 48.4073 305.629 50.7489 305.72 53.1592L304.221 53.216ZM213.374 23.5204C211.839 25.1579 210.345 26.9092 208.899 28.7772L207.713 27.8589C209.188 25.9543 210.712 24.1671 212.28 22.4945L213.374 23.5204ZM303.249 67.0003C303.656 64.6518 303.936 62.3546 304.098 60.1116L305.594 60.2195C305.429 62.5134 305.142 64.8601 304.727 67.2565L303.249 67.0003ZM299.744 80.2657C300.528 78.0406 301.203 75.8514 301.775 73.7001L303.224 74.0855C302.642 76.2759 301.955 78.5028 301.159 80.7641L299.744 80.2657ZM294.237 92.9933C295.317 90.8835 296.301 88.7996 297.195 86.7433L298.57 87.3409C297.664 89.4271 296.666 91.5394 295.573 93.6764L294.237 92.9933ZM287.212 105.019C288.535 103.002 289.773 101.005 290.929 99.029L292.224 99.786C291.055 101.785 289.803 103.804 288.467 105.842L287.212 105.019ZM279.089 116.264C280.583 114.369 282.003 112.489 283.35 110.624L284.566 111.502C283.206 113.385 281.773 115.282 280.266 117.193L279.089 116.264ZM270.076 126.86C271.708 125.072 273.274 123.295 274.775 121.529L275.918 122.5C274.405 124.28 272.827 126.071 271.184 127.872L270.076 126.86ZM260.439 136.785C262.16 135.114 263.822 133.451 265.428 131.797L266.504 132.841C264.888 134.506 263.215 136.18 261.484 137.861L260.439 136.785ZM250.275 146.152C252.051 144.596 253.776 143.046 255.451 141.502L256.468 142.605C254.783 144.158 253.049 145.716 251.264 147.28L250.275 146.152ZM239.641 155.054C241.448 153.607 243.21 152.165 244.93 150.727L245.892 151.878C244.164 153.323 242.394 154.772 240.579 156.225L239.641 155.054ZM228.558 163.574C230.443 162.182 232.286 160.793 234.089 159.408L235.003 160.598C233.192 161.989 231.341 163.383 229.45 164.78L228.558 163.574ZM217.175 171.679C219.15 170.322 221.086 168.968 222.983 167.617L223.853 168.839C221.949 170.195 220.006 171.554 218.024 172.915L217.175 171.679ZM205.695 179.307C207.651 178.049 209.573 176.793 211.46 175.539L212.29 176.788C210.396 178.046 208.469 179.307 206.507 180.569L205.695 179.307Z" fill="#E94A26"/>
<path fill-rule="evenodd" clip-rule="evenodd" d="M199.076 187.225C198.106 186.525 197.174 185.848 196.281 185.197L197.165 183.985C198.057 184.635 198.986 185.311 199.953 186.008L199.076 187.225ZM210.49 195.137C208.463 193.798 206.539 192.488 204.718 191.224L205.574 189.992C207.386 191.251 209.301 192.554 211.317 193.886L210.49 195.137ZM222.26 202.474C220.201 201.269 218.218 200.067 216.312 198.877L217.105 197.605C219.001 198.787 220.971 199.982 223.017 201.179L222.26 202.474ZM234.475 209.138C232.362 208.069 230.31 206.987 228.321 205.901L229.04 204.585C231.016 205.664 233.053 206.738 235.152 207.8L234.475 209.138ZM247.057 215.008C244.891 214.082 242.777 213.136 240.716 212.174L241.35 210.815C243.397 211.77 245.496 212.71 247.647 213.629L247.057 215.008ZM260.014 220.035C257.794 219.26 255.62 218.457 253.492 217.631L254.035 216.233C256.147 217.052 258.305 217.849 260.508 218.619L260.014 220.035ZM273.291 224.163C271.025 223.545 268.8 222.894 266.616 222.215L267.061 220.782C269.229 221.456 271.437 222.102 273.686 222.716L273.291 224.163ZM286.836 227.353C284.532 226.895 282.264 226.402 280.034 225.877L280.378 224.417C282.591 224.938 284.841 225.427 287.129 225.881L286.836 227.353ZM300.54 229.574C298.217 229.281 295.927 228.95 293.67 228.584L293.91 227.103C296.15 227.466 298.422 227.795 300.728 228.086L300.54 229.574ZM314.374 230.832C312.034 230.7 309.723 230.53 307.443 230.323L307.579 228.829C309.842 229.035 312.135 229.204 314.458 229.334L314.374 230.832ZM328.3 231.137C325.948 231.165 323.625 231.152 321.329 231.102L321.362 229.603C323.641 229.652 325.948 229.665 328.282 229.637L328.3 231.137ZM342.148 230.517C339.814 230.698 337.505 230.838 335.222 230.94L335.154 229.442C337.422 229.34 339.715 229.201 342.032 229.022L342.148 230.517ZM355.989 229.01C353.662 229.336 351.358 229.623 349.077 229.872L348.915 228.381C351.18 228.134 353.469 227.849 355.78 227.524L355.989 229.01ZM369.657 226.675C367.359 227.137 365.081 227.56 362.824 227.946L362.572 226.467C364.814 226.084 367.078 225.664 369.362 225.205L369.657 226.675ZM383.186 223.562C380.931 224.146 378.695 224.693 376.478 225.204L376.141 223.743C378.345 223.234 380.568 222.691 382.809 222.11L383.186 223.562ZM432.161 205.925C431.089 206.416 430.019 206.899 428.953 207.375L428.342 206.004C429.404 205.531 430.468 205.05 431.536 204.561L432.161 205.925ZM422.597 210.128C420.434 211.038 418.285 211.914 416.15 212.757L415.599 211.362C417.723 210.523 419.862 209.651 422.015 208.746L422.597 210.128ZM396.554 219.721C394.317 220.426 392.098 221.095 389.895 221.728L389.481 220.286C391.671 219.657 393.878 218.992 396.103 218.29L396.554 219.721ZM409.709 215.218C407.498 216.034 405.303 216.815 403.124 217.561L402.638 216.142C404.806 215.4 406.99 214.623 409.19 213.811L409.709 215.218Z" fill="#E94A26"/>
<path fill-rule="evenodd" clip-rule="evenodd" d="M200.137 184.57C199.271 185.058 198.277 185.673 197.154 186.403L196.336 185.146C197.473 184.406 198.496 183.773 199.401 183.263L200.137 184.57ZM188.441 192.382C187.444 193.08 186.403 193.808 185.304 194.574L184.446 193.343C185.526 192.591 186.576 191.856 187.581 191.153C188.544 190.48 189.466 189.835 190.335 189.229L191.193 190.46C190.308 191.076 189.395 191.715 188.441 192.382ZM179.381 198.664C177.484 199.959 175.485 201.308 173.384 202.699L172.556 201.448C174.65 200.062 176.644 198.717 178.535 197.425L179.381 198.664ZM167.341 206.632C165.38 207.884 163.346 209.16 161.238 210.453L160.454 209.175C162.553 207.887 164.58 206.615 166.533 205.367L167.341 206.632ZM155.052 214.168C153.023 215.359 150.935 216.559 148.789 217.762L148.055 216.453C150.193 215.255 152.272 214.061 154.292 212.874L155.052 214.168ZM4.1071 256.967C2.89998 256.97 1.68799 256.965 0.47113 256.953L0.486386 255.453C1.69693 255.465 2.90262 255.47 4.10344 255.467L4.1071 256.967ZM18.5298 256.568C16.1416 256.695 13.7327 256.792 11.3032 256.859L11.2619 255.359C13.6786 255.293 16.0748 255.196 18.4504 255.07L18.5298 256.568ZM142.453 221.227C140.368 222.339 138.232 223.45 136.048 224.556L135.37 223.218C137.545 222.117 139.671 221.011 141.747 219.903L142.453 221.227ZM32.9201 255.438C30.5488 255.685 28.1553 255.904 25.7397 256.094L25.6223 254.599C28.0251 254.41 30.4059 254.192 32.7646 253.946L32.9201 255.438ZM129.574 227.744C127.436 228.767 125.255 229.783 123.032 230.786L122.415 229.419C124.627 228.42 126.798 227.41 128.926 226.391L129.574 227.744ZM47.2348 253.575C44.8713 253.945 42.4836 254.287 40.0719 254.6L39.8784 253.113C42.2774 252.801 44.6524 252.461 47.0033 252.093L47.2348 253.575ZM116.424 233.679C114.237 234.606 112.013 235.52 109.751 236.418L109.198 235.023C111.449 234.13 113.662 233.221 115.838 232.298L116.424 233.679ZM103.015 238.999C100.783 239.824 98.5167 240.632 96.2167 241.42L95.7306 240.001C98.019 239.217 100.274 238.413 102.494 237.592L103.015 238.999ZM61.4383 250.985C59.1041 251.472 56.7439 251.934 54.3577 252.37L54.0885 250.894C56.4621 250.461 58.8099 250.001 61.1317 249.516L61.4383 250.985ZM89.3592 243.676C87.0853 244.394 84.7803 245.091 82.4443 245.765L82.0283 244.324C84.3522 243.653 86.6455 242.96 88.9078 242.246L89.3592 243.676ZM75.4742 247.683C73.1692 248.287 70.8358 248.867 68.4743 249.423L68.1308 247.963C70.48 247.41 72.8012 246.833 75.0943 246.232L75.4742 247.683Z" fill="#E94A26"/>
</svg>
