<svg width="25" height="25" viewBox="0 0 25 25" fill="none" xmlns="http://www.w3.org/2000/svg">
<path d="M12.4177 9.29167C11.5889 9.29167 10.7941 9.62091 10.208 10.207C9.62195 10.793 9.29271 11.5879 9.29271 12.4167C9.29271 13.2455 9.62195 14.0403 10.208 14.6264C10.7941 15.2124 11.5889 15.5417 12.4177 15.5417C13.2465 15.5417 14.0414 15.2124 14.6274 14.6264C15.2135 14.0403 15.5427 13.2455 15.5427 12.4167C15.5427 11.5879 15.2135 10.793 14.6274 10.207C14.0414 9.62091 13.2465 9.29167 12.4177 9.29167ZM12.4177 7.20833C13.799 7.20833 15.1238 7.75707 16.1006 8.73382C17.0773 9.71057 17.626 11.0353 17.626 12.4167C17.626 13.798 17.0773 15.1228 16.1006 16.0995C15.1238 17.0763 13.799 17.625 12.4177 17.625C11.0364 17.625 9.71161 17.0763 8.73486 16.0995C7.75811 15.1228 7.20937 13.798 7.20937 12.4167C7.20937 11.0353 7.75811 9.71057 8.73486 8.73382C9.71161 7.75707 11.0364 7.20833 12.4177 7.20833ZM19.1885 6.94792C19.1885 7.29325 19.0514 7.62444 18.8072 7.86863C18.563 8.11282 18.2318 8.25 17.8865 8.25C17.5411 8.25 17.2099 8.11282 16.9657 7.86863C16.7216 7.62444 16.5844 7.29325 16.5844 6.94792C16.5844 6.60258 16.7216 6.27139 16.9657 6.0272C17.2099 5.78302 17.5411 5.64583 17.8865 5.64583C18.2318 5.64583 18.563 5.78302 18.8072 6.0272C19.0514 6.27139 19.1885 6.60258 19.1885 6.94792ZM12.4177 4.08333C9.84063 4.08333 9.41979 4.09063 8.22083 4.14375C7.40417 4.18229 6.85625 4.29167 6.34792 4.48958C5.92252 4.64577 5.53793 4.89611 5.22292 5.22187C4.89688 5.53687 4.6462 5.92144 4.48958 6.34687C4.29167 6.85729 4.18229 7.40417 4.14479 8.21979C4.09062 9.36979 4.08333 9.77187 4.08333 12.4167C4.08333 14.9948 4.09063 15.4146 4.14375 16.6135C4.18229 17.4292 4.29167 17.9781 4.48854 18.4854C4.66562 18.9385 4.87396 19.2646 5.21979 19.6104C5.57083 19.9604 5.89687 20.1698 6.34479 20.3427C6.85937 20.5417 7.40729 20.6521 8.21979 20.6896C9.36979 20.7437 9.77187 20.75 12.4167 20.75C14.9948 20.75 15.4146 20.7427 16.6135 20.6896C17.4281 20.651 17.976 20.5417 18.4854 20.3448C18.9104 20.1878 19.2949 19.9376 19.6104 19.6125C19.9615 19.2625 20.1708 18.9365 20.3437 18.4875C20.5417 17.975 20.6521 17.4271 20.6896 16.6125C20.7437 15.4635 20.75 15.0604 20.75 12.4167C20.75 9.83958 20.7427 9.41875 20.6896 8.21979C20.651 7.40521 20.5406 6.85521 20.3437 6.34687C20.1867 5.92189 19.9365 5.53748 19.6115 5.22187C19.2966 4.89567 18.912 4.64497 18.4865 4.48854C17.976 4.29062 17.4281 4.18125 16.6135 4.14375C15.4646 4.08958 15.0625 4.08333 12.4167 4.08333M12.4167 2C15.2469 2 15.6 2.01042 16.7115 2.0625C17.8198 2.11458 18.576 2.28854 19.2396 2.54688C19.9271 2.81146 20.5062 3.16979 21.0854 3.74792C21.6151 4.26864 22.025 4.89853 22.2865 5.59375C22.5437 6.25729 22.7187 7.01354 22.7708 8.12292C22.8198 9.23333 22.8333 9.58646 22.8333 12.4167C22.8333 15.2469 22.8229 15.6 22.7708 16.7104C22.7187 17.8198 22.5437 18.575 22.2865 19.2396C22.0257 19.9352 21.6157 20.5652 21.0854 21.0854C20.5645 21.6149 19.9347 22.0247 19.2396 22.2865C18.576 22.5437 17.8198 22.7187 16.7115 22.7708C15.6 22.8198 15.2469 22.8333 12.4167 22.8333C9.58646 22.8333 9.23333 22.8229 8.12187 22.7708C7.01354 22.7187 6.25833 22.5437 5.59375 22.2865C4.89826 22.0255 4.26826 21.6156 3.74792 21.0854C3.21816 20.5648 2.80829 19.9348 2.54688 19.2396C2.28854 18.576 2.11458 17.8198 2.0625 16.7104C2.0125 15.6 2 15.2469 2 12.4167C2 9.58646 2.01042 9.23333 2.0625 8.12292C2.11458 7.01354 2.28854 6.25833 2.54688 5.59375C2.80754 4.8981 3.2175 4.26804 3.74792 3.74792C4.26841 3.21795 4.89836 2.80805 5.59375 2.54688C6.25729 2.28854 7.0125 2.11458 8.12187 2.0625C9.23437 2.01354 9.5875 2 12.4177 2" fill="#EFEEEA"/>
</svg>
