<svg id="Logo" xmlns="http://www.w3.org/2000/svg" viewBox="0 0 305.62 113.39"><defs><style>.cls-1{fill:#d86435;}</style></defs><path class="cls-1" d="M341.48,140.55v-.18c11.2-2.54,19.18-11,19.18-25.12,0-18.33-12.73-30.21-35.31-30.21h-55.1a1.14,1.14,0,0,0-1.13,1.13v94a.91.91,0,0,1-.91.91h-.65a.91.91,0,0,1-.85-.6L232.5,85.91a1.32,1.32,0,0,0-1.24-.87H193.39a1.33,1.33,0,0,0-1.24.87l-33.48,94.54a.91.91,0,0,1-.85.6h-.7a.91.91,0,0,1-.77-.44l-23.89-39.9a1.3,1.3,0,0,1,0-1.36l31.7-52.94a.91.91,0,0,0-.78-1.37H127.26a1.12,1.12,0,0,0-1,.56l-23.79,40.47a1.13,1.13,0,0,1-1,.56h-5.8a1.14,1.14,0,0,1-1.14-1.14V86.17A1.13,1.13,0,0,0,93.45,85H60.92a1.13,1.13,0,0,0-1.13,1.13V197.29a1.13,1.13,0,0,0,1.13,1.14H93.45a1.13,1.13,0,0,0,1.13-1.14V156.62a1.14,1.14,0,0,1,1.14-1.14h5.46a1.11,1.11,0,0,1,1,.56L127,197.87a1.13,1.13,0,0,0,1,.56h56.93a1.13,1.13,0,0,0,1.07-.78L192,179.17a1.13,1.13,0,0,1,1.08-.77h37.23a1.14,1.14,0,0,1,1.08.77l6.1,18.48a1.14,1.14,0,0,0,1.08.78h86.91c27.33,0,39.89-13.58,39.89-31.41C365.41,153.1,356.58,142.59,341.48,140.55Zm-140.66,12,9.7-31.4a.73.73,0,0,1,.7-.52h.85a.74.74,0,0,1,.71.52l9.69,31.4a.51.51,0,0,1-.49.67H201.32A.52.52,0,0,1,200.82,152.6Zm100.64-41a1.14,1.14,0,0,1,1.14-1.13h12.74c7.63,0,11.37,3.73,11.37,10.86,0,7-4.08,10.36-11.71,10.36H302.6a1.14,1.14,0,0,1-1.14-1.14Zm16.25,61.5H302.6a1.13,1.13,0,0,1-1.14-1.13V153.05a1.13,1.13,0,0,1,1.14-1.13h15.11c8.15,0,12.22,3.9,12.22,10.69C329.93,169.57,326.2,173.13,317.71,173.13Z" transform="translate(-59.79 -85.04)"/></svg>