<svg width="25" height="25" viewBox="0 0 25 25" fill="none" xmlns="http://www.w3.org/2000/svg">
<path d="M7.16667 5.08438C7.16639 5.63691 6.94663 6.1667 6.55574 6.55721C6.16484 6.94771 5.63483 7.16694 5.08229 7.16667C4.52976 7.16639 3.99996 6.94663 3.60946 6.55574C3.21895 6.16484 2.99972 5.63483 3 5.08229C3.00028 4.52976 3.22003 3.99996 3.61093 3.60946C4.00183 3.21895 4.53184 2.99972 5.08438 3C5.63691 3.00028 6.1667 3.22003 6.55721 3.61093C6.94771 4.00183 7.16694 4.53184 7.16667 5.08438ZM7.22917 8.70937H3.0625V21.751H7.22917V8.70937ZM13.8125 8.70937H9.66667V21.751H13.7708V14.9073C13.7708 11.0948 18.7396 10.7406 18.7396 14.9073V21.751H22.8542V13.4906C22.8542 7.06354 15.5 7.30313 13.7708 10.4594L13.8125 8.70937Z" fill="#EFEEEA"/>
</svg>
