<?xml version="1.0" encoding="UTF-8"?>
<svg id="Layer_1" data-name="Layer 1" xmlns="http://www.w3.org/2000/svg" viewBox="0 0 141.73 141.73">
  <defs>
    <style>
      .cls-1 {
        fill: none;
        stroke: #e94b26;
        stroke-miterlimit: 10;
        stroke-width: 1.5px;
      }

      .cls-2 {
        fill: #e94b26;
        stroke-width: 0px;
      }
    </style>
  </defs>
  <path class="cls-1" d="M83.18,81.23c.63-.54,1.6-1.29,3.78-3.84"/>
  <path class="cls-1" d="M92.93,65.06c.25-3.16.04-3.91-1.15-6.16"/>
  <path class="cls-1" d="M67.25,54.59c-1.99-1.33-2.96-1.64-5.06-1.85M80.29,52.75c-2.38.28-4.96,2.05-4.96,2.05"/>
  <path class="cls-1" d="M50.71,58.9c-1.17,2.34-1.36,3.34-1.01,6.16"/>
  <path class="cls-1" d="M55.59,77.39c2.83,3.27,1.69,2.01,3.71,4.03M62.15,83.73c1.27,1.1,1.72,1.46,4.11,3.36"/>
  <path class="cls-1" d="M89.12,74.57c.52-.75,1-1.52,1.45-2.31.55-.97,1-1.93,1.35-2.87M89.05,55.42c-.8-.67-1.69-1.24-2.67-1.69-.84-.39-1.7-.67-2.57-.84M72.67,56.97c-.55.69-1.03,1.46-1.42,2.3-.39-.84-.87-1.61-1.42-2.3M58.7,52.89c-.87.17-1.73.45-2.57.84-.98.45-1.88,1.02-2.67,1.69M50.59,69.39c.35.94.8,1.89,1.35,2.87.45.79.93,1.56,1.45,2.31M69.1,89.36c.69.54,1.41,1.1,2.15,1.68.74-.58,1.46-1.13,2.15-1.68"/>
  <path class="cls-1" d="M76.22,87.14c4.08-3.41.75-.59,4.08-3.41"/>
  <path class="cls-2" d="M95.87,106.84c-2.14-2.59-2.31-4.44-1.03-5.49,1.27-1.05,3.05-.53,5.19,2.07,2.13,2.58,2.29,4.43,1.02,5.48-1.27,1.05-3.05.53-5.18-2.05M101.09,102.54c-2.55-3.1-5.07-3.79-7.06-2.15-1.99,1.64-1.79,4.24.76,7.34,2.52,3.06,5.05,3.77,7.04,2.13,1.99-1.64,1.78-4.25-.74-7.31M87.43,108.9l2.64-1.4,3.93,7.39,1.17-.62-5.61-10.54-.99.53c.46,2.18,0,2.86-1.52,3.67l-.1.05.49.92ZM80.57,113.69c-.97-3.22-.41-4.99,1.16-5.46,1.58-.48,3.02.69,3.99,3.91.97,3.2.41,4.97-1.17,5.45-1.58.48-3.02-.69-3.99-3.89M87.06,111.73c-1.16-3.84-3.21-5.45-5.68-4.71-2.47.74-3.29,3.22-2.13,7.07,1.15,3.8,3.2,5.42,5.67,4.68,2.47-.75,3.28-3.24,2.14-7.03M70.7,111.44c.41-.59,1.49-1.72,2.77-1.82,1.5-.12,2.59.65,2.7,2.15.06.76-.33,1.61-.76,2.17l-5.18,6.81,8.49-.66-.09-1.18-5.71.44,3.32-4.25c.94-1.22,1.51-2.06,1.4-3.45-.17-2.25-1.92-3.47-4.16-3.29-1.72.13-3.23,1.36-3.79,2.19l1.02.89ZM64.86,120.22c.6.08,1.13-.32,1.21-.9.08-.6-.32-1.13-.92-1.21-.58-.08-1.11.32-1.2.92-.08.58.32,1.11.9,1.19M62.16,108.58l-2.74,10.39,1.4.37,2.74-10.39,3.6.95.3-1.15-8.69-2.3-.3,1.15,3.69.97ZM52.12,106.24c.47-.95,1.76-.94,2.65-.51,1.1.54,1.59,1.47,1.76,1.93l1.48-.1c-.32-1.12-1.37-2.36-2.62-2.96-2.08-1.02-3.88-.42-4.68,1.23-1.7,3.48,4.41,5.36,3.15,7.93-.56,1.14-2,1.42-3.1.88-1.23-.6-1.94-1.76-2.13-2.63l-1.49.18c.36,1.41,1.34,2.68,2.97,3.48,1.94.94,4.19.49,5.12-1.42,1.76-3.61-4.38-5.42-3.11-8.02M44.39,112.3l.75-.93-4.5-3.64,2.7-3.34,3.51,2.84.75-.93-3.52-2.84,2.56-3.17,4.42,3.57.75-.93-5.55-4.48-7.5,9.29,5.64,4.55Z"/>
  <path class="cls-2" d="M107.29,80.75l-.51,1.25,8.74,3.59-11.11,2.2-.51,1.25,11.04,4.53.51-1.25-8.75-3.59,11.12-2.19.51-1.25-11.04-4.53ZM107.82,78.6l1.18.14.66-5.75,4.26.49-.52,4.49,1.18.14.52-4.49,4.05.47-.65,5.64,1.18.14.82-7.08-11.86-1.37-.83,7.2ZM108.96,62.59l-.32-1.95,9.43-1.55.32,1.95c.36,2.19-.82,5.06-3.93,5.57-3.19.53-5.15-1.83-5.51-4.02M119.57,60.86l-.56-3.4-11.78,1.94.56,3.4c.58,3.51,3.66,5.78,6.91,5.24,3.49-.58,5.43-3.79,4.87-7.18M102.57,49.83l.67,1.28,4.45-2.34,1.18,2.25-3.04,5.01.78,1.49,3.18-5.32c1.01.91,2.43,1.61,4.09.74,1.68-.88,2.32-2.84,1.02-5.32l-1.76-3.35-10.57,5.55ZM109.72,50.08l-.97-1.85,4.02-2.11.97,1.85c.99,1.89.62,3.1-.51,3.7-1.14.6-2.49.35-3.51-1.59M101.33,48l.87-.81-3.94-4.25,3.15-2.92,3.07,3.32.87-.81-3.07-3.32,2.99-2.77,3.86,4.16.87-.81-4.84-5.23-8.76,8.11,4.92,5.31ZM101.41,31.21l-1.3-.81-8.29,6.93,2.57-10.52-1.35-.85-2.83,12.32,1.39.88,9.81-7.94ZM76.44,32.29l-1.95-.32,1.57-9.43,1.95.32c2.19.36,4.53,2.41,4.01,5.51-.53,3.19-3.39,4.28-5.58,3.92M78.23,21.68l-3.4-.57-1.96,11.78,3.4.57c3.51.59,6.65-1.6,7.19-4.85.58-3.49-1.83-6.36-5.23-6.93M70.64,32.89l-.16-1.18-5.74.8-.59-4.25,4.48-.62-.16-1.18-4.48.62-.56-4.04,5.62-.78-.16-1.18-7.06.98,1.64,11.83,7.17-1ZM54.88,26.37l4.22,8.52,1.21-.6-5.29-10.7-1.5.74.37,9.77-7.54-6.22-1.5.74,5.29,10.7,1.21-.6-4.22-8.52,7.01,5.81,1.11-.55-.37-9.1ZM40.78,47.08l-1.24,1.53-7.43-6.01,1.24-1.53c1.4-1.73,4.33-2.75,6.77-.77,2.51,2.03,2.05,5.06.66,6.79M32.43,40.3l-2.16,2.67,9.28,7.51,2.16-2.67c2.24-2.77,1.88-6.58-.68-8.65-2.75-2.23-6.43-1.54-8.6,1.14M23.03,51.49c-.39,1.02.12,2.16,1.14,2.55.66.25,1.35.13,1.85-.23l8.91,7.52.54-1.42-2.99-2.42,1.59-4.16,3.84.18.54-1.42-11.67-.35c-.15-.62-.58-1.14-1.22-1.39-1.02-.39-2.16.12-2.55,1.14M26.96,52.99l5.9.28-1.31,3.44-4.59-3.72ZM25.71,52.52c-.17.46-.7.69-1.16.52-.47-.18-.69-.7-.52-1.16.18-.47.69-.71,1.16-.53.46.17.69.7.51,1.17M33.94,70.7l.13-1.45-5-.45.23-2.53,5.27-2.56.15-1.67-5.55,2.74c-.36-1.31-1.17-2.68-3.04-2.84-1.88-.17-3.49,1.13-3.74,3.92l-.34,3.77,11.89,1.07ZM28.07,66.62l-.19,2.08-4.52-.41.19-2.08c.19-2.13,1.16-2.94,2.43-2.83,1.28.11,2.28,1.06,2.08,3.23M24.28,79.7l10.56-2.01-.27-1.42-10.56,2.01-.7-3.65-1.17.22,1.68,8.83,1.17-.22-.71-3.75ZM26.93,91.46l.64,1.3,10.7-5.29-.64-1.3-10.7,5.29Z"/>
</svg>