<?xml version="1.0" encoding="UTF-8"?><svg id="measure" xmlns="http://www.w3.org/2000/svg" width="53mm" height="53mm" viewBox="0 0 150.24 150.24"><defs><style>.cls-1{fill:none;stroke:#fff;stroke-width:1.5px;}.cls-1,.cls-2{stroke-miterlimit:10;}.cls-2{fill:#3e5c6d;stroke:#3f5d6d;}</style></defs><circle class="cls-2" cx="75.12" cy="75.12" r="73.1"/><line class="cls-1" x1="114.65" y1="81.74" x2="114.65" y2="81.74"/><path class="cls-1" d="m81.98,45.68c-4.75-2.57-27.33-3.61-31.72-1.24-1.9,1.03-2.53,1.81-2.13,3.6.27,1.22,2.45,2.32,3.12,2.6,6.55,2.69,23.29,2.23,23.29,2.23,15.16-.41,24.9-2.24,25.77-6.19.35-1.6-.79-3.22-1.49-4.21-2.2-3.13-5.94-4.12-9.91-4.71s-7.43-.74-7.43-.74c-21.41-1.38-56.49.42-61.94,7.43-1.17,1.51-2.02,2.96-.38,5.7,1.48,2.49,4.73,4.55,6.83,5.45,20.64,8.82,60.95,6.19,60.95,6.19,12.39-.81,34.48-.65,48.81-8.92v51.09s-84.31,24.32-117.72-4.02l.23-52.49"/><line class="cls-1" x1="100.33" y1="60.51" x2="100.33" y2="45.47"/><line class="cls-1" x1="48.08" y1="61.21" x2="48.08" y2="47.62"/><line class="cls-1" x1="81.59" y1="53.09" x2="81.59" y2="44.98"/><line class="cls-1" x1="25.56" y1="104.74" x2="25.56" y2="84.95"/><line class="cls-1" x1="41.79" y1="110.35" x2="41.79" y2="86.57"/><line class="cls-1" x1="49.87" y1="112" x2="49.87" y2="87.5"/><line class="cls-1" x1="58.22" y1="113.66" x2="58.22" y2="88.19"/><line class="cls-1" x1="66.82" y1="113.66" x2="66.82" y2="88.19"/><line class="cls-1" x1="84.83" y1="112.85" x2="84.83" y2="88.75"/><line class="cls-1" x1="94.13" y1="112.03" x2="94.13" y2="88.19"/><line class="cls-1" x1="103.58" y1="110.42" x2="103.58" y2="86.64"/><line class="cls-1" x1="113.03" y1="109.16" x2="113.03" y2="85.4"/><line class="cls-1" x1="123.22" y1="106.83" x2="123.22" y2="83.51"/><line class="cls-1" x1="33.26" y1="108.32" x2="33.26" y2="78.48"/><line class="cls-1" x1="75.54" y1="113.45" x2="75.54" y2="83.61"/></svg>