<svg width="50" height="38" viewBox="0 0 50 38" fill="none" xmlns="http://www.w3.org/2000/svg">
<path d="M10.2991 15.1405C10.9091 11.4593 15.7022 7.52723 19.4496 7.44357C19.711 7.44357 19.9725 7.3599 20.1468 7.19258C20.3211 7.10892 20.4954 7.02526 20.5825 6.77427C21.8897 4.43174 21.1925 2.59118 19.0138 1.08527C16.4866 -0.671628 12.4778 1.08527 10.4734 2.67484C5.4188 6.69061 0.277085 13.6344 0.538528 20.2438C-0.332949 24.678 -0.158654 29.4466 1.14856 33.3787C2.02004 35.8886 4.54732 37.1435 7.16175 37.3108C9.77619 37.4783 15.1793 38.2311 17.5323 36.7253C19.8853 35.2193 20.0596 32.2911 20.3211 29.7814C20.5825 27.0206 21.3668 21.8334 18.9267 19.6582C16.4866 17.5666 9.51474 19.8255 10.2991 15.1405Z" fill="#3D5C6D"/>
<path d="M39.0579 15.1405C39.6679 11.4593 44.4609 7.52723 48.2084 7.44357C48.4698 7.44357 48.7313 7.3599 48.9056 7.19258C49.08 7.10892 49.2542 7.02526 49.3414 6.77427C50.6487 4.43174 49.9515 2.59118 47.7728 1.08527C45.2455 -0.671628 41.2367 1.08527 39.2322 2.67484C34.1776 6.69061 29.0359 13.6345 29.2973 20.2438C28.4259 24.678 28.6001 29.4466 29.9072 33.3787C30.7787 35.8886 33.306 37.1435 35.9206 37.3108C38.535 37.4783 43.9381 38.2311 46.2911 36.7253C48.644 35.2193 48.8184 32.2911 49.0799 29.7814C49.3413 27.0206 50.1256 21.8334 47.6855 19.6582C45.2454 17.5666 38.1864 19.8255 39.0579 15.1405Z" fill="#3D5C6D"/>
</svg>
