<?xml version="1.0" encoding="UTF-8"?><svg id="needle" xmlns="http://www.w3.org/2000/svg" width="53mm" height="53mm" viewBox="0 0 150.24 150.24"><defs><style>.cls-1{fill:none;stroke:#fff;stroke-width:1.5px;}.cls-1,.cls-2{stroke-miterlimit:10;}.cls-2{fill:#3e5c6d;stroke:#3f5d6d;}</style></defs><circle class="cls-2" cx="75.12" cy="75.12" r="73.1"/><path class="cls-1" d="m31.95,115.13s-2.49,6.96-4.07,6.18c-1.71-.41.83-7.36.83-7.36,0,0,24.2-75.92,26.16-80.23,1.64-3.6,5.35-1.82,5.35-1.82,0,0,3.99,1.01,2.95,4.82-1.25,4.56-31.22,78.39-31.22,78.39Z"/><path class="cls-1" d="m55.98,43.86c3.71-15.97,15.85-27.17,29.44-28.19,7.97-.6,18.57,2.15,23.61,9.99,8.41,13.08-2.96,33.58-15.03,43.57-2.72,2.25-9.14,8.27-18.15,9.04-2.22.19-5.54.43-7.41-1.59-2.84-3.07-.81-9.7,1.2-13.36,6.85-12.45,27.82-16.48,42.82-11.01,3.81,1.39,8.75,3.27,10.92,7.94,3.65,7.86-1.75,20.94-10.55,24.14-2.27.82-1.59.51-8.28,2.81-9.4,3.24-14.1,4.86-18.56,8.17-3.69,2.73-9.26,6.81-9.84,13.14-.78,8.66,4.73,13.4,7.08,14.54,11.41,5.51,29.83,3.82,50.03-9.85"/></svg>