<?xml version="1.0" encoding="utf-8"?>
<!-- Generator: Adobe Illustrator 24.2.1, SVG Export Plug-In . SVG Version: 6.00 Build 0)  -->
<svg version="1.1" id="Layer_1" xmlns="http://www.w3.org/2000/svg" xmlns:xlink="http://www.w3.org/1999/xlink" x="0px" y="0px"
	 viewBox="0 0 633.9 161.4" style="enable-background:new 0 0 633.9 161.4;" xml:space="preserve">
<style type="text/css">
	.st0{fill:#FFFFFF;}
	.st1{fill:#00326E;}
</style>
<g>
	<path class="st0" d="M15.3,39.5c0,0,1.1,1.5,5.4,0.9c1.3-0.1,2.5-0.4,2.9,1c0.8,3.5,1.8,7.1,1.8,7.1l1.7,8.8c0,0,0.7,5.6,1.3,8.3
		c0.6,3,1.7,5.6,2.2,7.5c0.9,3.5,0.6,3.7,4.5,2.9c2.3-0.5,2.5-1.6,2-5.1l-1-6.5c-0.4-1.3-0.8-2.7-1.1-4.1c1.4-0.4,2.8-0.7,4.2-0.8
		c2.1-0.7,4.2-1.2,6.4-1.5c2.6-0.2,8.1-0.7,8.1-0.7s4.6,0.4,6.5,0.6c1.7,0.2,3.3,0.2,5,0c0.1,1.1,0.8,6.6,0.8,6.6s0.6,6.1,0.8,7.5
		c0.1,2.7,0.1,5.5-0.2,8.2c0,0-0.8,7-2.6,8.8c-1.8,1.8-5.4,4.7-5.4,4.7s-5.1,5.2-7,7.8c-1.7,2.5-3.1,5.2-4.3,7.9c0,0-4,7-4.6,11.6
		c-0.4,2.9-2.1,7.6-2.6,11.6c-0.2,2.1-0.5,5.3,0.9,6.2c6.9,4.6,8.5-4.2,9.5-9.2c0.9-4.8,3-9.1,4.8-13.5c1.1-2.7,6.1-9.7,6.1-9.7
		s4.2-4.7,6.6-6.8c1.7-1.5,2.9-3.6,4.9-4.1c1.6-0.4,2.8-0.9,4-1.2c3.1-1,6.4-0.4,9,1.5c2.7,1.8,8,5.5,8,5.5c2.2,2.3,4.3,4.7,6.3,7.2
		c2.3,3,4.4,6.2,6.3,9.5c1,1.8,3.7,9.4,3.7,9.4s1.6,7.5,2,9.4s2.8,6.6,4,6.8c1.4,0.4,2.9,0.3,4.2-0.2c3.4-1,3.4-5.5,2.4-10
		c-0.5-1.9-1.2-3.8-2-5.6c0,0-1.2-3.4-1.7-4.7c-1.6-4.5-5.3-13.7-5.3-13.7s-6-9.1-9.4-12.8c-1.7-1.9-3.5-3.7-5.4-5.3
		c-3.7-3-7.1-7.1-8.4-10.2c-0.6-1.9-1.1-3.8-1.4-5.7c0,0-0.3-2.5-0.4-3.9s0.2-3.2,0.1-4.7c-0.1-2.9-0.3-5.4-0.4-7.4
		c3.7-0.5,2.1-0.6,9.2-1.4c1.7-0.2,5.2-1.1,7.9-0.6c1.9,0.3,5,1.1,5,1.1c1.7,0.8,3.3,1.7,4.8,2.8c1.6,1.2,2.8,2.9,3.5,4.8
		c1.3,3.2,3.1,7.5,3,11.7c-1.3,1.6-4,5.3-4,5.3s-2.2,1.8-3.5,3c-0.7,0.7-2.2,1.8-1.4,2.6c1.3,1.4,4.1,3.1,4.8,2.7
		c1.7-0.9,3.2-2.1,4.6-3.4c0,0,3.1-3.5,4.4-5c2.5-2.9,4.3-5.6,7-8.8c1.9-2.2,5.5-6.9,5.5-6.9s3.3-4.2,4.5-6.2s2.3-4.1,3.2-6.3
		c1-2.8,2.1-5.4,2.9-8.1c1.6-6-0.6-8.5-3.8-8.6c-1.6,0-5.3,2.1-5.3,2.1s-3.5,3.3-4.7,5.6c-0.4,0.6-1.1,2.3-1.5,2.9
		c-2.3,3.1-3.8,4.7-2.8,5.3c2,1.2,4.3,1.3,6.1,2.4c0.5,0.3-1.2,2-2.4,4.2c-1.6,3.1-5.3,8.4-7.1,10c-1-3.3-1.1-6.7-3.3-9.8
		c-1-1.5-2.1-2.9-3.2-4.4c-1.5-1.8-3.1-3.4-4.9-4.8c-2.1-1.7-8-2.7-12.5-3.1c-3.3-0.5-6.6-0.8-9.9-1c-1.7,0-3.4-0.2-5.1-0.1
		c-1.6,0.2-3.2,0.3-4.8,0.3c-0.9-0.1-1.9-0.6-1.9-1.7c0-2.8,0.3-3.6,2.3-6c2.6-3,3.3-4.5,3.3-8.7c0-2.3-1.5-5.4-3.6-8.2
		c-1.8-2.4-5.2-3.7-9.3-3.7c-1.9-0.2-3.7,0.4-5.2,1.5c-1.2,0.7-2.3,1.6-3.3,2.5c-2.7,3-4,12.8-0.7,15.6c0.8,0.6,1.5,1.3,2.1,2.1
		c0.7,1.1,1.2,2.3,1.3,3.6c0,1.7,0.3,3.2-2,3.6l-9.9,0.3c0,0-10.8,1.4-14,1.6c-2,0-7.6,1.3-9.9,1.1c-1.1-4.5-2.2-8.2-2.2-10.5
		c0-0.8,0-2.5,1.7-2.8c1.1-0.2,2.5-0.3,4-0.7c1.1-0.2,2.3-0.8,3.5-1l-0.3-2.7c0,0-0.6-2.4-0.8-3.1c-0.4-1.8-0.4-3.3-1.4-3.7
		c-1.2-0.4-3.3,0.6-6.9,1.1s-9.8,0.3-13.7,0.9c-3.5,0.5-3.8,1.8-3.8,3.3c0.1,1.3,0.4,2.5,0.8,3.7L15.3,39.5z"/>
	<path class="st1" d="M0,160.6h165.4V2.6H0V160.6z M17.8,28.8c3.9-0.6,10.1-0.4,13.7-0.9s5.7-1.5,6.9-1.1c1,0.4,1,1.9,1.4,3.7
		c0.2,0.7,0.8,3.1,0.8,3.1l0.3,2.7c-1.2,0.2-2.4,0.8-3.5,1c-1.5,0.4-2.9,0.5-4,0.7c-1.7,0.3-1.7,2-1.7,2.8c0,2.3,1.1,6,2.2,10.5
		c2.3,0.2,7.9-1.1,9.9-1.1c3.2-0.2,14-1.6,14-1.6l9.9-0.3c2.3-0.4,2-1.9,2-3.6c-0.1-1.3-0.6-2.5-1.3-3.6c-0.6-0.7-1.3-1.4-2.1-2.1
		c-3.3-2.8-2-12.6,0.7-15.6c1-0.9,2.1-1.8,3.3-2.5c1.5-1.1,3.3-1.7,5.2-1.5c4.1,0,7.5,1.3,9.3,3.7c2.1,2.8,3.6,5.9,3.6,8.2
		c0,4.2-0.7,5.7-3.3,8.7c-2,2.4-2.3,3.2-2.3,6c0,1.1,1,1.6,1.9,1.7c1.6,0,3.2-0.1,4.8-0.3c1.7-0.1,3.4,0.1,5.1,0.1
		c3.3,0.2,6.6,0.5,9.9,1c4.5,0.4,10.4,1.4,12.5,3.1c1.8,1.4,3.4,3,4.9,4.8c1.1,1.5,2.2,2.9,3.2,4.4c2.2,3.1,2.3,6.5,3.3,9.8
		c1.8-1.6,5.5-6.9,7.1-10c1.2-2.2,2.9-3.9,2.4-4.2c-1.8-1.1-4.1-1.2-6.1-2.4c-1-0.6,0.5-2.2,2.8-5.3c0.4-0.6,1.1-2.3,1.5-2.9
		c1.2-2.3,4.7-5.6,4.7-5.6s3.7-2.1,5.3-2.1c3.2,0.1,5.4,2.6,3.8,8.6c-0.8,2.7-1.9,5.3-2.9,8.1c-0.9,2.2-2,4.3-3.2,6.3
		s-4.5,6.2-4.5,6.2s-3.6,4.7-5.5,6.9c-2.7,3.2-4.5,5.9-7,8.8c-1.3,1.5-4.4,5-4.4,5c-1.4,1.3-2.9,2.5-4.6,3.4
		c-0.7,0.4-3.5-1.3-4.8-2.7c-0.8-0.8,0.7-1.9,1.4-2.6c1.3-1.2,3.5-3,3.5-3s2.7-3.7,4-5.3c0.1-4.2-1.7-8.5-3-11.7
		c-0.7-1.9-1.9-3.6-3.5-4.8c-1.5-1.1-3.1-2-4.8-2.8c0,0-3.1-0.8-5-1.1c-2.7-0.5-6.2,0.4-7.9,0.6c-7.1,0.8-5.5,0.9-9.2,1.4
		c0.1,2,0.3,4.5,0.4,7.4c0.1,1.5-0.2,3.3-0.1,4.7c0.1,1.4,0.4,3.9,0.4,3.9c0.3,1.9,0.8,3.8,1.4,5.7c1.3,3.1,4.7,7.2,8.4,10.2
		c1.9,1.6,3.7,3.4,5.4,5.3c3.4,3.7,9.4,12.8,9.4,12.8s3.7,9.2,5.3,13.7c0.5,1.3,1.7,4.7,1.7,4.7c0.8,1.8,1.5,3.7,2,5.6
		c1,4.5,1,9-2.4,10c-1.3,0.5-2.8,0.6-4.2,0.2c-1.2-0.2-3.6-4.9-4-6.8s-2-9.4-2-9.4s-2.7-7.6-3.7-9.4c-1.9-3.3-4-6.5-6.3-9.5
		c-2-2.5-4.1-4.9-6.3-7.2c0,0-5.3-3.7-8-5.5c-2.6-1.9-5.9-2.5-9-1.5c-1.2,0.3-2.4,0.8-4,1.2c-2,0.5-3.2,2.6-4.9,4.1
		c-2.4,2.1-6.6,6.8-6.6,6.8s-5,7-6.1,9.7c-1.8,4.4-3.9,8.7-4.8,13.5c-1,5-2.6,13.8-9.5,9.2c-1.4-0.9-1.1-4.1-0.9-6.2
		c0.5-4,2.2-8.7,2.6-11.6c0.6-4.6,4.6-11.6,4.6-11.6c1.2-2.7,2.6-5.4,4.3-7.9c1.9-2.6,7-7.8,7-7.8s3.6-2.9,5.4-4.7
		c1.8-1.8,2.6-8.8,2.6-8.8c0.3-2.7,0.3-5.5,0.2-8.2c-0.2-1.4-0.8-7.5-0.8-7.5s-0.7-5.5-0.8-6.6c-1.7,0.2-3.3,0.2-5,0
		c-1.9-0.2-6.5-0.6-6.5-0.6s-5.5,0.5-8.1,0.7c-2.2,0.3-4.3,0.8-6.4,1.5c-1.4,0.1-2.8,0.4-4.2,0.8c0.3,1.4,0.7,2.8,1.1,4.1l1,6.5
		c0.5,3.5,0.3,4.6-2,5.1c-3.9,0.8-3.6,0.6-4.5-2.9c-0.5-1.9-1.6-4.5-2.2-7.5c-0.6-2.7-1.3-8.3-1.3-8.3l-1.7-8.8c0,0-1-3.6-1.8-7.1
		c-0.4-1.4-1.6-1.1-2.9-1c-4.3,0.6-5.4-0.9-5.4-0.9l-0.5-3.7c-0.4-1.2-0.7-2.4-0.8-3.7C14,30.6,14.3,29.3,17.8,28.8z"/>
	<path class="st1" d="M221.9,147.1h8.6v0.7c0,0.1,0,0.1,0,0.2c-0.2,4.1-3.6,7.2-7.7,7c-5.8,0-8.8-4.5-8.8-11.9s3.2-12,8.8-12
		c4.2,0,6.4,2.7,7,6l8.2-1.5c-1.1-5.8-6-10.7-15.2-10.7c-10.7,0-17.3,7.3-17.3,18.3c0,11.1,5.9,18.2,15.5,18.2
		c5.3,0,9.1-2.2,10.9-5.9l0.3,5.1h5.9v-19.4h-16.2V147.1z"/>
	<path class="st1" d="M273.9,136.4c0-6.4-3.9-10.7-12.8-10.7h-15.3v34.9h8.3v-13.4h5l6.6,13.4h9L267,146
		C271.2,144.7,274,140.8,273.9,136.4z M259.4,141.5H254v-10h5.4c4.1,0,5.8,1.8,5.8,4.9S263.4,141.5,259.4,141.5z"/>
	<path class="st1" d="M295.4,124.9c-10.5,0-17.2,7-17.2,18.3c0,11.2,6.7,18.3,17.2,18.3s17.2-7,17.2-18.3S305.9,124.9,295.4,124.9z
		 M295.4,154.9c-5.5,0-8.7-4.4-8.7-11.8c0-7.4,3.2-11.8,8.7-11.8s8.7,4.4,8.7,11.8S300.9,154.9,295.4,154.9z"/>
	<path class="st1" d="M339.9,148c0,4.1-2.4,6.6-6.5,6.6s-6.5-2.5-6.5-6.6v-22.3h-8.3v22.7c0,7.9,5.5,13,14.8,13s14.8-5,14.8-13
		v-22.7h-8.3V148z"/>
	<path class="st1" d="M371.8,125.7h-15.5v34.9h8.3v-12.7h7c7.9,0,12.7-4.3,12.7-11.2C384.3,130,379.4,125.7,371.8,125.7z
		 M369.8,142.1h-5.2v-10.4h5.2c3.7,0,5.8,1.9,5.8,5.2C375.6,140.2,373.5,142.1,369.8,142.1z"/>
	<g>
		<path class="st1" d="M217.6,61.9c7.9,9,18.1,14,27.6,14c7.9,0,13.1-2.9,13.1-8.2c0-6-6.6-6.8-21-9.7c-13.7-2.7-28.8-7.9-28.8-27
			c0-19,16.6-31,37.4-31c16.5,0,29.9,5.8,37.3,13.9l-14.3,18c-6.2-6.8-14.4-10.7-23.6-10.7c-6.9,0-12.6,2.6-12.6,7.4
			c0,5.3,6.6,6.3,18.1,8.6c14.7,3,33,7.1,33,28c0,20.2-17.8,31.9-39.5,31.9c-15.3,0-33.2-6-41.1-15.7L217.6,61.9z"/>
		<path class="st1" d="M365.3,23.8h-25.5v70.8h-27V23.8h-25.5V2.5h78.1L365.3,23.8L365.3,23.8z"/>
		<path class="st1" d="M419.7,75.7h-31.6l-5.8,18.8h-27l32.6-92H420l32.6,92h-27L419.7,75.7z M414.1,57.6l-6.1-20
			c-1.6-5.1-3.1-10.5-4-16.3h-0.3c-0.9,5.8-2.4,11.3-4,16.3l-6.1,20H414.1z"/>
		<path class="st1" d="M495.1,60.8h-10.2v33.7h-27v-92h43.9c22.9,0,35.3,10.2,35.3,29.1c0,11.8-6.2,20.9-16.6,25.3l18.7,37.7h-29.1
			L495.1,60.8z M484.8,43.4h10.7c8.5,0,13.2-4.2,13.2-11.8c0-7.2-4.4-10.9-13.2-10.9h-10.7V43.4z"/>
		<path class="st1" d="M583.1,59.1l-8.9,10.7v24.6h-27v-92h27v36.1l28.3-36.1h30.3l-31.4,37.7l32.5,54.3h-30.7L583.1,59.1z"/>
	</g>
</g>
</svg>
