<svg width="1514" height="770" viewBox="0 0 1514 770" fill="none" xmlns="http://www.w3.org/2000/svg">
<rect width="1514" height="770" fill="#3D5C6D"/>
<path d="M469 76V693" stroke="white" stroke-width="4.64927"/>
<path d="M469 41V76" stroke="white" stroke-width="4.64927" stroke-dasharray="10.85 10.85"/>
<path d="M469 693V729" stroke="white" stroke-width="4.64927" stroke-dasharray="10.85 10.85"/>
<line x1="469" y1="475.675" x2="1036" y2="475.675" stroke="white" stroke-width="4.64927"/>
<line x1="469" y1="307.675" x2="1249" y2="307.675" stroke="white" stroke-width="4.64927"/>
<line x1="469" y1="644.675" x2="1110" y2="644.675" stroke="white" stroke-width="4.64927"/>
<line x1="469" y1="134.675" x2="923" y2="134.675" stroke="white" stroke-width="4.64927"/>
<path d="M698.251 102.103H711.36V104.418H700.811V110.155H710.086V112.407H700.811V121H698.251V102.103ZM713.868 102.103H716.184V121H713.868V102.103ZM728.276 107.222H730.836C730.51 108.106 729.786 110.121 728.662 113.269C727.822 115.636 727.118 117.565 726.552 119.058C725.215 122.574 724.271 124.718 723.722 125.49C723.173 126.261 722.23 126.647 720.892 126.647C720.566 126.647 720.313 126.635 720.133 126.609C719.962 126.583 719.747 126.536 719.49 126.467V124.358C719.893 124.469 720.185 124.538 720.365 124.563C720.545 124.589 720.704 124.602 720.841 124.602C721.27 124.602 721.583 124.529 721.78 124.383C721.986 124.246 722.157 124.075 722.294 123.869C722.337 123.8 722.492 123.448 722.758 122.814C723.023 122.179 723.216 121.708 723.336 121.399L718.242 107.222H720.866L724.558 118.44L728.276 107.222ZM737.706 106.978C738.786 106.978 739.73 107.244 740.536 107.776C740.973 108.076 741.419 108.513 741.874 109.088V107.351H744.009V119.881C744.009 121.63 743.752 123.011 743.237 124.023C742.277 125.893 740.463 126.827 737.796 126.827C736.312 126.827 735.064 126.493 734.052 125.824C733.04 125.164 732.474 124.126 732.354 122.711H734.708C734.82 123.328 735.043 123.804 735.377 124.139C735.9 124.653 736.724 124.911 737.847 124.911C739.622 124.911 740.785 124.285 741.333 123.033C741.659 122.295 741.809 120.979 741.784 119.083C741.321 119.786 740.763 120.31 740.111 120.653C739.46 120.996 738.598 121.167 737.526 121.167C736.033 121.167 734.725 120.64 733.602 119.585C732.487 118.522 731.93 116.768 731.93 114.323C731.93 112.017 732.491 110.216 733.615 108.921C734.747 107.626 736.111 106.978 737.706 106.978ZM741.874 114.053C741.874 112.347 741.522 111.082 740.819 110.258C740.116 109.435 739.219 109.023 738.13 109.023C736.501 109.023 735.386 109.787 734.786 111.313C734.468 112.128 734.31 113.196 734.31 114.516C734.31 116.069 734.623 117.252 735.249 118.067C735.883 118.873 736.732 119.276 737.796 119.276C739.46 119.276 740.63 118.526 741.308 117.025C741.685 116.176 741.874 115.185 741.874 114.053ZM747.971 103.376H750.313V107.222H752.512V109.113H750.313V118.106C750.313 118.586 750.476 118.907 750.801 119.07C750.982 119.165 751.282 119.212 751.702 119.212C751.813 119.212 751.933 119.212 752.062 119.212C752.191 119.203 752.341 119.19 752.512 119.173V121C752.247 121.077 751.968 121.133 751.676 121.167C751.393 121.202 751.084 121.219 750.75 121.219C749.669 121.219 748.936 120.944 748.55 120.395C748.164 119.838 747.971 119.118 747.971 118.234V109.113H746.106V107.222H747.971V103.376ZM760.578 106.914C761.556 106.914 762.504 107.145 763.421 107.608C764.339 108.063 765.038 108.655 765.518 109.384C765.981 110.078 766.29 110.889 766.444 111.815C766.581 112.45 766.65 113.462 766.65 114.851H756.552C756.595 116.249 756.925 117.372 757.542 118.221C758.16 119.062 759.116 119.482 760.411 119.482C761.62 119.482 762.585 119.083 763.305 118.286C763.717 117.823 764.009 117.287 764.18 116.678H766.457C766.397 117.184 766.196 117.75 765.853 118.376C765.518 118.993 765.141 119.499 764.72 119.894C764.017 120.58 763.147 121.043 762.109 121.283C761.552 121.42 760.921 121.489 760.218 121.489C758.503 121.489 757.049 120.867 755.857 119.624C754.665 118.371 754.069 116.622 754.069 114.375C754.069 112.162 754.669 110.366 755.87 108.985C757.071 107.604 758.64 106.914 760.578 106.914ZM764.27 113.011C764.176 112.008 763.957 111.206 763.614 110.606C762.98 109.491 761.92 108.933 760.437 108.933C759.373 108.933 758.481 109.319 757.761 110.091C757.041 110.854 756.659 111.828 756.616 113.011H764.27ZM769.57 107.222H771.77V109.602C771.95 109.139 772.392 108.577 773.095 107.917C773.798 107.248 774.609 106.914 775.526 106.914C775.569 106.914 775.642 106.918 775.745 106.927C775.848 106.935 776.024 106.952 776.273 106.978V109.422C776.135 109.397 776.007 109.379 775.887 109.371C775.775 109.362 775.651 109.358 775.514 109.358C774.347 109.358 773.451 109.735 772.825 110.49C772.199 111.236 771.886 112.098 771.886 113.076V121H769.57V107.222ZM786.075 103.376H788.416V107.222H790.616V109.113H788.416V118.106C788.416 118.586 788.579 118.907 788.905 119.07C789.085 119.165 789.385 119.212 789.806 119.212C789.917 119.212 790.037 119.212 790.166 119.212C790.294 119.203 790.445 119.19 790.616 119.173V121C790.35 121.077 790.071 121.133 789.78 121.167C789.497 121.202 789.188 121.219 788.854 121.219C787.773 121.219 787.04 120.944 786.654 120.395C786.268 119.838 786.075 119.118 786.075 118.234V109.113H784.21V107.222H786.075V103.376ZM792.944 107.287H795.299V121H792.944V107.287ZM792.944 102.103H795.299V104.727H792.944V102.103ZM798.875 102.103H801.19V121H798.875V102.103ZM819.573 118.813C820.44 118.813 821.151 118.723 821.709 118.543C822.704 118.208 823.518 117.565 824.153 116.613C824.659 115.85 825.023 114.872 825.246 113.68C825.375 112.968 825.439 112.308 825.439 111.699C825.439 109.358 824.972 107.54 824.037 106.245C823.111 104.95 821.614 104.302 819.548 104.302H815.007V118.813H819.573ZM812.434 102.103H820.088C822.686 102.103 824.702 103.024 826.134 104.868C827.412 106.532 828.051 108.663 828.051 111.262C828.051 113.269 827.674 115.082 826.919 116.703C825.59 119.568 823.304 121 820.062 121H812.434V102.103ZM832.823 117.334C832.823 118.003 833.068 118.53 833.557 118.916C834.046 119.302 834.624 119.495 835.293 119.495C836.108 119.495 836.897 119.306 837.66 118.929C838.947 118.303 839.59 117.278 839.59 115.854V113.989C839.307 114.169 838.943 114.319 838.497 114.439C838.051 114.559 837.613 114.645 837.184 114.697L835.782 114.877C834.942 114.988 834.311 115.164 833.891 115.404C833.179 115.807 832.823 116.45 832.823 117.334ZM838.432 112.651C838.964 112.583 839.32 112.36 839.5 111.982C839.603 111.776 839.654 111.481 839.654 111.095C839.654 110.306 839.371 109.735 838.805 109.384C838.248 109.023 837.446 108.843 836.4 108.843C835.19 108.843 834.333 109.169 833.827 109.821C833.544 110.181 833.359 110.717 833.274 111.429H831.113C831.155 109.731 831.704 108.552 832.759 107.891C833.823 107.222 835.053 106.888 836.451 106.888C838.072 106.888 839.388 107.197 840.4 107.814C841.404 108.432 841.906 109.392 841.906 110.696V118.633C841.906 118.873 841.953 119.066 842.047 119.212C842.15 119.358 842.36 119.431 842.677 119.431C842.78 119.431 842.896 119.426 843.025 119.418C843.153 119.401 843.291 119.379 843.436 119.353V121.064C843.076 121.167 842.802 121.232 842.613 121.257C842.424 121.283 842.167 121.296 841.841 121.296C841.044 121.296 840.465 121.013 840.105 120.447C839.916 120.147 839.783 119.722 839.706 119.173C839.234 119.791 838.557 120.327 837.673 120.781C836.79 121.236 835.817 121.463 834.753 121.463C833.475 121.463 832.429 121.077 831.614 120.305C830.808 119.525 830.405 118.552 830.405 117.385C830.405 116.107 830.804 115.117 831.601 114.414C832.399 113.71 833.445 113.277 834.74 113.114L838.432 112.651ZM845.713 107.222H847.913V109.178C848.565 108.372 849.255 107.793 849.984 107.441C850.713 107.09 851.524 106.914 852.416 106.914C854.371 106.914 855.692 107.596 856.378 108.959C856.755 109.705 856.944 110.773 856.944 112.162V121H854.59V112.317C854.59 111.476 854.465 110.799 854.217 110.284C853.805 109.427 853.059 108.998 851.978 108.998C851.429 108.998 850.979 109.053 850.627 109.165C849.993 109.354 849.435 109.731 848.955 110.297C848.569 110.752 848.316 111.223 848.196 111.712C848.085 112.192 848.029 112.883 848.029 113.783V121H845.713V107.222ZM860.379 107.222H862.668V109.178C863.217 108.5 863.715 108.007 864.161 107.698C864.924 107.175 865.79 106.914 866.759 106.914C867.857 106.914 868.74 107.184 869.409 107.724C869.787 108.033 870.13 108.487 870.438 109.088C870.953 108.35 871.558 107.806 872.252 107.454C872.947 107.094 873.727 106.914 874.593 106.914C876.446 106.914 877.707 107.583 878.376 108.921C878.736 109.641 878.916 110.61 878.916 111.828V121H876.51V111.429C876.51 110.511 876.279 109.881 875.816 109.538C875.361 109.195 874.804 109.023 874.143 109.023C873.234 109.023 872.449 109.328 871.789 109.937C871.137 110.546 870.811 111.562 870.811 112.986V121H868.457V112.008C868.457 111.073 868.346 110.391 868.123 109.963C867.771 109.319 867.115 108.998 866.155 108.998C865.28 108.998 864.482 109.336 863.762 110.014C863.05 110.692 862.694 111.918 862.694 113.693V121H860.379V107.222ZM884.1 117.334C884.1 118.003 884.345 118.53 884.833 118.916C885.322 119.302 885.901 119.495 886.57 119.495C887.385 119.495 888.174 119.306 888.937 118.929C890.223 118.303 890.867 117.278 890.867 115.854V113.989C890.584 114.169 890.219 114.319 889.773 114.439C889.327 114.559 888.89 114.645 888.461 114.697L887.059 114.877C886.218 114.988 885.588 115.164 885.168 115.404C884.456 115.807 884.1 116.45 884.1 117.334ZM889.709 112.651C890.241 112.583 890.597 112.36 890.777 111.982C890.88 111.776 890.931 111.481 890.931 111.095C890.931 110.306 890.648 109.735 890.082 109.384C889.525 109.023 888.723 108.843 887.676 108.843C886.467 108.843 885.61 109.169 885.104 109.821C884.821 110.181 884.636 110.717 884.55 111.429H882.389C882.432 109.731 882.981 108.552 884.036 107.891C885.099 107.222 886.33 106.888 887.728 106.888C889.349 106.888 890.665 107.197 891.677 107.814C892.681 108.432 893.182 109.392 893.182 110.696V118.633C893.182 118.873 893.229 119.066 893.324 119.212C893.427 119.358 893.637 119.431 893.954 119.431C894.057 119.431 894.173 119.426 894.301 119.418C894.43 119.401 894.567 119.379 894.713 119.353V121.064C894.353 121.167 894.078 121.232 893.89 121.257C893.701 121.283 893.444 121.296 893.118 121.296C892.32 121.296 891.741 121.013 891.381 120.447C891.193 120.147 891.06 119.722 890.982 119.173C890.511 119.791 889.833 120.327 888.95 120.781C888.067 121.236 887.093 121.463 886.03 121.463C884.752 121.463 883.706 121.077 882.891 120.305C882.085 119.525 881.682 118.552 881.682 117.385C881.682 116.107 882.08 115.117 882.878 114.414C883.676 113.71 884.722 113.277 886.017 113.114L889.709 112.651ZM897.054 107.222H899.254V109.602C899.434 109.139 899.876 108.577 900.579 107.917C901.282 107.248 902.093 106.914 903.01 106.914C903.053 106.914 903.126 106.918 903.229 106.927C903.332 106.935 903.508 106.952 903.757 106.978V109.422C903.619 109.397 903.491 109.379 903.371 109.371C903.259 109.362 903.135 109.358 902.998 109.358C901.831 109.358 900.935 109.735 900.309 110.49C899.683 111.236 899.37 112.098 899.37 113.076V121H897.054V107.222ZM905.712 102.103H907.937V113.076L913.881 107.222H916.839L911.565 112.381L917.135 121H914.177L909.88 114.053L907.937 115.829V121H905.712V102.103Z" fill="#EFEEEA"/>
<path d="M347.357 124.654H350.141L354.262 136.783L358.354 124.654H361.107V139H359.262V130.533C359.262 130.24 359.268 129.755 359.281 129.078C359.294 128.401 359.301 127.675 359.301 126.9L355.209 139H353.285L349.164 126.9V127.34C349.164 127.691 349.171 128.229 349.184 128.951C349.203 129.667 349.213 130.195 349.213 130.533V139H347.357V124.654ZM365.18 136.217C365.18 136.725 365.365 137.125 365.736 137.418C366.107 137.711 366.547 137.857 367.055 137.857C367.673 137.857 368.272 137.714 368.852 137.428C369.828 136.952 370.316 136.174 370.316 135.094V133.678C370.102 133.814 369.825 133.928 369.486 134.02C369.148 134.111 368.816 134.176 368.49 134.215L367.426 134.352C366.788 134.436 366.309 134.57 365.99 134.752C365.45 135.058 365.18 135.546 365.18 136.217ZM369.438 132.662C369.841 132.61 370.111 132.441 370.248 132.154C370.326 131.998 370.365 131.773 370.365 131.48C370.365 130.882 370.15 130.449 369.721 130.182C369.298 129.908 368.689 129.771 367.895 129.771C366.977 129.771 366.326 130.019 365.941 130.514C365.727 130.787 365.587 131.194 365.521 131.734H363.881C363.913 130.445 364.33 129.55 365.131 129.049C365.938 128.541 366.872 128.287 367.934 128.287C369.164 128.287 370.163 128.521 370.932 128.99C371.693 129.459 372.074 130.188 372.074 131.178V137.203C372.074 137.385 372.11 137.532 372.182 137.643C372.26 137.753 372.419 137.809 372.66 137.809C372.738 137.809 372.826 137.805 372.924 137.799C373.021 137.786 373.126 137.77 373.236 137.75V139.049C372.963 139.127 372.755 139.176 372.611 139.195C372.468 139.215 372.273 139.225 372.025 139.225C371.42 139.225 370.98 139.01 370.707 138.58C370.564 138.352 370.463 138.03 370.404 137.613C370.046 138.082 369.532 138.489 368.861 138.834C368.191 139.179 367.452 139.352 366.645 139.352C365.674 139.352 364.88 139.059 364.262 138.473C363.65 137.88 363.344 137.141 363.344 136.256C363.344 135.286 363.646 134.534 364.252 134C364.857 133.466 365.652 133.137 366.635 133.014L369.438 132.662ZM375.014 128.541H376.684V130.348C376.82 129.996 377.156 129.57 377.689 129.068C378.223 128.561 378.839 128.307 379.535 128.307C379.568 128.307 379.623 128.31 379.701 128.316C379.779 128.323 379.913 128.336 380.102 128.355V130.211C379.997 130.191 379.9 130.178 379.809 130.172C379.724 130.165 379.63 130.162 379.525 130.162C378.64 130.162 377.96 130.449 377.484 131.021C377.009 131.588 376.771 132.242 376.771 132.984V139H375.014V128.541ZM381.977 125.621H383.754V128.541H385.424V129.977H383.754V136.803C383.754 137.167 383.878 137.411 384.125 137.535C384.262 137.607 384.49 137.643 384.809 137.643C384.893 137.643 384.984 137.643 385.082 137.643C385.18 137.636 385.294 137.626 385.424 137.613V139C385.222 139.059 385.01 139.101 384.789 139.127C384.574 139.153 384.34 139.166 384.086 139.166C383.266 139.166 382.709 138.958 382.416 138.541C382.123 138.118 381.977 137.571 381.977 136.9V129.977H380.561V128.541H381.977V125.621ZM388.236 135.719C388.288 136.305 388.435 136.754 388.676 137.066C389.118 137.633 389.887 137.916 390.98 137.916C391.632 137.916 392.204 137.776 392.699 137.496C393.194 137.21 393.441 136.77 393.441 136.178C393.441 135.729 393.243 135.387 392.846 135.152C392.592 135.009 392.09 134.843 391.342 134.654L389.945 134.303C389.053 134.081 388.396 133.834 387.973 133.561C387.217 133.085 386.84 132.428 386.84 131.588C386.84 130.598 387.195 129.798 387.904 129.186C388.62 128.574 389.581 128.268 390.785 128.268C392.361 128.268 393.497 128.73 394.193 129.654C394.63 130.24 394.841 130.872 394.828 131.549H393.168C393.135 131.152 392.995 130.79 392.748 130.465C392.344 130.003 391.645 129.771 390.648 129.771C389.984 129.771 389.48 129.898 389.135 130.152C388.796 130.406 388.627 130.742 388.627 131.158C388.627 131.614 388.852 131.979 389.301 132.252C389.561 132.415 389.945 132.558 390.453 132.682L391.615 132.965C392.878 133.271 393.725 133.567 394.154 133.854C394.838 134.303 395.18 135.009 395.18 135.973C395.18 136.904 394.825 137.708 394.115 138.385C393.412 139.062 392.338 139.4 390.893 139.4C389.337 139.4 388.233 139.049 387.582 138.346C386.938 137.636 386.592 136.76 386.547 135.719H388.236ZM402.094 139C402.159 137.796 402.406 136.747 402.836 135.855C403.272 134.964 404.118 134.153 405.375 133.424L407.25 132.34C408.09 131.852 408.679 131.435 409.018 131.09C409.551 130.549 409.818 129.931 409.818 129.234C409.818 128.421 409.574 127.776 409.086 127.301C408.598 126.819 407.947 126.578 407.133 126.578C405.928 126.578 405.095 127.034 404.633 127.945C404.385 128.434 404.249 129.111 404.223 129.977H402.436C402.455 128.759 402.68 127.766 403.109 126.998C403.871 125.644 405.215 124.967 407.143 124.967C408.744 124.967 409.913 125.4 410.648 126.266C411.391 127.132 411.762 128.095 411.762 129.156C411.762 130.276 411.368 131.233 410.58 132.027C410.124 132.49 409.307 133.049 408.129 133.707L406.791 134.449C406.153 134.801 405.652 135.136 405.287 135.455C404.636 136.021 404.226 136.65 404.057 137.34H411.693V139H402.094ZM418.012 125.016C419.822 125.016 421.13 125.761 421.938 127.252C422.562 128.404 422.875 129.983 422.875 131.988C422.875 133.889 422.592 135.462 422.025 136.705C421.205 138.489 419.864 139.381 418.002 139.381C416.322 139.381 415.072 138.652 414.252 137.193C413.568 135.976 413.227 134.342 413.227 132.291C413.227 130.702 413.432 129.339 413.842 128.199C414.61 126.077 416 125.016 418.012 125.016ZM417.992 137.779C418.904 137.779 419.63 137.376 420.17 136.568C420.71 135.761 420.98 134.257 420.98 132.057C420.98 130.468 420.785 129.163 420.395 128.141C420.004 127.112 419.245 126.598 418.119 126.598C417.084 126.598 416.326 127.086 415.844 128.062C415.368 129.033 415.131 130.465 415.131 132.359C415.131 133.785 415.284 134.931 415.59 135.797C416.059 137.118 416.859 137.779 417.992 137.779ZM424.359 139C424.424 137.796 424.672 136.747 425.102 135.855C425.538 134.964 426.384 134.153 427.641 133.424L429.516 132.34C430.355 131.852 430.945 131.435 431.283 131.09C431.817 130.549 432.084 129.931 432.084 129.234C432.084 128.421 431.84 127.776 431.352 127.301C430.863 126.819 430.212 126.578 429.398 126.578C428.194 126.578 427.361 127.034 426.898 127.945C426.651 128.434 426.514 129.111 426.488 129.977H424.701C424.721 128.759 424.945 127.766 425.375 126.998C426.137 125.644 427.481 124.967 429.408 124.967C431.01 124.967 432.178 125.4 432.914 126.266C433.656 127.132 434.027 128.095 434.027 129.156C434.027 130.276 433.633 131.233 432.846 132.027C432.39 132.49 431.573 133.049 430.395 133.707L429.057 134.449C428.419 134.801 427.917 135.136 427.553 135.455C426.902 136.021 426.492 136.65 426.322 137.34H433.959V139H424.359ZM435.492 139C435.557 137.796 435.805 136.747 436.234 135.855C436.671 134.964 437.517 134.153 438.773 133.424L440.648 132.34C441.488 131.852 442.077 131.435 442.416 131.09C442.95 130.549 443.217 129.931 443.217 129.234C443.217 128.421 442.973 127.776 442.484 127.301C441.996 126.819 441.345 126.578 440.531 126.578C439.327 126.578 438.493 127.034 438.031 127.945C437.784 128.434 437.647 129.111 437.621 129.977H435.834C435.854 128.759 436.078 127.766 436.508 126.998C437.27 125.644 438.614 124.967 440.541 124.967C442.143 124.967 443.311 125.4 444.047 126.266C444.789 127.132 445.16 128.095 445.16 129.156C445.16 130.276 444.766 131.233 443.979 132.027C443.523 132.49 442.706 133.049 441.527 133.707L440.189 134.449C439.551 134.801 439.05 135.136 438.686 135.455C438.035 136.021 437.624 136.65 437.455 137.34H445.092V139H435.492Z" fill="#EFEEEA"/>
<path d="M365.131 294.63H367.914L372.035 306.759L376.127 294.63H378.881V308.976H377.035V300.509C377.035 300.216 377.042 299.731 377.055 299.054C377.068 298.377 377.074 297.651 377.074 296.876L372.982 308.976H371.059L366.938 296.876V297.315C366.938 297.667 366.944 298.204 366.957 298.927C366.977 299.643 366.986 300.17 366.986 300.509V308.976H365.131V294.63ZM382.953 306.192C382.953 306.7 383.139 307.101 383.51 307.394C383.881 307.687 384.32 307.833 384.828 307.833C385.447 307.833 386.046 307.69 386.625 307.403C387.602 306.928 388.09 306.15 388.09 305.069V303.653C387.875 303.79 387.598 303.904 387.26 303.995C386.921 304.086 386.589 304.151 386.264 304.19L385.199 304.327C384.561 304.412 384.083 304.545 383.764 304.728C383.223 305.034 382.953 305.522 382.953 306.192ZM387.211 302.638C387.615 302.586 387.885 302.416 388.021 302.13C388.1 301.974 388.139 301.749 388.139 301.456C388.139 300.857 387.924 300.424 387.494 300.157C387.071 299.884 386.462 299.747 385.668 299.747C384.75 299.747 384.099 299.994 383.715 300.489C383.5 300.763 383.36 301.17 383.295 301.71H381.654C381.687 300.421 382.104 299.526 382.904 299.024C383.712 298.517 384.646 298.263 385.707 298.263C386.938 298.263 387.937 298.497 388.705 298.966C389.467 299.435 389.848 300.164 389.848 301.153V307.179C389.848 307.361 389.883 307.507 389.955 307.618C390.033 307.729 390.193 307.784 390.434 307.784C390.512 307.784 390.6 307.781 390.697 307.774C390.795 307.761 390.899 307.745 391.01 307.726V309.024C390.736 309.103 390.528 309.151 390.385 309.171C390.242 309.19 390.046 309.2 389.799 309.2C389.193 309.2 388.754 308.985 388.48 308.556C388.337 308.328 388.236 308.006 388.178 307.589C387.82 308.058 387.305 308.465 386.635 308.81C385.964 309.155 385.225 309.327 384.418 309.327C383.448 309.327 382.654 309.034 382.035 308.448C381.423 307.856 381.117 307.117 381.117 306.231C381.117 305.261 381.42 304.509 382.025 303.976C382.631 303.442 383.425 303.113 384.408 302.989L387.211 302.638ZM394.496 296.661H392.738V294.63H394.496V296.661ZM391.078 311.622C391.866 311.596 392.338 311.524 392.494 311.407C392.657 311.297 392.738 310.942 392.738 310.343V298.565H394.496V310.528C394.496 311.29 394.372 311.86 394.125 312.237C393.715 312.875 392.937 313.194 391.791 313.194C391.706 313.194 391.615 313.191 391.518 313.185C391.426 313.178 391.28 313.165 391.078 313.146V311.622ZM402.094 308.976C402.159 307.771 402.406 306.723 402.836 305.831C403.272 304.939 404.118 304.129 405.375 303.399L407.25 302.315C408.09 301.827 408.679 301.41 409.018 301.065C409.551 300.525 409.818 299.907 409.818 299.21C409.818 298.396 409.574 297.752 409.086 297.276C408.598 296.795 407.947 296.554 407.133 296.554C405.928 296.554 405.095 297.009 404.633 297.921C404.385 298.409 404.249 299.086 404.223 299.952H402.436C402.455 298.735 402.68 297.742 403.109 296.974C403.871 295.619 405.215 294.942 407.143 294.942C408.744 294.942 409.913 295.375 410.648 296.241C411.391 297.107 411.762 298.071 411.762 299.132C411.762 300.252 411.368 301.209 410.58 302.003C410.124 302.465 409.307 303.025 408.129 303.683L406.791 304.425C406.153 304.776 405.652 305.112 405.287 305.431C404.636 305.997 404.226 306.625 404.057 307.315H411.693V308.976H402.094ZM418.012 294.991C419.822 294.991 421.13 295.737 421.938 297.228C422.562 298.38 422.875 299.959 422.875 301.964C422.875 303.865 422.592 305.437 422.025 306.681C421.205 308.465 419.864 309.356 418.002 309.356C416.322 309.356 415.072 308.627 414.252 307.169C413.568 305.951 413.227 304.317 413.227 302.267C413.227 300.678 413.432 299.314 413.842 298.175C414.61 296.052 416 294.991 418.012 294.991ZM417.992 307.755C418.904 307.755 419.63 307.351 420.17 306.544C420.71 305.737 420.98 304.233 420.98 302.032C420.98 300.444 420.785 299.138 420.395 298.116C420.004 297.088 419.245 296.573 418.119 296.573C417.084 296.573 416.326 297.062 415.844 298.038C415.368 299.008 415.131 300.44 415.131 302.335C415.131 303.761 415.284 304.907 415.59 305.772C416.059 307.094 416.859 307.755 417.992 307.755ZM424.359 308.976C424.424 307.771 424.672 306.723 425.102 305.831C425.538 304.939 426.384 304.129 427.641 303.399L429.516 302.315C430.355 301.827 430.945 301.41 431.283 301.065C431.817 300.525 432.084 299.907 432.084 299.21C432.084 298.396 431.84 297.752 431.352 297.276C430.863 296.795 430.212 296.554 429.398 296.554C428.194 296.554 427.361 297.009 426.898 297.921C426.651 298.409 426.514 299.086 426.488 299.952H424.701C424.721 298.735 424.945 297.742 425.375 296.974C426.137 295.619 427.481 294.942 429.408 294.942C431.01 294.942 432.178 295.375 432.914 296.241C433.656 297.107 434.027 298.071 434.027 299.132C434.027 300.252 433.633 301.209 432.846 302.003C432.39 302.465 431.573 303.025 430.395 303.683L429.057 304.425C428.419 304.776 427.917 305.112 427.553 305.431C426.902 305.997 426.492 306.625 426.322 307.315H433.959V308.976H424.359ZM435.492 308.976C435.557 307.771 435.805 306.723 436.234 305.831C436.671 304.939 437.517 304.129 438.773 303.399L440.648 302.315C441.488 301.827 442.077 301.41 442.416 301.065C442.95 300.525 443.217 299.907 443.217 299.21C443.217 298.396 442.973 297.752 442.484 297.276C441.996 296.795 441.345 296.554 440.531 296.554C439.327 296.554 438.493 297.009 438.031 297.921C437.784 298.409 437.647 299.086 437.621 299.952H435.834C435.854 298.735 436.078 297.742 436.508 296.974C437.27 295.619 438.614 294.942 440.541 294.942C442.143 294.942 443.311 295.375 444.047 296.241C444.789 297.107 445.16 298.071 445.16 299.132C445.16 300.252 444.766 301.209 443.979 302.003C443.523 302.465 442.706 303.025 441.527 303.683L440.189 304.425C439.551 304.776 439.05 305.112 438.686 305.431C438.035 305.997 437.624 306.625 437.455 307.315H445.092V308.976H435.492Z" fill="#EFEEEA"/>
<path d="M300.805 475.322C300.85 476.136 301.042 476.797 301.381 477.305C302.025 478.255 303.161 478.73 304.789 478.73C305.518 478.73 306.182 478.626 306.781 478.418C307.94 478.014 308.52 477.292 308.52 476.25C308.52 475.469 308.275 474.912 307.787 474.58C307.292 474.255 306.518 473.971 305.463 473.73L303.52 473.291C302.25 473.005 301.352 472.689 300.824 472.344C299.913 471.745 299.457 470.85 299.457 469.658C299.457 468.369 299.903 467.311 300.795 466.484C301.687 465.658 302.95 465.244 304.584 465.244C306.088 465.244 307.364 465.609 308.412 466.338C309.467 467.061 309.994 468.219 309.994 469.814H308.168C308.07 469.046 307.862 468.457 307.543 468.047C306.951 467.298 305.945 466.924 304.525 466.924C303.38 466.924 302.556 467.165 302.055 467.646C301.553 468.128 301.303 468.688 301.303 469.326C301.303 470.029 301.596 470.544 302.182 470.869C302.566 471.077 303.435 471.338 304.789 471.65L306.801 472.109C307.771 472.331 308.52 472.633 309.047 473.018C309.958 473.688 310.414 474.661 310.414 475.938C310.414 477.526 309.835 478.662 308.676 479.346C307.523 480.029 306.182 480.371 304.652 480.371C302.868 480.371 301.472 479.915 300.463 479.004C299.454 478.099 298.959 476.872 298.979 475.322H300.805ZM316.996 469.258C317.738 469.258 318.458 469.434 319.154 469.785C319.851 470.13 320.382 470.579 320.746 471.133C321.098 471.66 321.332 472.275 321.449 472.979C321.553 473.46 321.605 474.229 321.605 475.283H313.939C313.972 476.344 314.223 477.197 314.691 477.842C315.16 478.48 315.886 478.799 316.869 478.799C317.787 478.799 318.52 478.496 319.066 477.891C319.379 477.539 319.6 477.132 319.73 476.67H321.459C321.413 477.054 321.26 477.484 321 477.959C320.746 478.428 320.46 478.812 320.141 479.111C319.607 479.632 318.946 479.984 318.158 480.166C317.735 480.27 317.257 480.322 316.723 480.322C315.421 480.322 314.317 479.85 313.412 478.906C312.507 477.956 312.055 476.628 312.055 474.922C312.055 473.242 312.51 471.878 313.422 470.83C314.333 469.782 315.525 469.258 316.996 469.258ZM319.799 473.887C319.727 473.125 319.561 472.516 319.301 472.061C318.819 471.214 318.015 470.791 316.889 470.791C316.081 470.791 315.404 471.084 314.857 471.67C314.311 472.249 314.021 472.988 313.988 473.887H319.799ZM328.188 478.77C329.008 478.77 329.688 478.428 330.229 477.744C330.775 477.054 331.049 476.025 331.049 474.658C331.049 473.825 330.928 473.109 330.688 472.51C330.232 471.357 329.398 470.781 328.188 470.781C326.97 470.781 326.137 471.39 325.688 472.607C325.447 473.258 325.326 474.085 325.326 475.088C325.326 475.895 325.447 476.582 325.688 477.148C326.143 478.229 326.977 478.77 328.188 478.77ZM323.637 469.541H325.346V470.928C325.697 470.452 326.081 470.085 326.498 469.824C327.09 469.434 327.787 469.238 328.588 469.238C329.773 469.238 330.779 469.694 331.605 470.605C332.432 471.51 332.846 472.806 332.846 474.492C332.846 476.771 332.25 478.398 331.059 479.375C330.303 479.993 329.424 480.303 328.422 480.303C327.634 480.303 326.973 480.13 326.439 479.785C326.127 479.59 325.779 479.255 325.395 478.779V484.121H323.637V469.541ZM335.258 466.572H337.035V469.492H338.705V470.928H337.035V477.754C337.035 478.118 337.159 478.363 337.406 478.486C337.543 478.558 337.771 478.594 338.09 478.594C338.174 478.594 338.266 478.594 338.363 478.594C338.461 478.587 338.575 478.577 338.705 478.564V479.951C338.503 480.01 338.292 480.052 338.07 480.078C337.855 480.104 337.621 480.117 337.367 480.117C336.547 480.117 335.99 479.909 335.697 479.492C335.404 479.069 335.258 478.522 335.258 477.852V470.928H333.842V469.492H335.258V466.572ZM344.828 469.258C345.57 469.258 346.29 469.434 346.986 469.785C347.683 470.13 348.214 470.579 348.578 471.133C348.93 471.66 349.164 472.275 349.281 472.979C349.385 473.46 349.438 474.229 349.438 475.283H341.771C341.804 476.344 342.055 477.197 342.523 477.842C342.992 478.48 343.718 478.799 344.701 478.799C345.619 478.799 346.352 478.496 346.898 477.891C347.211 477.539 347.432 477.132 347.562 476.67H349.291C349.245 477.054 349.092 477.484 348.832 477.959C348.578 478.428 348.292 478.812 347.973 479.111C347.439 479.632 346.778 479.984 345.99 480.166C345.567 480.27 345.089 480.322 344.555 480.322C343.253 480.322 342.149 479.85 341.244 478.906C340.339 477.956 339.887 476.628 339.887 474.922C339.887 473.242 340.342 471.878 341.254 470.83C342.165 469.782 343.357 469.258 344.828 469.258ZM347.631 473.887C347.559 473.125 347.393 472.516 347.133 472.061C346.651 471.214 345.847 470.791 344.721 470.791C343.913 470.791 343.236 471.084 342.689 471.67C342.143 472.249 341.853 472.988 341.82 473.887H347.631ZM351.605 469.492H353.344V470.977C353.76 470.462 354.138 470.088 354.477 469.854C355.056 469.456 355.714 469.258 356.449 469.258C357.283 469.258 357.953 469.463 358.461 469.873C358.747 470.107 359.008 470.452 359.242 470.908C359.633 470.348 360.092 469.935 360.619 469.668C361.146 469.395 361.739 469.258 362.396 469.258C363.803 469.258 364.76 469.766 365.268 470.781C365.541 471.328 365.678 472.064 365.678 472.988V479.951H363.852V472.686C363.852 471.989 363.676 471.51 363.324 471.25C362.979 470.99 362.556 470.859 362.055 470.859C361.365 470.859 360.769 471.09 360.268 471.553C359.773 472.015 359.525 472.786 359.525 473.867V479.951H357.738V473.125C357.738 472.415 357.654 471.898 357.484 471.572C357.217 471.084 356.719 470.84 355.99 470.84C355.326 470.84 354.721 471.097 354.174 471.611C353.633 472.126 353.363 473.057 353.363 474.404V479.951H351.605V469.492ZM368.129 465.557H369.838V470.762C370.222 470.26 370.681 469.88 371.215 469.619C371.749 469.352 372.328 469.219 372.953 469.219C374.255 469.219 375.31 469.668 376.117 470.566C376.931 471.458 377.338 472.777 377.338 474.521C377.338 476.175 376.938 477.549 376.137 478.643C375.336 479.736 374.226 480.283 372.807 480.283C372.012 480.283 371.342 480.091 370.795 479.707C370.469 479.479 370.121 479.115 369.75 478.613V479.951H368.129V465.557ZM372.699 478.73C373.65 478.73 374.359 478.353 374.828 477.598C375.303 476.842 375.541 475.846 375.541 474.609C375.541 473.509 375.303 472.598 374.828 471.875C374.359 471.152 373.666 470.791 372.748 470.791C371.947 470.791 371.244 471.087 370.639 471.68C370.04 472.272 369.74 473.249 369.74 474.609C369.74 475.592 369.864 476.39 370.111 477.002C370.574 478.154 371.436 478.73 372.699 478.73ZM383.754 469.258C384.496 469.258 385.215 469.434 385.912 469.785C386.609 470.13 387.139 470.579 387.504 471.133C387.855 471.66 388.09 472.275 388.207 472.979C388.311 473.46 388.363 474.229 388.363 475.283H380.697C380.73 476.344 380.98 477.197 381.449 477.842C381.918 478.48 382.644 478.799 383.627 478.799C384.545 478.799 385.277 478.496 385.824 477.891C386.137 477.539 386.358 477.132 386.488 476.67H388.217C388.171 477.054 388.018 477.484 387.758 477.959C387.504 478.428 387.217 478.812 386.898 479.111C386.365 479.632 385.704 479.984 384.916 480.166C384.493 480.27 384.014 480.322 383.48 480.322C382.178 480.322 381.075 479.85 380.17 478.906C379.265 477.956 378.812 476.628 378.812 474.922C378.812 473.242 379.268 471.878 380.18 470.83C381.091 469.782 382.283 469.258 383.754 469.258ZM386.557 473.887C386.485 473.125 386.319 472.516 386.059 472.061C385.577 471.214 384.773 470.791 383.646 470.791C382.839 470.791 382.162 471.084 381.615 471.67C381.068 472.249 380.779 472.988 380.746 473.887H386.557ZM390.58 469.492H392.25V471.299C392.387 470.947 392.722 470.521 393.256 470.02C393.79 469.512 394.405 469.258 395.102 469.258C395.134 469.258 395.189 469.261 395.268 469.268C395.346 469.274 395.479 469.287 395.668 469.307V471.162C395.564 471.143 395.466 471.13 395.375 471.123C395.29 471.117 395.196 471.113 395.092 471.113C394.206 471.113 393.526 471.4 393.051 471.973C392.576 472.539 392.338 473.193 392.338 473.936V479.951H390.58V469.492ZM402.094 479.951C402.159 478.747 402.406 477.699 402.836 476.807C403.272 475.915 404.118 475.104 405.375 474.375L407.25 473.291C408.09 472.803 408.679 472.386 409.018 472.041C409.551 471.501 409.818 470.882 409.818 470.186C409.818 469.372 409.574 468.727 409.086 468.252C408.598 467.77 407.947 467.529 407.133 467.529C405.928 467.529 405.095 467.985 404.633 468.896C404.385 469.385 404.249 470.062 404.223 470.928H402.436C402.455 469.71 402.68 468.717 403.109 467.949C403.871 466.595 405.215 465.918 407.143 465.918C408.744 465.918 409.913 466.351 410.648 467.217C411.391 468.083 411.762 469.046 411.762 470.107C411.762 471.227 411.368 472.184 410.58 472.979C410.124 473.441 409.307 474.001 408.129 474.658L406.791 475.4C406.153 475.752 405.652 476.087 405.287 476.406C404.636 476.973 404.226 477.601 404.057 478.291H411.693V479.951H402.094ZM418.012 465.967C419.822 465.967 421.13 466.712 421.938 468.203C422.562 469.355 422.875 470.934 422.875 472.939C422.875 474.84 422.592 476.413 422.025 477.656C421.205 479.44 419.864 480.332 418.002 480.332C416.322 480.332 415.072 479.603 414.252 478.145C413.568 476.927 413.227 475.293 413.227 473.242C413.227 471.654 413.432 470.29 413.842 469.15C414.61 467.028 416 465.967 418.012 465.967ZM417.992 478.73C418.904 478.73 419.63 478.327 420.17 477.52C420.71 476.712 420.98 475.208 420.98 473.008C420.98 471.419 420.785 470.114 420.395 469.092C420.004 468.063 419.245 467.549 418.119 467.549C417.084 467.549 416.326 468.037 415.844 469.014C415.368 469.984 415.131 471.416 415.131 473.311C415.131 474.736 415.284 475.882 415.59 476.748C416.059 478.07 416.859 478.73 417.992 478.73ZM424.359 479.951C424.424 478.747 424.672 477.699 425.102 476.807C425.538 475.915 426.384 475.104 427.641 474.375L429.516 473.291C430.355 472.803 430.945 472.386 431.283 472.041C431.817 471.501 432.084 470.882 432.084 470.186C432.084 469.372 431.84 468.727 431.352 468.252C430.863 467.77 430.212 467.529 429.398 467.529C428.194 467.529 427.361 467.985 426.898 468.896C426.651 469.385 426.514 470.062 426.488 470.928H424.701C424.721 469.71 424.945 468.717 425.375 467.949C426.137 466.595 427.481 465.918 429.408 465.918C431.01 465.918 432.178 466.351 432.914 467.217C433.656 468.083 434.027 469.046 434.027 470.107C434.027 471.227 433.633 472.184 432.846 472.979C432.39 473.441 431.573 474.001 430.395 474.658L429.057 475.4C428.419 475.752 427.917 476.087 427.553 476.406C426.902 476.973 426.492 477.601 426.322 478.291H433.959V479.951H424.359ZM435.492 479.951C435.557 478.747 435.805 477.699 436.234 476.807C436.671 475.915 437.517 475.104 438.773 474.375L440.648 473.291C441.488 472.803 442.077 472.386 442.416 472.041C442.95 471.501 443.217 470.882 443.217 470.186C443.217 469.372 442.973 468.727 442.484 468.252C441.996 467.77 441.345 467.529 440.531 467.529C439.327 467.529 438.493 467.985 438.031 468.896C437.784 469.385 437.647 470.062 437.621 470.928H435.834C435.854 469.71 436.078 468.717 436.508 467.949C437.27 466.595 438.614 465.918 440.541 465.918C442.143 465.918 443.311 466.351 444.047 467.217C444.789 468.083 445.16 469.046 445.16 470.107C445.16 471.227 444.766 472.184 443.979 472.979C443.523 473.441 442.706 474.001 441.527 474.658L440.189 475.4C439.551 475.752 439.05 476.087 438.686 476.406C438.035 476.973 437.624 477.601 437.455 478.291H445.092V479.951H435.492Z" fill="#EFEEEA"/>
<path d="M343.275 645.649C343.275 646.86 343.096 647.801 342.738 648.472C342.074 649.696 340.811 650.308 338.949 650.308C337.875 650.308 336.957 650.018 336.195 649.438C335.434 648.853 335.053 647.814 335.053 646.323V645.298H336.879V646.323C336.879 647.104 337.051 647.694 337.396 648.091C337.748 648.481 338.292 648.677 339.027 648.677C340.062 648.677 340.74 648.322 341.059 647.612C341.254 647.176 341.352 646.353 341.352 645.142V635.581H343.275V645.649ZM347.348 647.144C347.348 647.651 347.533 648.052 347.904 648.345C348.275 648.638 348.715 648.784 349.223 648.784C349.841 648.784 350.44 648.641 351.02 648.354C351.996 647.879 352.484 647.101 352.484 646.021V644.604C352.27 644.741 351.993 644.855 351.654 644.946C351.316 645.037 350.984 645.103 350.658 645.142L349.594 645.278C348.956 645.363 348.477 645.496 348.158 645.679C347.618 645.985 347.348 646.473 347.348 647.144ZM351.605 643.589C352.009 643.537 352.279 643.368 352.416 643.081C352.494 642.925 352.533 642.7 352.533 642.407C352.533 641.808 352.318 641.375 351.889 641.108C351.465 640.835 350.857 640.698 350.062 640.698C349.145 640.698 348.493 640.946 348.109 641.44C347.895 641.714 347.755 642.121 347.689 642.661H346.049C346.081 641.372 346.498 640.477 347.299 639.976C348.106 639.468 349.04 639.214 350.102 639.214C351.332 639.214 352.331 639.448 353.1 639.917C353.861 640.386 354.242 641.115 354.242 642.104V648.13C354.242 648.312 354.278 648.459 354.35 648.569C354.428 648.68 354.587 648.735 354.828 648.735C354.906 648.735 354.994 648.732 355.092 648.726C355.189 648.713 355.294 648.696 355.404 648.677V649.976C355.131 650.054 354.923 650.103 354.779 650.122C354.636 650.142 354.441 650.151 354.193 650.151C353.588 650.151 353.148 649.937 352.875 649.507C352.732 649.279 352.631 648.957 352.572 648.54C352.214 649.009 351.7 649.416 351.029 649.761C350.359 650.106 349.62 650.278 348.812 650.278C347.842 650.278 347.048 649.985 346.43 649.399C345.818 648.807 345.512 648.068 345.512 647.183C345.512 646.213 345.814 645.461 346.42 644.927C347.025 644.393 347.82 644.064 348.803 643.94L351.605 643.589ZM357.133 639.468H358.803V640.952C359.298 640.34 359.822 639.901 360.375 639.634C360.928 639.367 361.544 639.233 362.221 639.233C363.705 639.233 364.708 639.751 365.229 640.786C365.515 641.353 365.658 642.163 365.658 643.218V649.927H363.871V643.335C363.871 642.697 363.777 642.183 363.588 641.792C363.275 641.141 362.709 640.815 361.889 640.815C361.472 640.815 361.13 640.858 360.863 640.942C360.382 641.086 359.958 641.372 359.594 641.802C359.301 642.147 359.109 642.505 359.018 642.876C358.933 643.241 358.891 643.765 358.891 644.448V649.927H357.133V639.468ZM370.023 639.468V646.411C370.023 646.945 370.108 647.381 370.277 647.72C370.59 648.345 371.173 648.657 372.025 648.657C373.249 648.657 374.083 648.11 374.525 647.017C374.766 646.431 374.887 645.627 374.887 644.604V639.468H376.645V649.927H374.984L375.004 648.384C374.776 648.781 374.493 649.116 374.154 649.39C373.484 649.937 372.67 650.21 371.713 650.21C370.222 650.21 369.206 649.712 368.666 648.716C368.373 648.182 368.227 647.469 368.227 646.577V639.468H370.023ZM380.746 647.144C380.746 647.651 380.932 648.052 381.303 648.345C381.674 648.638 382.113 648.784 382.621 648.784C383.24 648.784 383.839 648.641 384.418 648.354C385.395 647.879 385.883 647.101 385.883 646.021V644.604C385.668 644.741 385.391 644.855 385.053 644.946C384.714 645.037 384.382 645.103 384.057 645.142L382.992 645.278C382.354 645.363 381.876 645.496 381.557 645.679C381.016 645.985 380.746 646.473 380.746 647.144ZM385.004 643.589C385.408 643.537 385.678 643.368 385.814 643.081C385.893 642.925 385.932 642.7 385.932 642.407C385.932 641.808 385.717 641.375 385.287 641.108C384.864 640.835 384.255 640.698 383.461 640.698C382.543 640.698 381.892 640.946 381.508 641.44C381.293 641.714 381.153 642.121 381.088 642.661H379.447C379.48 641.372 379.896 640.477 380.697 639.976C381.505 639.468 382.439 639.214 383.5 639.214C384.73 639.214 385.73 639.448 386.498 639.917C387.26 640.386 387.641 641.115 387.641 642.104V648.13C387.641 648.312 387.676 648.459 387.748 648.569C387.826 648.68 387.986 648.735 388.227 648.735C388.305 648.735 388.393 648.732 388.49 648.726C388.588 648.713 388.692 648.696 388.803 648.677V649.976C388.529 650.054 388.321 650.103 388.178 650.122C388.035 650.142 387.839 650.151 387.592 650.151C386.986 650.151 386.547 649.937 386.273 649.507C386.13 649.279 386.029 648.957 385.971 648.54C385.613 649.009 385.098 649.416 384.428 649.761C383.757 650.106 383.018 650.278 382.211 650.278C381.241 650.278 380.447 649.985 379.828 649.399C379.216 648.807 378.91 648.068 378.91 647.183C378.91 646.213 379.213 645.461 379.818 644.927C380.424 644.393 381.218 644.064 382.201 643.94L385.004 643.589ZM390.58 639.468H392.25V641.274C392.387 640.923 392.722 640.496 393.256 639.995C393.79 639.487 394.405 639.233 395.102 639.233C395.134 639.233 395.189 639.237 395.268 639.243C395.346 639.25 395.479 639.263 395.668 639.282V641.138C395.564 641.118 395.466 641.105 395.375 641.099C395.29 641.092 395.196 641.089 395.092 641.089C394.206 641.089 393.526 641.375 393.051 641.948C392.576 642.515 392.338 643.169 392.338 643.911V649.927H390.58V639.468ZM402.094 649.927C402.159 648.722 402.406 647.674 402.836 646.782C403.272 645.89 404.118 645.08 405.375 644.351L407.25 643.267C408.09 642.778 408.679 642.362 409.018 642.017C409.551 641.476 409.818 640.858 409.818 640.161C409.818 639.347 409.574 638.703 409.086 638.228C408.598 637.746 407.947 637.505 407.133 637.505C405.928 637.505 405.095 637.961 404.633 638.872C404.385 639.36 404.249 640.037 404.223 640.903H402.436C402.455 639.686 402.68 638.693 403.109 637.925C403.871 636.571 405.215 635.894 407.143 635.894C408.744 635.894 409.913 636.326 410.648 637.192C411.391 638.058 411.762 639.022 411.762 640.083C411.762 641.203 411.368 642.16 410.58 642.954C410.124 643.416 409.307 643.976 408.129 644.634L406.791 645.376C406.153 645.728 405.652 646.063 405.287 646.382C404.636 646.948 404.226 647.576 404.057 648.267H411.693V649.927H402.094ZM418.012 635.942C419.822 635.942 421.13 636.688 421.938 638.179C422.562 639.331 422.875 640.91 422.875 642.915C422.875 644.816 422.592 646.388 422.025 647.632C421.205 649.416 419.864 650.308 418.002 650.308C416.322 650.308 415.072 649.578 414.252 648.12C413.568 646.903 413.227 645.269 413.227 643.218C413.227 641.629 413.432 640.265 413.842 639.126C414.61 637.004 416 635.942 418.012 635.942ZM417.992 648.706C418.904 648.706 419.63 648.302 420.17 647.495C420.71 646.688 420.98 645.184 420.98 642.983C420.98 641.395 420.785 640.09 420.395 639.067C420.004 638.039 419.245 637.524 418.119 637.524C417.084 637.524 416.326 638.013 415.844 638.989C415.368 639.959 415.131 641.392 415.131 643.286C415.131 644.712 415.284 645.858 415.59 646.724C416.059 648.045 416.859 648.706 417.992 648.706ZM424.359 649.927C424.424 648.722 424.672 647.674 425.102 646.782C425.538 645.89 426.384 645.08 427.641 644.351L429.516 643.267C430.355 642.778 430.945 642.362 431.283 642.017C431.817 641.476 432.084 640.858 432.084 640.161C432.084 639.347 431.84 638.703 431.352 638.228C430.863 637.746 430.212 637.505 429.398 637.505C428.194 637.505 427.361 637.961 426.898 638.872C426.651 639.36 426.514 640.037 426.488 640.903H424.701C424.721 639.686 424.945 638.693 425.375 637.925C426.137 636.571 427.481 635.894 429.408 635.894C431.01 635.894 432.178 636.326 432.914 637.192C433.656 638.058 434.027 639.022 434.027 640.083C434.027 641.203 433.633 642.16 432.846 642.954C432.39 643.416 431.573 643.976 430.395 644.634L429.057 645.376C428.419 645.728 427.917 646.063 427.553 646.382C426.902 646.948 426.492 647.576 426.322 648.267H433.959V649.927H424.359ZM440.062 650.308C438.409 650.308 437.208 649.855 436.459 648.95C435.717 648.039 435.346 646.932 435.346 645.63H437.182C437.26 646.535 437.429 647.192 437.689 647.603C438.145 648.338 438.969 648.706 440.16 648.706C441.085 648.706 441.827 648.459 442.387 647.964C442.947 647.469 443.227 646.831 443.227 646.05C443.227 645.086 442.93 644.412 442.338 644.028C441.752 643.644 440.935 643.452 439.887 643.452C439.77 643.452 439.649 643.455 439.525 643.462C439.408 643.462 439.288 643.465 439.164 643.472V641.919C439.346 641.938 439.499 641.951 439.623 641.958C439.747 641.965 439.88 641.968 440.023 641.968C440.681 641.968 441.221 641.864 441.645 641.655C442.387 641.291 442.758 640.64 442.758 639.702C442.758 639.006 442.51 638.468 442.016 638.091C441.521 637.713 440.945 637.524 440.287 637.524C439.115 637.524 438.305 637.915 437.855 638.696C437.608 639.126 437.468 639.738 437.436 640.532H435.697C435.697 639.491 435.906 638.605 436.322 637.876C437.038 636.574 438.298 635.923 440.102 635.923C441.527 635.923 442.631 636.242 443.412 636.88C444.193 637.511 444.584 638.429 444.584 639.634C444.584 640.493 444.353 641.19 443.891 641.724C443.604 642.056 443.233 642.316 442.777 642.505C443.513 642.707 444.086 643.097 444.496 643.677C444.913 644.25 445.121 644.953 445.121 645.786C445.121 647.121 444.682 648.208 443.803 649.048C442.924 649.888 441.677 650.308 440.062 650.308Z" fill="#EFEEEA"/>
<path d="M989.007 275.103H991.502V284.313L1000.71 275.103H1004.25L996.391 282.718L1004.47 294H1001.14L994.526 284.519L991.502 287.414V294H989.007V275.103ZM1011.74 292.508C1013.27 292.508 1014.32 291.929 1014.89 290.771C1015.46 289.605 1015.75 288.31 1015.75 286.886C1015.75 285.6 1015.55 284.553 1015.13 283.747C1014.48 282.478 1013.36 281.843 1011.76 281.843C1010.35 281.843 1009.32 282.384 1008.68 283.464C1008.03 284.545 1007.71 285.848 1007.71 287.375C1007.71 288.841 1008.03 290.064 1008.68 291.041C1009.32 292.019 1010.34 292.508 1011.74 292.508ZM1011.83 279.824C1013.6 279.824 1015.1 280.415 1016.33 281.599C1017.56 282.782 1018.17 284.523 1018.17 286.822C1018.17 289.043 1017.63 290.878 1016.55 292.328C1015.47 293.777 1013.79 294.502 1011.52 294.502C1009.62 294.502 1008.12 293.863 1007 292.585C1005.89 291.299 1005.33 289.575 1005.33 287.414C1005.33 285.098 1005.92 283.254 1007.09 281.882C1008.27 280.51 1009.85 279.824 1011.83 279.824ZM1020.94 280.222H1023.23V282.178C1023.77 281.5 1024.27 281.007 1024.72 280.698C1025.48 280.175 1026.35 279.914 1027.32 279.914C1028.41 279.914 1029.3 280.184 1029.97 280.724C1030.34 281.033 1030.69 281.487 1031 282.088C1031.51 281.35 1032.11 280.806 1032.81 280.454C1033.5 280.094 1034.28 279.914 1035.15 279.914C1037 279.914 1038.26 280.583 1038.93 281.921C1039.29 282.641 1039.47 283.61 1039.47 284.828V294H1037.07V284.429C1037.07 283.511 1036.84 282.881 1036.37 282.538C1035.92 282.195 1035.36 282.023 1034.7 282.023C1033.79 282.023 1033.01 282.328 1032.35 282.937C1031.69 283.546 1031.37 284.562 1031.37 285.986V294H1029.01V285.008C1029.01 284.073 1028.9 283.391 1028.68 282.963C1028.33 282.319 1027.67 281.998 1026.71 281.998C1025.84 281.998 1025.04 282.336 1024.32 283.014C1023.61 283.692 1023.25 284.918 1023.25 286.693V294H1020.94V280.222ZM1042.88 280.222H1045.17V282.178C1045.72 281.5 1046.22 281.007 1046.66 280.698C1047.43 280.175 1048.29 279.914 1049.26 279.914C1050.36 279.914 1051.24 280.184 1051.91 280.724C1052.29 281.033 1052.63 281.487 1052.94 282.088C1053.46 281.35 1054.06 280.806 1054.76 280.454C1055.45 280.094 1056.23 279.914 1057.1 279.914C1058.95 279.914 1060.21 280.583 1060.88 281.921C1061.24 282.641 1061.42 283.61 1061.42 284.828V294H1059.01V284.429C1059.01 283.511 1058.78 282.881 1058.32 282.538C1057.86 282.195 1057.31 282.023 1056.65 282.023C1055.74 282.023 1054.95 282.328 1054.29 282.937C1053.64 283.546 1053.31 284.562 1053.31 285.986V294H1050.96V285.008C1050.96 284.073 1050.85 283.391 1050.63 282.963C1050.27 282.319 1049.62 281.998 1048.66 281.998C1047.78 281.998 1046.99 282.336 1046.27 283.014C1045.55 283.692 1045.2 284.918 1045.2 286.693V294H1042.88V280.222ZM1070.57 279.914C1071.54 279.914 1072.49 280.145 1073.41 280.608C1074.33 281.063 1075.03 281.655 1075.51 282.384C1075.97 283.078 1076.28 283.889 1076.43 284.815C1076.57 285.45 1076.64 286.462 1076.64 287.851H1066.54C1066.58 289.249 1066.91 290.372 1067.53 291.221C1068.15 292.062 1069.1 292.482 1070.4 292.482C1071.61 292.482 1072.57 292.083 1073.29 291.286C1073.7 290.823 1074 290.287 1074.17 289.678H1076.44C1076.38 290.184 1076.18 290.75 1075.84 291.376C1075.51 291.993 1075.13 292.499 1074.71 292.894C1074 293.58 1073.13 294.043 1072.1 294.283C1071.54 294.42 1070.91 294.489 1070.21 294.489C1068.49 294.489 1067.04 293.867 1065.84 292.624C1064.65 291.371 1064.06 289.622 1064.06 287.375C1064.06 285.162 1064.66 283.366 1065.86 281.985C1067.06 280.604 1068.63 279.914 1070.57 279.914ZM1074.26 286.011C1074.16 285.008 1073.94 284.206 1073.6 283.606C1072.97 282.491 1071.91 281.933 1070.42 281.933C1069.36 281.933 1068.47 282.319 1067.75 283.091C1067.03 283.854 1066.65 284.828 1066.6 286.011H1074.26ZM1079.56 280.222H1081.76V282.602C1081.94 282.139 1082.38 281.577 1083.08 280.917C1083.79 280.248 1084.6 279.914 1085.51 279.914C1085.56 279.914 1085.63 279.918 1085.73 279.927C1085.84 279.935 1086.01 279.952 1086.26 279.978V282.422C1086.12 282.397 1085.99 282.379 1085.87 282.371C1085.76 282.362 1085.64 282.358 1085.5 282.358C1084.33 282.358 1083.44 282.735 1082.81 283.49C1082.19 284.236 1081.87 285.098 1081.87 286.076V294H1079.56V280.222ZM1101.41 292.443C1102.49 292.443 1103.39 291.993 1104.1 291.093C1104.82 290.184 1105.18 288.829 1105.18 287.028C1105.18 285.93 1105.02 284.986 1104.71 284.197C1104.11 282.68 1103.01 281.921 1101.41 281.921C1099.81 281.921 1098.71 282.722 1098.12 284.326C1097.8 285.184 1097.64 286.273 1097.64 287.594C1097.64 288.657 1097.8 289.562 1098.12 290.308C1098.72 291.732 1099.82 292.443 1101.41 292.443ZM1095.42 280.287H1097.67V282.113C1098.13 281.487 1098.64 281.003 1099.19 280.66C1099.97 280.145 1100.89 279.888 1101.94 279.888C1103.5 279.888 1104.83 280.488 1105.92 281.689C1107.01 282.881 1107.55 284.588 1107.55 286.809C1107.55 289.811 1106.77 291.955 1105.2 293.241C1104.2 294.056 1103.04 294.463 1101.72 294.463C1100.69 294.463 1099.81 294.236 1099.11 293.781C1098.7 293.524 1098.24 293.082 1097.73 292.456V299.493H1095.42V280.287ZM1112.04 290.334C1112.04 291.003 1112.28 291.53 1112.77 291.916C1113.26 292.302 1113.84 292.495 1114.51 292.495C1115.32 292.495 1116.11 292.306 1116.88 291.929C1118.16 291.303 1118.81 290.278 1118.81 288.854V286.989C1118.52 287.169 1118.16 287.319 1117.71 287.439C1117.27 287.559 1116.83 287.645 1116.4 287.697L1115 287.877C1114.16 287.988 1113.53 288.164 1113.11 288.404C1112.4 288.807 1112.04 289.45 1112.04 290.334ZM1117.65 285.651C1118.18 285.583 1118.54 285.36 1118.72 284.982C1118.82 284.776 1118.87 284.481 1118.87 284.095C1118.87 283.306 1118.59 282.735 1118.02 282.384C1117.46 282.023 1116.66 281.843 1115.62 281.843C1114.41 281.843 1113.55 282.169 1113.04 282.821C1112.76 283.181 1112.58 283.717 1112.49 284.429H1110.33C1110.37 282.731 1110.92 281.552 1111.98 280.891C1113.04 280.222 1114.27 279.888 1115.67 279.888C1117.29 279.888 1118.6 280.197 1119.62 280.814C1120.62 281.432 1121.12 282.392 1121.12 283.696V291.633C1121.12 291.873 1121.17 292.066 1121.26 292.212C1121.37 292.358 1121.58 292.431 1121.89 292.431C1122 292.431 1122.11 292.426 1122.24 292.418C1122.37 292.401 1122.51 292.379 1122.65 292.353V294.064C1122.29 294.167 1122.02 294.232 1121.83 294.257C1121.64 294.283 1121.38 294.296 1121.06 294.296C1120.26 294.296 1119.68 294.013 1119.32 293.447C1119.13 293.147 1119 292.722 1118.92 292.173C1118.45 292.791 1117.77 293.327 1116.89 293.781C1116.01 294.236 1115.03 294.463 1113.97 294.463C1112.69 294.463 1111.65 294.077 1110.83 293.305C1110.02 292.525 1109.62 291.552 1109.62 290.385C1109.62 289.107 1110.02 288.117 1110.82 287.414C1111.62 286.71 1112.66 286.277 1113.96 286.114L1117.65 285.651ZM1116.04 277.392C1116.49 277.392 1116.87 277.234 1117.19 276.916C1117.5 276.599 1117.66 276.217 1117.66 275.771C1117.66 275.325 1117.5 274.944 1117.19 274.627C1116.87 274.309 1116.49 274.151 1116.04 274.151C1115.6 274.151 1115.23 274.309 1114.91 274.627C1114.59 274.944 1114.43 275.325 1114.43 275.771C1114.43 276.217 1114.59 276.599 1114.91 276.916C1115.23 277.234 1115.6 277.392 1116.04 277.392ZM1116.04 273.083C1116.78 273.083 1117.41 273.349 1117.93 273.88C1118.46 274.404 1118.73 275.034 1118.73 275.771C1118.73 276.509 1118.46 277.144 1117.93 277.675C1117.41 278.198 1116.78 278.46 1116.04 278.46C1115.3 278.46 1114.67 278.198 1114.15 277.675C1113.63 277.144 1113.36 276.509 1113.36 275.771C1113.36 275.034 1113.63 274.404 1114.15 273.88C1114.67 273.349 1115.3 273.083 1116.04 273.083ZM1134.58 277.778H1132.26V275.103H1134.58V277.778ZM1130.08 297.486C1131.11 297.452 1131.73 297.358 1131.94 297.203C1132.16 297.057 1132.26 296.59 1132.26 295.801V280.287H1134.58V296.045C1134.58 297.049 1134.41 297.799 1134.09 298.297C1133.55 299.137 1132.52 299.557 1131.01 299.557C1130.9 299.557 1130.78 299.553 1130.65 299.544C1130.53 299.536 1130.34 299.519 1130.08 299.493V297.486ZM1143.6 292.508C1145.13 292.508 1146.18 291.929 1146.75 290.771C1147.32 289.605 1147.61 288.31 1147.61 286.886C1147.61 285.6 1147.4 284.553 1146.99 283.747C1146.34 282.478 1145.22 281.843 1143.62 281.843C1142.21 281.843 1141.18 282.384 1140.53 283.464C1139.89 284.545 1139.57 285.848 1139.57 287.375C1139.57 288.841 1139.89 290.064 1140.53 291.041C1141.18 292.019 1142.2 292.508 1143.6 292.508ZM1143.69 279.824C1145.46 279.824 1146.96 280.415 1148.19 281.599C1149.41 282.782 1150.03 284.523 1150.03 286.822C1150.03 289.043 1149.49 290.878 1148.41 292.328C1147.33 293.777 1145.65 294.502 1143.38 294.502C1141.48 294.502 1139.98 293.863 1138.86 292.585C1137.75 291.299 1137.19 289.575 1137.19 287.414C1137.19 285.098 1137.78 283.254 1138.95 281.882C1140.13 280.51 1141.7 279.824 1143.69 279.824ZM1152.61 275.038H1154.86V281.895C1155.37 281.234 1155.98 280.733 1156.68 280.39C1157.38 280.038 1158.15 279.862 1158.97 279.862C1160.68 279.862 1162.07 280.454 1163.14 281.638C1164.21 282.812 1164.74 284.549 1164.74 286.848C1164.74 289.026 1164.22 290.835 1163.16 292.276C1162.11 293.717 1160.65 294.437 1158.78 294.437C1157.73 294.437 1156.85 294.184 1156.13 293.678C1155.7 293.378 1155.24 292.898 1154.75 292.238V294H1152.61V275.038ZM1158.63 292.392C1159.89 292.392 1160.82 291.895 1161.44 290.9C1162.06 289.905 1162.38 288.593 1162.38 286.963C1162.38 285.514 1162.06 284.313 1161.44 283.361C1160.82 282.409 1159.91 281.933 1158.7 281.933C1157.64 281.933 1156.72 282.324 1155.92 283.104C1155.13 283.884 1154.74 285.171 1154.74 286.963C1154.74 288.258 1154.9 289.309 1155.22 290.115C1155.83 291.633 1156.97 292.392 1158.63 292.392ZM1172.77 279.824C1174.32 279.824 1175.58 280.201 1176.55 280.956C1177.53 281.71 1178.12 283.01 1178.32 284.854H1176.06C1175.93 284.005 1175.61 283.301 1175.13 282.744C1174.64 282.178 1173.85 281.895 1172.77 281.895C1171.3 281.895 1170.24 282.615 1169.61 284.056C1169.2 284.991 1168.99 286.144 1168.99 287.516C1168.99 288.897 1169.28 290.059 1169.86 291.003C1170.45 291.946 1171.37 292.418 1172.62 292.418C1173.58 292.418 1174.34 292.126 1174.89 291.543C1175.46 290.951 1175.85 290.145 1176.06 289.124H1178.32C1178.06 290.951 1177.42 292.289 1176.39 293.138C1175.36 293.979 1174.04 294.399 1172.44 294.399C1170.64 294.399 1169.2 293.743 1168.13 292.431C1167.06 291.11 1166.52 289.463 1166.52 287.491C1166.52 285.072 1167.11 283.19 1168.28 281.843C1169.46 280.497 1170.95 279.824 1172.77 279.824ZM1186.37 279.914C1187.35 279.914 1188.29 280.145 1189.21 280.608C1190.13 281.063 1190.83 281.655 1191.31 282.384C1191.77 283.078 1192.08 283.889 1192.24 284.815C1192.37 285.45 1192.44 286.462 1192.44 287.851H1182.34C1182.39 289.249 1182.72 290.372 1183.33 291.221C1183.95 292.062 1184.91 292.482 1186.2 292.482C1187.41 292.482 1188.38 292.083 1189.1 291.286C1189.51 290.823 1189.8 290.287 1189.97 289.678H1192.25C1192.19 290.184 1191.99 290.75 1191.64 291.376C1191.31 291.993 1190.93 292.499 1190.51 292.894C1189.81 293.58 1188.94 294.043 1187.9 294.283C1187.34 294.42 1186.71 294.489 1186.01 294.489C1184.29 294.489 1182.84 293.867 1181.65 292.624C1180.46 291.371 1179.86 289.622 1179.86 287.375C1179.86 285.162 1180.46 283.366 1181.66 281.985C1182.86 280.604 1184.43 279.914 1186.37 279.914ZM1190.06 286.011C1189.97 285.008 1189.75 284.206 1189.41 283.606C1188.77 282.491 1187.71 281.933 1186.23 281.933C1185.16 281.933 1184.27 282.319 1183.55 283.091C1182.83 283.854 1182.45 284.828 1182.41 286.011H1190.06ZM1195.3 280.222H1197.5V282.178C1198.15 281.372 1198.84 280.793 1199.57 280.441C1200.3 280.09 1201.11 279.914 1202 279.914C1203.95 279.914 1205.28 280.596 1205.96 281.959C1206.34 282.705 1206.53 283.773 1206.53 285.162V294H1204.17V285.317C1204.17 284.476 1204.05 283.799 1203.8 283.284C1203.39 282.427 1202.64 281.998 1201.56 281.998C1201.01 281.998 1200.56 282.053 1200.21 282.165C1199.58 282.354 1199.02 282.731 1198.54 283.297C1198.15 283.752 1197.9 284.223 1197.78 284.712C1197.67 285.192 1197.61 285.883 1197.61 286.783V294H1195.3V280.222ZM1210.43 276.376H1212.77V280.222H1214.97V282.113H1212.77V291.106C1212.77 291.586 1212.93 291.907 1213.26 292.07C1213.44 292.165 1213.74 292.212 1214.16 292.212C1214.27 292.212 1214.39 292.212 1214.52 292.212C1214.64 292.203 1214.79 292.19 1214.97 292.173V294C1214.7 294.077 1214.42 294.133 1214.13 294.167C1213.85 294.202 1213.54 294.219 1213.2 294.219C1212.12 294.219 1211.39 293.944 1211 293.395C1210.62 292.838 1210.43 292.118 1210.43 291.234V282.113H1208.56V280.222H1210.43V276.376ZM1217.36 280.222H1219.56V282.602C1219.74 282.139 1220.18 281.577 1220.88 280.917C1221.59 280.248 1222.4 279.914 1223.32 279.914C1223.36 279.914 1223.43 279.918 1223.53 279.927C1223.64 279.935 1223.81 279.952 1224.06 279.978V282.422C1223.92 282.397 1223.8 282.379 1223.68 282.371C1223.56 282.362 1223.44 282.358 1223.3 282.358C1222.14 282.358 1221.24 282.735 1220.61 283.49C1219.99 284.236 1219.67 285.098 1219.67 286.076V294H1217.36V280.222ZM1231.81 279.914C1232.78 279.914 1233.73 280.145 1234.65 280.608C1235.57 281.063 1236.27 281.655 1236.75 282.384C1237.21 283.078 1237.52 283.889 1237.67 284.815C1237.81 285.45 1237.88 286.462 1237.88 287.851H1227.78C1227.82 289.249 1228.15 290.372 1228.77 291.221C1229.39 292.062 1230.34 292.482 1231.64 292.482C1232.85 292.482 1233.81 292.083 1234.53 291.286C1234.94 290.823 1235.24 290.287 1235.41 289.678H1237.68C1237.62 290.184 1237.42 290.75 1237.08 291.376C1236.75 291.993 1236.37 292.499 1235.95 292.894C1235.24 293.58 1234.37 294.043 1233.34 294.283C1232.78 294.42 1232.15 294.489 1231.45 294.489C1229.73 294.489 1228.28 293.867 1227.08 292.624C1225.89 291.371 1225.3 289.622 1225.3 287.375C1225.3 285.162 1225.9 283.366 1227.1 281.985C1228.3 280.604 1229.87 279.914 1231.81 279.914ZM1235.5 286.011C1235.4 285.008 1235.18 284.206 1234.84 283.606C1234.21 282.491 1233.15 281.933 1231.66 281.933C1230.6 281.933 1229.71 282.319 1228.99 283.091C1228.27 283.854 1227.89 284.828 1227.84 286.011H1235.5ZM1241.2 276.376H1243.54V280.222H1245.74V282.113H1243.54V291.106C1243.54 291.586 1243.7 291.907 1244.03 292.07C1244.21 292.165 1244.51 292.212 1244.93 292.212C1245.04 292.212 1245.16 292.212 1245.29 292.212C1245.42 292.203 1245.57 292.19 1245.74 292.173V294C1245.47 294.077 1245.19 294.133 1244.9 294.167C1244.62 294.202 1244.31 294.219 1243.97 294.219C1242.89 294.219 1242.16 293.944 1241.78 293.395C1241.39 292.838 1241.2 292.118 1241.2 291.234V282.113H1239.33V280.222H1241.2V276.376Z" fill="#EFEEEA"/>
<path d="M809.706 453.256L806.838 444.907L803.789 453.256H809.706ZM805.5 442.103H808.394L815.251 461H812.446L810.53 455.34H803.056L801.01 461H798.386L805.5 442.103ZM817.271 447.222H819.47V449.178C820.122 448.372 820.812 447.793 821.541 447.441C822.27 447.09 823.081 446.914 823.973 446.914C825.928 446.914 827.249 447.596 827.935 448.959C828.312 449.705 828.501 450.773 828.501 452.162V461H826.147V452.317C826.147 451.476 826.022 450.799 825.774 450.284C825.362 449.427 824.616 448.998 823.535 448.998C822.987 448.998 822.536 449.053 822.185 449.165C821.55 449.354 820.993 449.731 820.512 450.297C820.126 450.752 819.873 451.223 819.753 451.712C819.642 452.192 819.586 452.883 819.586 453.783V461H817.271V447.222ZM833.312 456.678C833.381 457.449 833.574 458.041 833.891 458.453C834.474 459.199 835.486 459.572 836.927 459.572C837.785 459.572 838.539 459.388 839.191 459.019C839.843 458.642 840.169 458.063 840.169 457.282C840.169 456.69 839.907 456.24 839.384 455.932C839.05 455.743 838.389 455.524 837.403 455.275L835.563 454.812C834.388 454.521 833.522 454.195 832.965 453.835C831.97 453.209 831.473 452.342 831.473 451.236C831.473 449.933 831.94 448.878 832.875 448.071C833.818 447.265 835.083 446.862 836.67 446.862C838.745 446.862 840.242 447.471 841.159 448.689C841.734 449.461 842.013 450.293 841.996 451.185H839.809C839.766 450.661 839.581 450.186 839.255 449.757C838.724 449.148 837.802 448.843 836.49 448.843C835.615 448.843 834.95 449.011 834.496 449.345C834.05 449.68 833.827 450.121 833.827 450.67C833.827 451.27 834.123 451.751 834.714 452.111C835.057 452.325 835.563 452.514 836.232 452.677L837.763 453.05C839.427 453.453 840.542 453.843 841.108 454.221C842.008 454.812 842.459 455.743 842.459 457.012C842.459 458.238 841.991 459.298 841.056 460.19C840.13 461.081 838.715 461.527 836.811 461.527C834.762 461.527 833.308 461.064 832.45 460.138C831.601 459.203 831.147 458.05 831.087 456.678H833.312ZM863.26 453.011C863.234 451.665 862.861 450.649 862.141 449.963C861.429 449.268 860.559 448.921 859.529 448.921C858.5 448.921 857.613 449.268 856.867 449.963C856.12 450.649 855.709 451.665 855.632 453.011H863.26ZM853.47 453.989C853.256 454.135 853.046 454.251 852.84 454.336C852.634 454.414 852.27 454.495 851.747 454.581L849.778 454.877C848.826 455.031 848.145 455.224 847.733 455.456C847.055 455.85 846.717 456.468 846.717 457.308C846.717 458.028 846.987 458.582 847.527 458.967C848.076 459.353 848.719 459.546 849.457 459.546C849.877 459.546 850.366 459.439 850.923 459.225C851.481 459.01 851.995 458.68 852.467 458.234C852.887 457.84 853.162 457.437 853.29 457.025C853.367 456.768 853.427 456.335 853.47 455.726V453.989ZM852.223 452.651C852.66 452.591 852.986 452.437 853.2 452.188C853.415 451.939 853.522 451.588 853.522 451.133C853.522 450.396 853.282 449.834 852.801 449.448C852.321 449.062 851.554 448.869 850.499 448.869C849.641 448.869 848.955 449.006 848.44 449.281C847.583 449.787 847.154 450.516 847.154 451.468H844.929C845.014 449.529 845.773 448.204 847.206 447.493C848.029 447.09 849.161 446.888 850.602 446.888C851.742 446.888 852.72 447.098 853.535 447.518C854.221 447.887 854.744 448.367 855.104 448.959C855.61 448.299 856.24 447.788 856.995 447.428C857.758 447.068 858.616 446.888 859.568 446.888C860.571 446.888 861.498 447.068 862.347 447.428C863.196 447.78 863.903 448.372 864.469 449.204C864.975 449.89 865.31 450.683 865.473 451.583C865.644 452.475 865.73 453.565 865.73 454.851H855.606C855.649 456.275 856 457.402 856.661 458.234C857.321 459.066 858.247 459.482 859.439 459.482C860.554 459.482 861.403 459.238 861.986 458.749C862.57 458.26 862.973 457.57 863.196 456.678H865.537C865.46 457.364 865.172 458.071 864.675 458.8C864.178 459.521 863.655 460.061 863.106 460.421C862.505 460.816 861.892 461.086 861.266 461.232C860.649 461.386 860.01 461.463 859.349 461.463C858.089 461.463 856.974 461.137 856.005 460.485C855.113 459.825 854.542 459.173 854.294 458.53C853.59 459.568 852.789 460.318 851.888 460.781C850.996 461.236 850.027 461.463 848.981 461.463C847.506 461.463 846.365 461.094 845.559 460.357C844.753 459.619 844.35 458.667 844.35 457.501C844.35 455.974 844.869 454.834 845.906 454.079C846.567 453.599 847.45 453.286 848.556 453.14L852.223 452.651ZM869.01 443.376H871.352V447.222H873.551V449.113H871.352V458.106C871.352 458.586 871.515 458.907 871.84 459.07C872.021 459.165 872.321 459.212 872.741 459.212C872.852 459.212 872.972 459.212 873.101 459.212C873.23 459.203 873.38 459.19 873.551 459.173V461C873.285 461.077 873.007 461.133 872.715 461.167C872.432 461.202 872.123 461.219 871.789 461.219C870.708 461.219 869.975 460.944 869.589 460.395C869.203 459.838 869.01 459.118 869.01 458.234V449.113H867.145V447.222H869.01V443.376ZM876.343 443.376H878.684V447.222H880.884V449.113H878.684V458.106C878.684 458.586 878.847 458.907 879.173 459.07C879.353 459.165 879.653 459.212 880.073 459.212C880.185 459.212 880.305 459.212 880.434 459.212C880.562 459.203 880.712 459.19 880.884 459.173V461C880.618 461.077 880.339 461.133 880.048 461.167C879.765 461.202 879.456 461.219 879.122 461.219C878.041 461.219 877.308 460.944 876.922 460.395C876.536 459.838 876.343 459.118 876.343 458.234V449.113H874.478V447.222H876.343V443.376ZM888.95 446.914C889.927 446.914 890.875 447.145 891.793 447.608C892.71 448.063 893.409 448.655 893.89 449.384C894.353 450.078 894.661 450.889 894.816 451.815C894.953 452.45 895.022 453.462 895.022 454.851H884.923C884.966 456.249 885.296 457.372 885.914 458.221C886.531 459.062 887.488 459.482 888.783 459.482C889.992 459.482 890.957 459.083 891.677 458.286C892.089 457.823 892.38 457.287 892.552 456.678H894.829C894.769 457.184 894.567 457.75 894.224 458.376C893.89 458.993 893.512 459.499 893.092 459.894C892.389 460.58 891.518 461.043 890.481 461.283C889.923 461.42 889.293 461.489 888.59 461.489C886.874 461.489 885.421 460.867 884.229 459.624C883.037 458.371 882.441 456.622 882.441 454.375C882.441 452.162 883.041 450.366 884.241 448.985C885.442 447.604 887.012 446.914 888.95 446.914ZM892.642 453.011C892.547 452.008 892.329 451.206 891.986 450.606C891.351 449.491 890.292 448.933 888.808 448.933C887.745 448.933 886.853 449.319 886.133 450.091C885.412 450.854 885.031 451.828 884.988 453.011H892.642ZM899.254 456.678C899.323 457.449 899.516 458.041 899.833 458.453C900.416 459.199 901.428 459.572 902.869 459.572C903.726 459.572 904.481 459.388 905.133 459.019C905.785 458.642 906.111 458.063 906.111 457.282C906.111 456.69 905.849 456.24 905.326 455.932C904.991 455.743 904.331 455.524 903.345 455.275L901.505 454.812C900.33 454.521 899.464 454.195 898.907 453.835C897.912 453.209 897.414 452.342 897.414 451.236C897.414 449.933 897.882 448.878 898.817 448.071C899.76 447.265 901.025 446.862 902.612 446.862C904.687 446.862 906.184 447.471 907.101 448.689C907.676 449.461 907.954 450.293 907.937 451.185H905.75C905.708 450.661 905.523 450.186 905.197 449.757C904.666 449.148 903.744 448.843 902.431 448.843C901.557 448.843 900.892 449.011 900.438 449.345C899.992 449.68 899.769 450.121 899.769 450.67C899.769 451.27 900.064 451.751 900.656 452.111C900.999 452.325 901.505 452.514 902.174 452.677L903.705 453.05C905.369 453.453 906.484 453.843 907.05 454.221C907.95 454.812 908.4 455.743 908.4 457.012C908.4 458.238 907.933 459.298 906.998 460.19C906.072 461.081 904.657 461.527 902.753 461.527C900.703 461.527 899.25 461.064 898.392 460.138C897.543 459.203 897.089 458.05 897.028 456.678H899.254ZM918.383 442.038H920.699V449.088C921.247 448.393 921.741 447.904 922.178 447.621C922.924 447.132 923.855 446.888 924.97 446.888C926.968 446.888 928.323 447.587 929.035 448.985C929.421 449.748 929.613 450.807 929.613 452.162V461H927.234V452.317C927.234 451.305 927.105 450.563 926.848 450.091C926.427 449.336 925.638 448.959 924.481 448.959C923.52 448.959 922.65 449.289 921.869 449.95C921.089 450.61 920.699 451.858 920.699 453.693V461H918.383V442.038ZM938.515 459.508C940.051 459.508 941.101 458.929 941.667 457.771C942.242 456.605 942.529 455.31 942.529 453.886C942.529 452.6 942.323 451.553 941.912 450.747C941.26 449.478 940.136 448.843 938.541 448.843C937.126 448.843 936.097 449.384 935.454 450.464C934.811 451.545 934.489 452.848 934.489 454.375C934.489 455.841 934.811 457.064 935.454 458.041C936.097 459.019 937.118 459.508 938.515 459.508ZM938.606 446.824C940.381 446.824 941.882 447.415 943.108 448.599C944.334 449.782 944.948 451.523 944.948 453.822C944.948 456.043 944.407 457.878 943.327 459.328C942.246 460.777 940.569 461.502 938.297 461.502C936.401 461.502 934.896 460.863 933.781 459.585C932.667 458.299 932.109 456.575 932.109 454.414C932.109 452.098 932.697 450.254 933.872 448.882C935.046 447.51 936.624 446.824 938.606 446.824ZM949.09 456.678C949.158 457.449 949.351 458.041 949.669 458.453C950.252 459.199 951.264 459.572 952.705 459.572C953.562 459.572 954.317 459.388 954.969 459.019C955.621 458.642 955.946 458.063 955.946 457.282C955.946 456.69 955.685 456.24 955.162 455.932C954.827 455.743 954.167 455.524 953.181 455.275L951.341 454.812C950.166 454.521 949.3 454.195 948.743 453.835C947.748 453.209 947.25 452.342 947.25 451.236C947.25 449.933 947.718 448.878 948.652 448.071C949.596 447.265 950.861 446.862 952.447 446.862C954.523 446.862 956.019 447.471 956.937 448.689C957.512 449.461 957.79 450.293 957.773 451.185H955.586C955.543 450.661 955.359 450.186 955.033 449.757C954.501 449.148 953.579 448.843 952.267 448.843C951.393 448.843 950.728 449.011 950.273 449.345C949.827 449.68 949.604 450.121 949.604 450.67C949.604 451.27 949.9 451.751 950.492 452.111C950.835 452.325 951.341 452.514 952.01 452.677L953.541 453.05C955.205 453.453 956.32 453.843 956.886 454.221C957.786 454.812 958.236 455.743 958.236 457.012C958.236 458.238 957.769 459.298 956.834 460.19C955.908 461.081 954.493 461.527 952.589 461.527C950.539 461.527 949.086 461.064 948.228 460.138C947.379 459.203 946.924 458.05 946.864 456.678H949.09ZM969.107 442.103H971.692V461H969.107V442.103ZM989.612 442.103V444.354H983.244V461H980.646V444.354H974.278V442.103H989.612ZM991.902 442.103H995.568L1001 458.08L1006.39 442.103H1010.01V461H1007.58V449.847C1007.58 449.461 1007.59 448.822 1007.61 447.93C1007.63 447.038 1007.63 446.082 1007.63 445.061L1002.24 461H999.71L994.282 445.061V445.64C994.282 446.103 994.29 446.811 994.307 447.763C994.333 448.706 994.346 449.401 994.346 449.847V461H991.902V442.103ZM1015.4 442.103L1020.83 458.196L1026.2 442.103H1029.07L1022.17 461H1019.46L1012.57 442.103H1015.4Z" fill="#EFEEEA"/>
<path d="M848.679 621.902C848.739 622.974 848.992 623.845 849.438 624.514C850.287 625.766 851.784 626.392 853.928 626.392C854.888 626.392 855.763 626.255 856.552 625.98C858.079 625.449 858.842 624.497 858.842 623.124C858.842 622.095 858.52 621.362 857.877 620.925C857.225 620.496 856.205 620.123 854.815 619.806L852.255 619.227C850.583 618.849 849.4 618.433 848.705 617.979C847.504 617.19 846.904 616.011 846.904 614.441C846.904 612.743 847.491 611.349 848.666 610.26C849.841 609.171 851.505 608.627 853.658 608.627C855.639 608.627 857.32 609.107 858.7 610.067C860.09 611.019 860.784 612.546 860.784 614.647H858.379C858.25 613.635 857.976 612.859 857.555 612.319C856.775 611.332 855.45 610.839 853.58 610.839C852.071 610.839 850.986 611.156 850.326 611.791C849.665 612.426 849.335 613.163 849.335 614.004C849.335 614.93 849.721 615.608 850.493 616.036C850.999 616.311 852.144 616.654 853.928 617.065L856.578 617.67C857.856 617.962 858.842 618.36 859.537 618.866C860.737 619.75 861.338 621.032 861.338 622.713C861.338 624.805 860.574 626.302 859.048 627.202C857.53 628.103 855.763 628.553 853.748 628.553C851.398 628.553 849.558 627.953 848.229 626.752C846.9 625.56 846.248 623.943 846.274 621.902H848.679ZM872.877 614.222H875.437C875.111 615.106 874.386 617.121 873.263 620.269C872.422 622.636 871.719 624.565 871.153 626.058C869.815 629.574 868.872 631.718 868.323 632.49C867.774 633.261 866.831 633.647 865.493 633.647C865.167 633.647 864.914 633.635 864.734 633.609C864.562 633.583 864.348 633.536 864.09 633.467V631.358C864.494 631.469 864.785 631.538 864.965 631.563C865.145 631.589 865.304 631.602 865.441 631.602C865.87 631.602 866.183 631.529 866.38 631.383C866.586 631.246 866.758 631.075 866.895 630.869C866.938 630.8 867.092 630.448 867.358 629.814C867.624 629.179 867.817 628.708 867.937 628.399L862.843 614.222H865.467L869.159 625.44L872.877 614.222ZM883.181 613.914C884.159 613.914 885.106 614.145 886.024 614.608C886.942 615.063 887.64 615.655 888.121 616.384C888.584 617.078 888.893 617.889 889.047 618.815C889.184 619.45 889.253 620.462 889.253 621.851H879.154C879.197 623.249 879.527 624.372 880.145 625.221C880.762 626.062 881.719 626.482 883.014 626.482C884.223 626.482 885.188 626.083 885.908 625.286C886.32 624.823 886.611 624.287 886.783 623.678H889.06C889 624.184 888.798 624.75 888.455 625.376C888.121 625.993 887.743 626.499 887.323 626.894C886.62 627.58 885.749 628.043 884.712 628.283C884.154 628.42 883.524 628.489 882.821 628.489C881.105 628.489 879.652 627.867 878.46 626.624C877.268 625.371 876.672 623.622 876.672 621.375C876.672 619.162 877.272 617.366 878.473 615.985C879.673 614.604 881.243 613.914 883.181 613.914ZM886.873 620.011C886.779 619.008 886.56 618.206 886.217 617.606C885.582 616.491 884.523 615.933 883.039 615.933C881.976 615.933 881.084 616.319 880.364 617.091C879.643 617.854 879.262 618.828 879.219 620.011H886.873ZM892.173 614.222H894.373V616.602C894.553 616.139 894.995 615.577 895.698 614.917C896.401 614.248 897.211 613.914 898.129 613.914C898.172 613.914 898.245 613.918 898.348 613.927C898.451 613.935 898.626 613.952 898.875 613.978V616.422C898.738 616.397 898.609 616.379 898.489 616.371C898.378 616.362 898.253 616.358 898.116 616.358C896.95 616.358 896.054 616.735 895.428 617.49C894.802 618.236 894.489 619.098 894.489 620.076V628H892.173V614.222ZM909.591 623.678C909.66 624.449 909.853 625.041 910.17 625.453C910.753 626.199 911.765 626.572 913.206 626.572C914.064 626.572 914.818 626.388 915.47 626.019C916.122 625.642 916.448 625.063 916.448 624.282C916.448 623.69 916.186 623.24 915.663 622.932C915.328 622.743 914.668 622.524 913.682 622.275L911.842 621.812C910.667 621.521 909.801 621.195 909.244 620.835C908.249 620.209 907.751 619.342 907.751 618.236C907.751 616.933 908.219 615.878 909.154 615.071C910.097 614.265 911.362 613.862 912.949 613.862C915.024 613.862 916.521 614.471 917.438 615.689C918.013 616.461 918.292 617.293 918.274 618.185H916.087C916.045 617.661 915.86 617.186 915.534 616.757C915.003 616.148 914.081 615.843 912.769 615.843C911.894 615.843 911.229 616.011 910.775 616.345C910.329 616.68 910.106 617.121 910.106 617.67C910.106 618.27 910.402 618.751 910.993 619.111C911.336 619.325 911.842 619.514 912.511 619.677L914.042 620.05C915.706 620.453 916.821 620.843 917.387 621.221C918.287 621.812 918.738 622.743 918.738 624.012C918.738 625.238 918.27 626.298 917.335 627.19C916.409 628.081 914.994 628.527 913.09 628.527C911.04 628.527 909.587 628.064 908.729 627.138C907.88 626.203 907.426 625.05 907.366 623.678H909.591ZM921.388 614.287H923.742V628H921.388V614.287ZM921.388 609.103H923.742V611.727H921.388V609.103ZM927.717 610.376H930.058V614.222H932.258V616.113H930.058V625.106C930.058 625.586 930.221 625.907 930.547 626.07C930.727 626.165 931.027 626.212 931.447 626.212C931.559 626.212 931.679 626.212 931.808 626.212C931.936 626.203 932.086 626.19 932.258 626.173V628C931.992 628.077 931.713 628.133 931.422 628.167C931.139 628.202 930.83 628.219 930.495 628.219C929.415 628.219 928.682 627.944 928.296 627.395C927.91 626.838 927.717 626.118 927.717 625.234V616.113H925.851V614.222H927.717V610.376ZM942.498 612.126C942.532 611.165 942.699 610.462 942.999 610.016C943.54 609.227 944.582 608.832 946.125 608.832C946.271 608.832 946.421 608.837 946.576 608.845C946.73 608.854 946.906 608.867 947.103 608.884V610.994C946.863 610.976 946.687 610.968 946.576 610.968C946.473 610.959 946.374 610.955 946.28 610.955C945.576 610.955 945.156 611.139 945.019 611.508C944.882 611.868 944.813 612.795 944.813 614.287H947.103V616.113H944.787V628H942.498V616.113H940.581V614.287H942.498V612.126ZM958.436 617.155C958.196 616.787 957.81 616.478 957.279 616.229C956.747 615.972 956.155 615.843 955.503 615.843C954.26 615.843 953.261 616.366 952.506 617.413C951.76 618.45 951.387 619.788 951.387 621.426C951.387 622.044 951.451 622.636 951.58 623.202C951.657 623.519 951.786 623.922 951.966 624.411L958.436 617.155ZM952.545 625.26C952.965 625.749 953.419 626.079 953.908 626.25C954.397 626.422 954.894 626.508 955.4 626.508C957.021 626.508 958.171 625.744 958.848 624.218C959.26 623.3 959.466 622.245 959.466 621.053C959.466 620.281 959.401 619.617 959.273 619.059C959.204 618.759 959.088 618.408 958.925 618.005L952.545 625.26ZM948.737 627.949L950.383 626.212C949.955 625.577 949.624 624.865 949.393 624.076C949.161 623.287 949.046 622.353 949.046 621.272C949.046 619.325 949.586 617.597 950.666 616.088C951.756 614.57 953.338 613.811 955.413 613.811C956.494 613.811 957.442 614.008 958.256 614.403C958.737 614.634 959.285 615.011 959.903 615.535L961.511 613.708L962.18 614.351L960.533 616.204C961.074 616.993 961.459 617.897 961.691 618.918C961.837 619.578 961.91 620.239 961.91 620.899C961.91 623.112 961.314 624.938 960.122 626.379C958.93 627.811 957.343 628.527 955.362 628.527C954.418 628.527 953.578 628.386 952.84 628.103C952.103 627.828 951.507 627.451 951.052 626.971L949.496 628.617L948.737 627.949ZM965.422 614.222H967.621V616.602C967.802 616.139 968.243 615.577 968.946 614.917C969.65 614.248 970.46 613.914 971.378 613.914C971.421 613.914 971.494 613.918 971.596 613.927C971.699 613.935 971.875 613.952 972.124 613.978V616.422C971.987 616.397 971.858 616.379 971.738 616.371C971.626 616.362 971.502 616.358 971.365 616.358C970.199 616.358 969.302 616.735 968.676 617.49C968.05 618.236 967.737 619.098 967.737 620.076V628H965.422V614.222ZM975.507 623.678C975.576 624.449 975.769 625.041 976.086 625.453C976.669 626.199 977.681 626.572 979.122 626.572C979.98 626.572 980.734 626.388 981.386 626.019C982.038 625.642 982.364 625.063 982.364 624.282C982.364 623.69 982.102 623.24 981.579 622.932C981.245 622.743 980.584 622.524 979.598 622.275L977.758 621.812C976.583 621.521 975.717 621.195 975.16 620.835C974.165 620.209 973.668 619.342 973.668 618.236C973.668 616.933 974.135 615.878 975.07 615.071C976.013 614.265 977.278 613.862 978.865 613.862C980.94 613.862 982.437 614.471 983.354 615.689C983.929 616.461 984.208 617.293 984.19 618.185H982.004C981.961 617.661 981.776 617.186 981.45 616.757C980.919 616.148 979.997 615.843 978.685 615.843C977.81 615.843 977.145 616.011 976.691 616.345C976.245 616.68 976.022 617.121 976.022 617.67C976.022 618.27 976.318 618.751 976.909 619.111C977.252 619.325 977.758 619.514 978.427 619.677L979.958 620.05C981.622 620.453 982.737 620.843 983.303 621.221C984.203 621.812 984.654 622.743 984.654 624.012C984.654 625.238 984.186 626.298 983.251 627.19C982.325 628.081 980.91 628.527 979.006 628.527C976.957 628.527 975.503 628.064 974.645 627.138C973.796 626.203 973.342 625.05 973.282 623.678H975.507ZM987.767 610.376H990.108V614.222H992.308V616.113H990.108V625.106C990.108 625.586 990.271 625.907 990.597 626.07C990.777 626.165 991.077 626.212 991.497 626.212C991.609 626.212 991.729 626.212 991.858 626.212C991.986 626.203 992.136 626.19 992.308 626.173V628C992.042 628.077 991.763 628.133 991.472 628.167C991.189 628.202 990.88 628.219 990.545 628.219C989.465 628.219 988.732 627.944 988.346 627.395C987.96 626.838 987.767 626.118 987.767 625.234V616.113H985.901V614.222H987.767V610.376ZM1000.37 613.914C1001.35 613.914 1002.3 614.145 1003.22 614.608C1004.13 615.063 1004.83 615.655 1005.31 616.384C1005.78 617.078 1006.09 617.889 1006.24 618.815C1006.38 619.45 1006.45 620.462 1006.45 621.851H996.347C996.39 623.249 996.72 624.372 997.338 625.221C997.955 626.062 998.911 626.482 1000.21 626.482C1001.42 626.482 1002.38 626.083 1003.1 625.286C1003.51 624.823 1003.8 624.287 1003.98 623.678H1006.25C1006.19 624.184 1005.99 624.75 1005.65 625.376C1005.31 625.993 1004.94 626.499 1004.52 626.894C1003.81 627.58 1002.94 628.043 1001.9 628.283C1001.35 628.42 1000.72 628.489 1000.01 628.489C998.298 628.489 996.845 627.867 995.652 626.624C994.46 625.371 993.864 623.622 993.864 621.375C993.864 619.162 994.465 617.366 995.665 615.985C996.866 614.604 998.435 613.914 1000.37 613.914ZM1004.07 620.011C1003.97 619.008 1003.75 618.206 1003.41 617.606C1002.77 616.491 1001.72 615.933 1000.23 615.933C999.169 615.933 998.277 616.319 997.556 617.091C996.836 617.854 996.454 618.828 996.411 620.011H1004.07ZM1022.45 626.443C1023.53 626.443 1024.43 625.993 1025.14 625.093C1025.86 624.184 1026.22 622.829 1026.22 621.028C1026.22 619.93 1026.06 618.986 1025.74 618.197C1025.14 616.68 1024.04 615.921 1022.45 615.921C1020.84 615.921 1019.75 616.722 1019.16 618.326C1018.84 619.184 1018.68 620.273 1018.68 621.594C1018.68 622.657 1018.84 623.562 1019.16 624.308C1019.76 625.732 1020.85 626.443 1022.45 626.443ZM1016.45 614.287H1018.71V616.113C1019.17 615.487 1019.67 615.003 1020.22 614.66C1021 614.145 1021.92 613.888 1022.98 613.888C1024.54 613.888 1025.86 614.488 1026.95 615.689C1028.04 616.881 1028.58 618.588 1028.58 620.809C1028.58 623.811 1027.8 625.955 1026.23 627.241C1025.24 628.056 1024.08 628.463 1022.76 628.463C1021.72 628.463 1020.85 628.236 1020.15 627.781C1019.73 627.524 1019.28 627.082 1018.77 626.456V633.493H1016.45V614.287ZM1031.36 614.222H1033.56V616.602C1033.74 616.139 1034.18 615.577 1034.89 614.917C1035.59 614.248 1036.4 613.914 1037.32 613.914C1037.36 613.914 1037.44 613.918 1037.54 613.927C1037.64 613.935 1037.82 613.952 1038.07 613.978V616.422C1037.93 616.397 1037.8 616.379 1037.68 616.371C1037.57 616.362 1037.44 616.358 1037.31 616.358C1036.14 616.358 1035.24 616.735 1034.62 617.49C1033.99 618.236 1033.68 619.098 1033.68 620.076V628H1031.36V614.222ZM1045.54 626.508C1047.07 626.508 1048.13 625.929 1048.69 624.771C1049.27 623.605 1049.55 622.31 1049.55 620.886C1049.55 619.6 1049.35 618.553 1048.94 617.747C1048.28 616.478 1047.16 615.843 1045.57 615.843C1044.15 615.843 1043.12 616.384 1042.48 617.464C1041.83 618.545 1041.51 619.848 1041.51 621.375C1041.51 622.841 1041.83 624.064 1042.48 625.041C1043.12 626.019 1044.14 626.508 1045.54 626.508ZM1045.63 613.824C1047.41 613.824 1048.91 614.415 1050.13 615.599C1051.36 616.782 1051.97 618.523 1051.97 620.822C1051.97 623.043 1051.43 624.878 1050.35 626.328C1049.27 627.777 1047.59 628.502 1045.32 628.502C1043.43 628.502 1041.92 627.863 1040.81 626.585C1039.69 625.299 1039.13 623.575 1039.13 621.414C1039.13 619.098 1039.72 617.254 1040.9 615.882C1042.07 614.51 1043.65 613.824 1045.63 613.824ZM1056.2 621.272C1056.2 622.747 1056.52 623.982 1057.14 624.977C1057.77 625.972 1058.77 626.469 1060.15 626.469C1061.23 626.469 1062.1 626.01 1062.79 625.093C1063.49 624.166 1063.83 622.841 1063.83 621.118C1063.83 619.377 1063.48 618.09 1062.76 617.258C1062.05 616.418 1061.17 615.998 1060.13 615.998C1058.96 615.998 1058.01 616.444 1057.28 617.336C1056.56 618.228 1056.2 619.54 1056.2 621.272ZM1059.69 613.978C1060.75 613.978 1061.63 614.201 1062.34 614.647C1062.75 614.904 1063.22 615.355 1063.74 615.998V609.038H1065.97V628H1063.88V626.083C1063.34 626.932 1062.7 627.545 1061.97 627.923C1061.23 628.3 1060.39 628.489 1059.43 628.489C1057.9 628.489 1056.57 627.846 1055.45 626.559C1054.32 625.264 1053.76 623.545 1053.76 621.401C1053.76 619.394 1054.27 617.657 1055.29 616.191C1056.32 614.716 1057.79 613.978 1059.69 613.978ZM1071.72 614.222V623.369C1071.72 624.072 1071.83 624.647 1072.05 625.093C1072.46 625.916 1073.23 626.328 1074.36 626.328C1075.97 626.328 1077.07 625.607 1077.65 624.166C1077.97 623.395 1078.12 622.335 1078.12 620.989V614.222H1080.44V628H1078.25L1078.28 625.967C1077.98 626.491 1077.61 626.932 1077.16 627.292C1076.28 628.013 1075.2 628.373 1073.94 628.373C1071.98 628.373 1070.64 627.717 1069.93 626.405C1069.54 625.702 1069.35 624.763 1069.35 623.588V614.222H1071.72ZM1084.02 609.103H1086.24V620.076L1092.19 614.222H1095.14L1089.87 619.381L1095.44 628H1092.48L1088.18 621.053L1086.24 622.829V628H1084.02V609.103ZM1097.7 610.376H1100.05V614.222H1102.25V616.113H1100.05V625.106C1100.05 625.586 1100.21 625.907 1100.53 626.07C1100.71 626.165 1101.01 626.212 1101.43 626.212C1101.55 626.212 1101.67 626.212 1101.79 626.212C1101.92 626.203 1102.07 626.19 1102.25 626.173V628C1101.98 628.077 1101.7 628.133 1101.41 628.167C1101.13 628.202 1100.82 628.219 1100.48 628.219C1099.4 628.219 1098.67 627.944 1098.28 627.395C1097.9 626.838 1097.7 626.118 1097.7 625.234V616.113H1095.84V614.222H1097.7V610.376Z" fill="#EFEEEA"/>
<circle cx="923.5" cy="134.5" r="6.5" fill="white"/>
<circle cx="1252.5" cy="307.5" r="6.5" fill="white"/>
<ellipse cx="1035.5" cy="475" rx="6.5" ry="6" fill="white"/>
<ellipse cx="1109" cy="644.5" rx="6" ry="5.5" fill="white"/>
</svg>
