<svg width="390" height="630" viewBox="0 0 390 630" fill="none" xmlns="http://www.w3.org/2000/svg">
<rect width="390" height="630" fill="#3D5C6D"/>
<path d="M94.0044 116V514" stroke="white" stroke-width="3"/>
<path d="M94.0044 93V116" stroke="white" stroke-width="3" stroke-dasharray="7 7"/>
<path d="M94.0044 514V537" stroke="white" stroke-width="3" stroke-dasharray="7 7"/>
<line x1="94" y1="373.5" x2="240" y2="373.5" stroke="white" stroke-width="3"/>
<line x1="93.9984" y1="265.255" x2="295" y2="265.255" stroke="white" stroke-width="3"/>
<line x1="94" y1="482.5" x2="259" y2="482.5" stroke="white" stroke-width="3"/>
<line x1="94" y1="153.5" x2="211" y2="153.5" stroke="white" stroke-width="3"/>
<path d="M138.453 127.806H146.911V129.3H140.104V133.002H146.089V134.455H140.104V140H138.453V127.806ZM148.53 127.806H150.024V140H148.53V127.806ZM157.827 131.11H159.479C159.268 131.68 158.801 132.98 158.076 135.011C157.533 136.539 157.08 137.784 156.714 138.747C155.851 141.015 155.242 142.399 154.888 142.897C154.534 143.395 153.925 143.644 153.062 143.644C152.852 143.644 152.688 143.636 152.572 143.619C152.462 143.603 152.323 143.572 152.157 143.528V142.167C152.417 142.238 152.605 142.283 152.722 142.299C152.838 142.316 152.94 142.324 153.029 142.324C153.306 142.324 153.507 142.277 153.635 142.183C153.768 142.095 153.878 141.984 153.967 141.851C153.994 141.807 154.094 141.58 154.266 141.17C154.437 140.761 154.562 140.457 154.639 140.257L151.352 131.11H153.045L155.428 138.348L157.827 131.11ZM163.911 130.952C164.608 130.952 165.217 131.124 165.737 131.467C166.02 131.66 166.307 131.943 166.601 132.313V131.193H167.979V139.278C167.979 140.407 167.812 141.298 167.48 141.951C166.861 143.157 165.69 143.76 163.969 143.76C163.012 143.76 162.207 143.544 161.554 143.113C160.901 142.687 160.535 142.017 160.458 141.104H161.977C162.049 141.502 162.193 141.81 162.409 142.025C162.746 142.357 163.278 142.523 164.002 142.523C165.148 142.523 165.898 142.119 166.252 141.312C166.462 140.836 166.559 139.986 166.542 138.763C166.244 139.217 165.884 139.555 165.463 139.776C165.043 139.997 164.487 140.108 163.795 140.108C162.832 140.108 161.988 139.768 161.263 139.087C160.544 138.401 160.184 137.269 160.184 135.692C160.184 134.203 160.547 133.041 161.271 132.206C162.002 131.37 162.882 130.952 163.911 130.952ZM166.601 135.518C166.601 134.416 166.374 133.6 165.92 133.069C165.466 132.538 164.888 132.272 164.185 132.272C163.134 132.272 162.414 132.764 162.027 133.75C161.822 134.275 161.72 134.964 161.72 135.816C161.72 136.818 161.922 137.582 162.326 138.107C162.735 138.628 163.283 138.888 163.969 138.888C165.043 138.888 165.798 138.403 166.235 137.435C166.479 136.887 166.601 136.248 166.601 135.518ZM170.535 128.628H172.046V131.11H173.465V132.33H172.046V138.132C172.046 138.442 172.151 138.65 172.361 138.755C172.478 138.816 172.671 138.846 172.942 138.846C173.014 138.846 173.092 138.846 173.175 138.846C173.258 138.841 173.355 138.832 173.465 138.821V140C173.294 140.05 173.114 140.086 172.926 140.108C172.743 140.13 172.544 140.141 172.328 140.141C171.631 140.141 171.158 139.964 170.909 139.61C170.66 139.25 170.535 138.785 170.535 138.215V132.33H169.332V131.11H170.535V128.628ZM178.67 130.911C179.301 130.911 179.912 131.06 180.504 131.359C181.097 131.652 181.548 132.034 181.857 132.504C182.156 132.953 182.355 133.476 182.455 134.073C182.544 134.483 182.588 135.136 182.588 136.032H176.072C176.099 136.934 176.312 137.659 176.711 138.207C177.109 138.749 177.726 139.021 178.562 139.021C179.342 139.021 179.965 138.763 180.43 138.249C180.695 137.95 180.883 137.604 180.994 137.211H182.463C182.425 137.537 182.295 137.903 182.073 138.307C181.857 138.705 181.614 139.032 181.343 139.286C180.889 139.729 180.327 140.028 179.658 140.183C179.298 140.271 178.891 140.315 178.438 140.315C177.331 140.315 176.393 139.914 175.624 139.112C174.854 138.304 174.47 137.175 174.47 135.725C174.47 134.297 174.857 133.138 175.632 132.247C176.407 131.356 177.419 130.911 178.67 130.911ZM181.052 134.845C180.991 134.198 180.85 133.68 180.629 133.293C180.219 132.574 179.536 132.214 178.579 132.214C177.892 132.214 177.317 132.463 176.852 132.961C176.387 133.453 176.141 134.082 176.113 134.845H181.052ZM184.472 131.11H185.892V132.646C186.008 132.347 186.293 131.984 186.747 131.558C187.2 131.126 187.723 130.911 188.315 130.911C188.343 130.911 188.39 130.913 188.457 130.919C188.523 130.924 188.636 130.936 188.797 130.952V132.529C188.708 132.513 188.625 132.502 188.548 132.496C188.476 132.491 188.396 132.488 188.307 132.488C187.555 132.488 186.976 132.731 186.572 133.218C186.168 133.7 185.966 134.256 185.966 134.887V140H184.472V131.11ZM195.122 128.628H196.633V131.11H198.052V132.33H196.633V138.132C196.633 138.442 196.738 138.65 196.948 138.755C197.064 138.816 197.258 138.846 197.529 138.846C197.601 138.846 197.679 138.846 197.762 138.846C197.845 138.841 197.942 138.832 198.052 138.821V140C197.881 140.05 197.701 140.086 197.513 140.108C197.33 140.13 197.131 140.141 196.915 140.141C196.218 140.141 195.745 139.964 195.496 139.61C195.247 139.25 195.122 138.785 195.122 138.215V132.33H193.918V131.11H195.122V128.628ZM199.555 131.151H201.074V140H199.555V131.151ZM199.555 127.806H201.074V129.5H199.555V127.806ZM203.381 127.806H204.875V140H203.381V127.806ZM216.737 138.589C217.296 138.589 217.756 138.531 218.115 138.415C218.757 138.199 219.283 137.784 219.692 137.169C220.019 136.677 220.254 136.046 220.398 135.277C220.481 134.818 220.522 134.391 220.522 133.999C220.522 132.488 220.221 131.315 219.618 130.479C219.02 129.643 218.054 129.226 216.721 129.226H213.791V138.589H216.737ZM212.13 127.806H217.069C218.746 127.806 220.047 128.401 220.971 129.591C221.795 130.664 222.208 132.04 222.208 133.716C222.208 135.011 221.964 136.182 221.477 137.228C220.619 139.076 219.145 140 217.053 140H212.13V127.806ZM225.287 137.634C225.287 138.066 225.445 138.406 225.76 138.655C226.076 138.904 226.449 139.029 226.881 139.029C227.407 139.029 227.916 138.907 228.408 138.664C229.238 138.26 229.653 137.598 229.653 136.68V135.476C229.471 135.592 229.236 135.689 228.948 135.767C228.66 135.844 228.378 135.899 228.101 135.933L227.196 136.049C226.654 136.121 226.247 136.234 225.976 136.389C225.517 136.649 225.287 137.064 225.287 137.634ZM228.906 134.613C229.249 134.569 229.479 134.425 229.595 134.181C229.662 134.048 229.695 133.857 229.695 133.608C229.695 133.099 229.512 132.731 229.147 132.504C228.787 132.272 228.27 132.156 227.595 132.156C226.814 132.156 226.261 132.366 225.935 132.787C225.752 133.019 225.633 133.365 225.578 133.824H224.183C224.211 132.729 224.565 131.968 225.246 131.542C225.932 131.11 226.726 130.894 227.628 130.894C228.674 130.894 229.523 131.093 230.176 131.492C230.824 131.89 231.147 132.51 231.147 133.351V138.473C231.147 138.628 231.178 138.752 231.239 138.846C231.305 138.94 231.441 138.987 231.646 138.987C231.712 138.987 231.787 138.985 231.87 138.979C231.953 138.968 232.041 138.954 232.135 138.938V140.042C231.903 140.108 231.726 140.149 231.604 140.166C231.482 140.183 231.316 140.191 231.106 140.191C230.591 140.191 230.218 140.008 229.985 139.643C229.864 139.449 229.778 139.175 229.728 138.821C229.424 139.22 228.986 139.566 228.417 139.859C227.847 140.152 227.218 140.299 226.532 140.299C225.708 140.299 225.033 140.05 224.507 139.552C223.987 139.048 223.727 138.42 223.727 137.667C223.727 136.843 223.984 136.204 224.499 135.75C225.013 135.296 225.688 135.017 226.524 134.912L228.906 134.613ZM233.604 131.11H235.024V132.372C235.444 131.851 235.89 131.478 236.36 131.251C236.831 131.024 237.354 130.911 237.929 130.911C239.191 130.911 240.043 131.351 240.486 132.23C240.729 132.712 240.851 133.401 240.851 134.297V140H239.332V134.397C239.332 133.855 239.252 133.417 239.091 133.085C238.826 132.532 238.344 132.255 237.647 132.255C237.293 132.255 237.002 132.291 236.775 132.363C236.366 132.485 236.006 132.729 235.696 133.094C235.447 133.387 235.284 133.691 235.207 134.007C235.135 134.317 235.099 134.762 235.099 135.343V140H233.604V131.11ZM243.067 131.11H244.545V132.372C244.899 131.934 245.22 131.616 245.508 131.417C246 131.079 246.559 130.911 247.185 130.911C247.893 130.911 248.463 131.085 248.895 131.434C249.138 131.633 249.359 131.926 249.559 132.313C249.891 131.838 250.281 131.486 250.729 131.259C251.177 131.027 251.681 130.911 252.24 130.911C253.435 130.911 254.249 131.342 254.68 132.206C254.913 132.67 255.029 133.296 255.029 134.082V140H253.477V133.824C253.477 133.232 253.327 132.825 253.028 132.604C252.735 132.383 252.375 132.272 251.949 132.272C251.363 132.272 250.856 132.468 250.43 132.861C250.01 133.254 249.799 133.91 249.799 134.829V140H248.28V134.198C248.28 133.595 248.208 133.155 248.064 132.878C247.838 132.463 247.414 132.255 246.794 132.255C246.23 132.255 245.715 132.474 245.25 132.911C244.791 133.348 244.562 134.14 244.562 135.285V140H243.067V131.11ZM258.374 137.634C258.374 138.066 258.532 138.406 258.847 138.655C259.163 138.904 259.536 139.029 259.968 139.029C260.493 139.029 261.003 138.907 261.495 138.664C262.325 138.26 262.74 137.598 262.74 136.68V135.476C262.558 135.592 262.322 135.689 262.035 135.767C261.747 135.844 261.465 135.899 261.188 135.933L260.283 136.049C259.741 136.121 259.334 136.234 259.063 136.389C258.604 136.649 258.374 137.064 258.374 137.634ZM261.993 134.613C262.336 134.569 262.566 134.425 262.682 134.181C262.749 134.048 262.782 133.857 262.782 133.608C262.782 133.099 262.599 132.731 262.234 132.504C261.874 132.272 261.357 132.156 260.682 132.156C259.901 132.156 259.348 132.366 259.021 132.787C258.839 133.019 258.72 133.365 258.665 133.824H257.27C257.298 132.729 257.652 131.968 258.333 131.542C259.019 131.11 259.813 130.894 260.715 130.894C261.761 130.894 262.61 131.093 263.263 131.492C263.911 131.89 264.234 132.51 264.234 133.351V138.473C264.234 138.628 264.265 138.752 264.326 138.846C264.392 138.94 264.528 138.987 264.732 138.987C264.799 138.987 264.874 138.985 264.957 138.979C265.04 138.968 265.128 138.954 265.222 138.938V140.042C264.99 140.108 264.813 140.149 264.691 140.166C264.569 140.183 264.403 140.191 264.193 140.191C263.678 140.191 263.305 140.008 263.072 139.643C262.951 139.449 262.865 139.175 262.815 138.821C262.511 139.22 262.073 139.566 261.503 139.859C260.933 140.152 260.305 140.299 259.619 140.299C258.795 140.299 258.119 140.05 257.594 139.552C257.074 139.048 256.813 138.42 256.813 137.667C256.813 136.843 257.071 136.204 257.585 135.75C258.1 135.296 258.775 135.017 259.611 134.912L261.993 134.613ZM266.733 131.11H268.152V132.646C268.269 132.347 268.554 131.984 269.007 131.558C269.461 131.126 269.984 130.911 270.576 130.911C270.604 130.911 270.651 130.913 270.717 130.919C270.784 130.924 270.897 130.936 271.058 130.952V132.529C270.969 132.513 270.886 132.502 270.809 132.496C270.737 132.491 270.656 132.488 270.568 132.488C269.815 132.488 269.237 132.731 268.833 133.218C268.429 133.7 268.227 134.256 268.227 134.887V140H266.733V131.11ZM272.319 127.806H273.755V134.887L277.59 131.11H279.5L276.096 134.438L279.69 140H277.781L275.009 135.518L273.755 136.663V140H272.319V127.806Z" fill="#EFEEEA"/>
<path d="M37.7373 146.827H39.1289L41.1895 152.892L43.2354 146.827H44.6123V154H43.6895V149.767C43.6895 149.62 43.6927 149.378 43.6992 149.039C43.7057 148.701 43.709 148.338 43.709 147.95L41.6631 154H40.7012L38.6406 147.95V148.17C38.6406 148.346 38.6439 148.614 38.6504 148.976C38.6602 149.334 38.665 149.597 38.665 149.767V154H37.7373V146.827ZM46.6484 152.608C46.6484 152.862 46.7412 153.062 46.9268 153.209C47.1123 153.355 47.332 153.429 47.5859 153.429C47.8952 153.429 48.1947 153.357 48.4844 153.214C48.9727 152.976 49.2168 152.587 49.2168 152.047V151.339C49.1094 151.407 48.971 151.464 48.8018 151.51C48.6325 151.555 48.4665 151.588 48.3037 151.607L47.7715 151.676C47.4525 151.718 47.2132 151.785 47.0537 151.876C46.7835 152.029 46.6484 152.273 46.6484 152.608ZM48.7773 150.831C48.9792 150.805 49.1143 150.72 49.1826 150.577C49.2217 150.499 49.2412 150.387 49.2412 150.24C49.2412 149.941 49.1338 149.724 48.9189 149.591C48.7074 149.454 48.403 149.386 48.0059 149.386C47.5469 149.386 47.2214 149.509 47.0293 149.757C46.9219 149.894 46.8519 150.097 46.8193 150.367H45.999C46.0153 149.723 46.2236 149.275 46.624 149.024C47.0277 148.771 47.4948 148.644 48.0254 148.644C48.6406 148.644 49.1403 148.761 49.5244 148.995C49.9053 149.229 50.0957 149.594 50.0957 150.089V153.102C50.0957 153.193 50.1136 153.266 50.1494 153.321C50.1885 153.377 50.2682 153.404 50.3887 153.404C50.4277 153.404 50.4717 153.403 50.5205 153.399C50.5693 153.393 50.6214 153.385 50.6768 153.375V154.024C50.54 154.063 50.4359 154.088 50.3643 154.098C50.2926 154.107 50.195 154.112 50.0713 154.112C49.7686 154.112 49.5488 154.005 49.4121 153.79C49.3405 153.676 49.29 153.515 49.2607 153.307C49.0817 153.541 48.8245 153.744 48.4893 153.917C48.154 154.09 47.7845 154.176 47.3809 154.176C46.8958 154.176 46.4987 154.029 46.1895 153.736C45.8835 153.44 45.7305 153.071 45.7305 152.628C45.7305 152.143 45.8818 151.767 46.1846 151.5C46.4873 151.233 46.8844 151.069 47.376 151.007L48.7773 150.831ZM51.5654 148.771H52.4004V149.674C52.4688 149.498 52.6364 149.285 52.9033 149.034C53.1702 148.78 53.4779 148.653 53.8262 148.653C53.8424 148.653 53.8701 148.655 53.9092 148.658C53.9482 148.661 54.015 148.668 54.1094 148.678V149.605C54.0573 149.596 54.0085 149.589 53.9629 149.586C53.9206 149.583 53.8734 149.581 53.8213 149.581C53.3786 149.581 53.0384 149.724 52.8008 150.011C52.5632 150.294 52.4443 150.621 52.4443 150.992V154H51.5654V148.771ZM55.0469 147.311H55.9355V148.771H56.7705V149.488H55.9355V152.901C55.9355 153.084 55.9974 153.206 56.1211 153.268C56.1895 153.303 56.3034 153.321 56.4629 153.321C56.5052 153.321 56.5508 153.321 56.5996 153.321C56.6484 153.318 56.7054 153.313 56.7705 153.307V154C56.6696 154.029 56.5638 154.05 56.4531 154.063C56.3457 154.076 56.2285 154.083 56.1016 154.083C55.6914 154.083 55.4131 153.979 55.2666 153.771C55.1201 153.559 55.0469 153.285 55.0469 152.95V149.488H54.3389V148.771H55.0469V147.311ZM58.1768 152.359C58.2028 152.652 58.276 152.877 58.3965 153.033C58.6178 153.316 59.002 153.458 59.5488 153.458C59.8743 153.458 60.1608 153.388 60.4082 153.248C60.6556 153.105 60.7793 152.885 60.7793 152.589C60.7793 152.364 60.68 152.193 60.4814 152.076C60.3545 152.005 60.1038 151.922 59.7295 151.827L59.0312 151.651C58.5853 151.541 58.2565 151.417 58.0449 151.28C57.6673 151.043 57.4785 150.714 57.4785 150.294C57.4785 149.799 57.6559 149.399 58.0107 149.093C58.3688 148.787 58.849 148.634 59.4512 148.634C60.2389 148.634 60.807 148.865 61.1553 149.327C61.3734 149.62 61.4792 149.936 61.4727 150.274H60.6426C60.6263 150.076 60.5563 149.895 60.4326 149.732C60.2308 149.501 59.8809 149.386 59.3828 149.386C59.0508 149.386 58.7985 149.449 58.626 149.576C58.4567 149.703 58.3721 149.871 58.3721 150.079C58.3721 150.307 58.4844 150.489 58.709 150.626C58.8392 150.707 59.0312 150.779 59.2852 150.841L59.8662 150.982C60.4977 151.135 60.9209 151.284 61.1357 151.427C61.4775 151.651 61.6484 152.005 61.6484 152.486C61.6484 152.952 61.471 153.354 61.1162 153.692C60.7646 154.031 60.2275 154.2 59.5049 154.2C58.7269 154.2 58.1751 154.024 57.8496 153.673C57.5273 153.318 57.3548 152.88 57.332 152.359H58.1768ZM65.1055 154C65.138 153.398 65.2617 152.874 65.4766 152.428C65.6947 151.982 66.1178 151.576 66.7461 151.212L67.6836 150.67C68.1035 150.426 68.3981 150.217 68.5674 150.045C68.8343 149.775 68.9678 149.465 68.9678 149.117C68.9678 148.71 68.8457 148.388 68.6016 148.15C68.3574 147.91 68.0319 147.789 67.625 147.789C67.0228 147.789 66.6061 148.017 66.375 148.473C66.2513 148.717 66.1829 149.055 66.1699 149.488H65.2764C65.2861 148.88 65.3984 148.383 65.6133 147.999C65.9941 147.322 66.6663 146.983 67.6299 146.983C68.4307 146.983 69.015 147.2 69.3828 147.633C69.7539 148.066 69.9395 148.548 69.9395 149.078C69.9395 149.638 69.7425 150.117 69.3486 150.514C69.1208 150.745 68.7122 151.025 68.123 151.354L67.4541 151.725C67.1351 151.9 66.8844 152.068 66.7021 152.228C66.3766 152.511 66.1715 152.825 66.0869 153.17H69.9053V154H65.1055ZM73.0645 147.008C73.9694 147.008 74.6237 147.381 75.0273 148.126C75.3398 148.702 75.4961 149.492 75.4961 150.494C75.4961 151.445 75.3545 152.231 75.0713 152.853C74.6611 153.744 73.9906 154.19 73.0596 154.19C72.2197 154.19 71.5947 153.826 71.1846 153.097C70.8428 152.488 70.6719 151.671 70.6719 150.646C70.6719 149.851 70.7744 149.169 70.9795 148.6C71.3636 147.538 72.0586 147.008 73.0645 147.008ZM73.0547 153.39C73.5104 153.39 73.8734 153.188 74.1436 152.784C74.4137 152.381 74.5488 151.629 74.5488 150.528C74.5488 149.734 74.4512 149.081 74.2559 148.57C74.0605 148.056 73.6813 147.799 73.1182 147.799C72.6006 147.799 72.2214 148.043 71.9805 148.531C71.7428 149.016 71.624 149.732 71.624 150.68C71.624 151.393 71.7005 151.965 71.8535 152.398C72.0879 153.059 72.4883 153.39 73.0547 153.39ZM76.2383 154C76.2708 153.398 76.3945 152.874 76.6094 152.428C76.8275 151.982 77.2507 151.576 77.8789 151.212L78.8164 150.67C79.2363 150.426 79.5309 150.217 79.7002 150.045C79.9671 149.775 80.1006 149.465 80.1006 149.117C80.1006 148.71 79.9785 148.388 79.7344 148.15C79.4902 147.91 79.1647 147.789 78.7578 147.789C78.1556 147.789 77.7389 148.017 77.5078 148.473C77.3841 148.717 77.3158 149.055 77.3027 149.488H76.4092C76.4189 148.88 76.5312 148.383 76.7461 147.999C77.127 147.322 77.7992 146.983 78.7627 146.983C79.5635 146.983 80.1478 147.2 80.5156 147.633C80.8867 148.066 81.0723 148.548 81.0723 149.078C81.0723 149.638 80.8753 150.117 80.4814 150.514C80.2536 150.745 79.8451 151.025 79.2559 151.354L78.5869 151.725C78.2679 151.9 78.0173 152.068 77.835 152.228C77.5094 152.511 77.3044 152.825 77.2197 153.17H81.0381V154H76.2383ZM81.8047 154C81.8372 153.398 81.9609 152.874 82.1758 152.428C82.3939 151.982 82.8171 151.576 83.4453 151.212L84.3828 150.67C84.8027 150.426 85.0973 150.217 85.2666 150.045C85.5335 149.775 85.667 149.465 85.667 149.117C85.667 148.71 85.5449 148.388 85.3008 148.15C85.0566 147.91 84.7311 147.789 84.3242 147.789C83.722 147.789 83.3053 148.017 83.0742 148.473C82.9505 148.717 82.8822 149.055 82.8691 149.488H81.9756C81.9854 148.88 82.0977 148.383 82.3125 147.999C82.6934 147.322 83.3656 146.983 84.3291 146.983C85.1299 146.983 85.7142 147.2 86.082 147.633C86.4531 148.066 86.6387 148.548 86.6387 149.078C86.6387 149.638 86.4417 150.117 86.0479 150.514C85.82 150.745 85.4115 151.025 84.8223 151.354L84.1533 151.725C83.8343 151.9 83.5837 152.068 83.4014 152.228C83.0758 152.511 82.8708 152.825 82.7861 153.17H86.6045V154H81.8047Z" fill="#EFEEEA"/>
<path d="M44.7373 256.827H46.1289L48.1895 262.892L50.2354 256.827H51.6123V264H50.6895V259.767C50.6895 259.62 50.6927 259.378 50.6992 259.039C50.7057 258.701 50.709 258.338 50.709 257.95L48.6631 264H47.7012L45.6406 257.95V258.17C45.6406 258.346 45.6439 258.614 45.6504 258.976C45.6602 259.334 45.665 259.597 45.665 259.767V264H44.7373V256.827ZM53.6484 262.608C53.6484 262.862 53.7412 263.062 53.9268 263.209C54.1123 263.355 54.332 263.429 54.5859 263.429C54.8952 263.429 55.1947 263.357 55.4844 263.214C55.9727 262.976 56.2168 262.587 56.2168 262.047V261.339C56.1094 261.407 55.971 261.464 55.8018 261.51C55.6325 261.555 55.4665 261.588 55.3037 261.607L54.7715 261.676C54.4525 261.718 54.2132 261.785 54.0537 261.876C53.7835 262.029 53.6484 262.273 53.6484 262.608ZM55.7773 260.831C55.9792 260.805 56.1143 260.72 56.1826 260.577C56.2217 260.499 56.2412 260.387 56.2412 260.24C56.2412 259.941 56.1338 259.724 55.9189 259.591C55.7074 259.454 55.403 259.386 55.0059 259.386C54.5469 259.386 54.2214 259.509 54.0293 259.757C53.9219 259.894 53.8519 260.097 53.8193 260.367H52.999C53.0153 259.723 53.2236 259.275 53.624 259.024C54.0277 258.771 54.4948 258.644 55.0254 258.644C55.6406 258.644 56.1403 258.761 56.5244 258.995C56.9053 259.229 57.0957 259.594 57.0957 260.089V263.102C57.0957 263.193 57.1136 263.266 57.1494 263.321C57.1885 263.377 57.2682 263.404 57.3887 263.404C57.4277 263.404 57.4717 263.403 57.5205 263.399C57.5693 263.393 57.6214 263.385 57.6768 263.375V264.024C57.54 264.063 57.4359 264.088 57.3643 264.098C57.2926 264.107 57.195 264.112 57.0713 264.112C56.7686 264.112 56.5488 264.005 56.4121 263.79C56.3405 263.676 56.29 263.515 56.2607 263.307C56.0817 263.541 55.8245 263.744 55.4893 263.917C55.154 264.09 54.7845 264.176 54.3809 264.176C53.8958 264.176 53.4987 264.029 53.1895 263.736C52.8835 263.44 52.7305 263.071 52.7305 262.628C52.7305 262.143 52.8818 261.767 53.1846 261.5C53.4873 261.233 53.8844 261.069 54.376 261.007L55.7773 260.831ZM59.4199 257.843H58.541V256.827H59.4199V257.843ZM57.7109 265.323C58.1048 265.31 58.3408 265.274 58.4189 265.216C58.5003 265.16 58.541 264.983 58.541 264.684V258.795H59.4199V264.776C59.4199 265.157 59.3581 265.442 59.2344 265.631C59.0293 265.95 58.6403 266.109 58.0674 266.109C58.0251 266.109 57.9795 266.108 57.9307 266.104C57.8851 266.101 57.8118 266.095 57.7109 266.085V265.323ZM63.2188 264C63.2513 263.398 63.375 262.874 63.5898 262.428C63.8079 261.982 64.2311 261.576 64.8594 261.212L65.7969 260.67C66.2168 260.426 66.5114 260.217 66.6807 260.045C66.9476 259.775 67.0811 259.465 67.0811 259.117C67.0811 258.71 66.959 258.388 66.7148 258.15C66.4707 257.91 66.1452 257.789 65.7383 257.789C65.1361 257.789 64.7194 258.017 64.4883 258.473C64.3646 258.717 64.2962 259.055 64.2832 259.488H63.3896C63.3994 258.88 63.5117 258.383 63.7266 257.999C64.1074 257.322 64.7796 256.983 65.7432 256.983C66.5439 256.983 67.1283 257.2 67.4961 257.633C67.8672 258.066 68.0527 258.548 68.0527 259.078C68.0527 259.638 67.8558 260.117 67.4619 260.514C67.234 260.745 66.8255 261.025 66.2363 261.354L65.5674 261.725C65.2484 261.9 64.9977 262.068 64.8154 262.228C64.4899 262.511 64.2848 262.825 64.2002 263.17H68.0186V264H63.2188ZM71.1777 257.008C72.0827 257.008 72.737 257.381 73.1406 258.126C73.4531 258.702 73.6094 259.492 73.6094 260.494C73.6094 261.445 73.4678 262.231 73.1846 262.853C72.7744 263.744 72.1038 264.19 71.1729 264.19C70.333 264.19 69.708 263.826 69.2979 263.097C68.9561 262.488 68.7852 261.671 68.7852 260.646C68.7852 259.851 68.8877 259.169 69.0928 258.6C69.4769 257.538 70.1719 257.008 71.1777 257.008ZM71.168 263.39C71.6237 263.39 71.9867 263.188 72.2568 262.784C72.527 262.381 72.6621 261.629 72.6621 260.528C72.6621 259.734 72.5645 259.081 72.3691 258.57C72.1738 258.056 71.7946 257.799 71.2314 257.799C70.7139 257.799 70.3346 258.043 70.0938 258.531C69.8561 259.016 69.7373 259.732 69.7373 260.68C69.7373 261.393 69.8138 261.965 69.9668 262.398C70.2012 263.059 70.6016 263.39 71.168 263.39ZM74.3516 264C74.3841 263.398 74.5078 262.874 74.7227 262.428C74.9408 261.982 75.3639 261.576 75.9922 261.212L76.9297 260.67C77.3496 260.426 77.6442 260.217 77.8135 260.045C78.0804 259.775 78.2139 259.465 78.2139 259.117C78.2139 258.71 78.0918 258.388 77.8477 258.15C77.6035 257.91 77.278 257.789 76.8711 257.789C76.2689 257.789 75.8522 258.017 75.6211 258.473C75.4974 258.717 75.429 259.055 75.416 259.488H74.5225C74.5322 258.88 74.6445 258.383 74.8594 257.999C75.2402 257.322 75.9124 256.983 76.876 256.983C77.6768 256.983 78.2611 257.2 78.6289 257.633C79 258.066 79.1855 258.548 79.1855 259.078C79.1855 259.638 78.9886 260.117 78.5947 260.514C78.3669 260.745 77.9583 261.025 77.3691 261.354L76.7002 261.725C76.3812 261.9 76.1305 262.068 75.9482 262.228C75.6227 262.511 75.4176 262.825 75.333 263.17H79.1514V264H74.3516ZM79.918 264C79.9505 263.398 80.0742 262.874 80.2891 262.428C80.5072 261.982 80.9303 261.576 81.5586 261.212L82.4961 260.67C82.916 260.426 83.2106 260.217 83.3799 260.045C83.6468 259.775 83.7803 259.465 83.7803 259.117C83.7803 258.71 83.6582 258.388 83.4141 258.15C83.1699 257.91 82.8444 257.789 82.4375 257.789C81.8353 257.789 81.4186 258.017 81.1875 258.473C81.0638 258.717 80.9954 259.055 80.9824 259.488H80.0889C80.0986 258.88 80.2109 258.383 80.4258 257.999C80.8066 257.322 81.4788 256.983 82.4424 256.983C83.2432 256.983 83.8275 257.2 84.1953 257.633C84.5664 258.066 84.752 258.548 84.752 259.078C84.752 259.638 84.555 260.117 84.1611 260.514C83.9333 260.745 83.5247 261.025 82.9355 261.354L82.2666 261.725C81.9476 261.9 81.6969 262.068 81.5146 262.228C81.1891 262.511 80.984 262.825 80.8994 263.17H84.7178V264H79.918Z" fill="#EFEEEA"/>
<path d="M12.3965 371.686C12.4193 372.092 12.5153 372.423 12.6846 372.677C13.0068 373.152 13.5749 373.39 14.3887 373.39C14.7533 373.39 15.0853 373.338 15.3848 373.233C15.9642 373.032 16.2539 372.67 16.2539 372.149C16.2539 371.759 16.1318 371.48 15.8877 371.314C15.6403 371.152 15.2529 371.01 14.7256 370.89L13.7539 370.67C13.1191 370.527 12.6699 370.369 12.4062 370.196C11.9505 369.897 11.7227 369.449 11.7227 368.854C11.7227 368.209 11.9456 367.68 12.3916 367.267C12.8376 366.853 13.4691 366.646 14.2861 366.646C15.0381 366.646 15.6761 366.829 16.2002 367.193C16.7275 367.555 16.9912 368.134 16.9912 368.932H16.0781C16.0293 368.548 15.9251 368.253 15.7656 368.048C15.4694 367.674 14.9665 367.486 14.2568 367.486C13.6839 367.486 13.2721 367.607 13.0215 367.848C12.7708 368.089 12.6455 368.368 12.6455 368.688C12.6455 369.039 12.792 369.296 13.085 369.459C13.277 369.563 13.7116 369.693 14.3887 369.85L15.3945 370.079C15.8796 370.19 16.2539 370.341 16.5176 370.533C16.9733 370.868 17.2012 371.355 17.2012 371.993C17.2012 372.787 16.9115 373.355 16.332 373.697C15.7559 374.039 15.0853 374.21 14.3203 374.21C13.4284 374.21 12.7301 373.982 12.2256 373.526C11.721 373.074 11.4736 372.46 11.4834 371.686H12.3965ZM20.4922 368.653C20.8633 368.653 21.223 368.741 21.5713 368.917C21.9196 369.09 22.1849 369.314 22.3672 369.591C22.543 369.854 22.6602 370.162 22.7188 370.514C22.7708 370.755 22.7969 371.139 22.7969 371.666H18.9639C18.9801 372.197 19.1055 372.623 19.3398 372.945C19.5742 373.264 19.9372 373.424 20.4287 373.424C20.8877 373.424 21.2539 373.272 21.5273 372.97C21.6836 372.794 21.7943 372.59 21.8594 372.359H22.7236C22.7008 372.551 22.6243 372.766 22.4941 373.004C22.3672 373.238 22.224 373.43 22.0645 373.58C21.7975 373.84 21.4671 374.016 21.0732 374.107C20.8617 374.16 20.6224 374.186 20.3555 374.186C19.7044 374.186 19.1527 373.95 18.7002 373.478C18.2477 373.002 18.0215 372.338 18.0215 371.485C18.0215 370.646 18.2493 369.964 18.7051 369.439C19.1608 368.915 19.7565 368.653 20.4922 368.653ZM21.8936 370.968C21.8577 370.587 21.7747 370.283 21.6445 370.055C21.4036 369.632 21.0016 369.42 20.4385 369.42C20.0348 369.42 19.6963 369.566 19.4229 369.859C19.1494 370.149 19.0046 370.519 18.9883 370.968H21.8936ZM26.0879 373.409C26.498 373.409 26.8382 373.238 27.1084 372.896C27.3818 372.551 27.5186 372.037 27.5186 371.354C27.5186 370.937 27.4583 370.579 27.3379 370.279C27.11 369.703 26.6934 369.415 26.0879 369.415C25.4792 369.415 25.0625 369.719 24.8379 370.328C24.7174 370.654 24.6572 371.067 24.6572 371.568C24.6572 371.972 24.7174 372.315 24.8379 372.599C25.0658 373.139 25.4824 373.409 26.0879 373.409ZM23.8125 368.795H24.667V369.488C24.8428 369.251 25.0348 369.067 25.2432 368.937C25.5394 368.741 25.8877 368.644 26.2881 368.644C26.8805 368.644 27.3835 368.871 27.7969 369.327C28.2103 369.78 28.417 370.427 28.417 371.271C28.417 372.41 28.1191 373.224 27.5234 373.712C27.1458 374.021 26.7064 374.176 26.2051 374.176C25.8112 374.176 25.4808 374.09 25.2139 373.917C25.0576 373.819 24.8835 373.652 24.6914 373.414V376.085H23.8125V368.795ZM29.623 367.311H30.5117V368.771H31.3467V369.488H30.5117V372.901C30.5117 373.084 30.5736 373.206 30.6973 373.268C30.7656 373.303 30.8796 373.321 31.0391 373.321C31.0814 373.321 31.127 373.321 31.1758 373.321C31.2246 373.318 31.2816 373.313 31.3467 373.307V374C31.2458 374.029 31.14 374.05 31.0293 374.063C30.9219 374.076 30.8047 374.083 30.6777 374.083C30.2676 374.083 29.9893 373.979 29.8428 373.771C29.6963 373.559 29.623 373.285 29.623 372.95V369.488H28.915V368.771H29.623V367.311ZM34.4082 368.653C34.7793 368.653 35.139 368.741 35.4873 368.917C35.8356 369.09 36.1009 369.314 36.2832 369.591C36.459 369.854 36.5762 370.162 36.6348 370.514C36.6868 370.755 36.7129 371.139 36.7129 371.666H32.8799C32.8962 372.197 33.0215 372.623 33.2559 372.945C33.4902 373.264 33.8532 373.424 34.3447 373.424C34.8037 373.424 35.1699 373.272 35.4434 372.97C35.5996 372.794 35.7103 372.59 35.7754 372.359H36.6396C36.6169 372.551 36.5404 372.766 36.4102 373.004C36.2832 373.238 36.14 373.43 35.9805 373.58C35.7135 373.84 35.3831 374.016 34.9893 374.107C34.7777 374.16 34.5384 374.186 34.2715 374.186C33.6204 374.186 33.0687 373.95 32.6162 373.478C32.1637 373.002 31.9375 372.338 31.9375 371.485C31.9375 370.646 32.1654 369.964 32.6211 369.439C33.0768 368.915 33.6725 368.653 34.4082 368.653ZM35.8096 370.968C35.7738 370.587 35.6908 370.283 35.5605 370.055C35.3197 369.632 34.9176 369.42 34.3545 369.42C33.9508 369.42 33.6123 369.566 33.3389 369.859C33.0654 370.149 32.9206 370.519 32.9043 370.968H35.8096ZM37.7969 368.771H38.666V369.513C38.8743 369.256 39.0632 369.068 39.2324 368.951C39.5221 368.753 39.8509 368.653 40.2188 368.653C40.6354 368.653 40.9707 368.756 41.2246 368.961C41.3678 369.078 41.498 369.251 41.6152 369.479C41.8105 369.199 42.04 368.992 42.3037 368.858C42.5674 368.722 42.8636 368.653 43.1924 368.653C43.8955 368.653 44.374 368.907 44.6279 369.415C44.7646 369.688 44.833 370.056 44.833 370.519V374H43.9199V370.367C43.9199 370.019 43.832 369.78 43.6562 369.649C43.4837 369.519 43.2721 369.454 43.0215 369.454C42.6764 369.454 42.3786 369.57 42.1279 369.801C41.8805 370.032 41.7568 370.418 41.7568 370.958V374H40.8633V370.587C40.8633 370.232 40.821 369.973 40.7363 369.811C40.6029 369.566 40.3538 369.444 39.9893 369.444C39.6572 369.444 39.3545 369.573 39.0811 369.83C38.8109 370.087 38.6758 370.553 38.6758 371.227V374H37.7969V368.771ZM46.0586 366.803H46.9131V369.405C47.1051 369.155 47.3346 368.964 47.6016 368.834C47.8685 368.701 48.1582 368.634 48.4707 368.634C49.1217 368.634 49.6491 368.858 50.0527 369.308C50.4596 369.754 50.6631 370.413 50.6631 371.285C50.6631 372.112 50.4629 372.799 50.0625 373.346C49.6621 373.893 49.1071 374.166 48.3975 374.166C48.0003 374.166 47.665 374.07 47.3916 373.878C47.2288 373.764 47.0547 373.582 46.8691 373.331V374H46.0586V366.803ZM48.3438 373.39C48.819 373.39 49.1738 373.201 49.4082 372.823C49.6458 372.446 49.7646 371.948 49.7646 371.329C49.7646 370.779 49.6458 370.323 49.4082 369.962C49.1738 369.601 48.8271 369.42 48.3682 369.42C47.9678 369.42 47.6162 369.568 47.3135 369.864C47.014 370.16 46.8643 370.649 46.8643 371.329C46.8643 371.821 46.9261 372.219 47.0498 372.525C47.2809 373.102 47.7122 373.39 48.3438 373.39ZM53.8711 368.653C54.2422 368.653 54.6019 368.741 54.9502 368.917C55.2985 369.09 55.5638 369.314 55.7461 369.591C55.9219 369.854 56.0391 370.162 56.0977 370.514C56.1497 370.755 56.1758 371.139 56.1758 371.666H52.3428C52.359 372.197 52.4844 372.623 52.7188 372.945C52.9531 373.264 53.3161 373.424 53.8076 373.424C54.2666 373.424 54.6328 373.272 54.9062 372.97C55.0625 372.794 55.1732 372.59 55.2383 372.359H56.1025C56.0798 372.551 56.0033 372.766 55.873 373.004C55.7461 373.238 55.6029 373.43 55.4434 373.58C55.1764 373.84 54.846 374.016 54.4521 374.107C54.2406 374.16 54.0013 374.186 53.7344 374.186C53.0833 374.186 52.5316 373.95 52.0791 373.478C51.6266 373.002 51.4004 372.338 51.4004 371.485C51.4004 370.646 51.6283 369.964 52.084 369.439C52.5397 368.915 53.1354 368.653 53.8711 368.653ZM55.2725 370.968C55.2367 370.587 55.1536 370.283 55.0234 370.055C54.7826 369.632 54.3805 369.42 53.8174 369.42C53.4137 369.42 53.0752 369.566 52.8018 369.859C52.5283 370.149 52.3835 370.519 52.3672 370.968H55.2725ZM57.2842 368.771H58.1191V369.674C58.1875 369.498 58.3551 369.285 58.6221 369.034C58.889 368.78 59.1966 368.653 59.5449 368.653C59.5612 368.653 59.5889 368.655 59.6279 368.658C59.667 368.661 59.7337 368.668 59.8281 368.678V369.605C59.776 369.596 59.7272 369.589 59.6816 369.586C59.6393 369.583 59.5921 369.581 59.54 369.581C59.0973 369.581 58.7572 369.724 58.5195 370.011C58.2819 370.294 58.1631 370.621 58.1631 370.992V374H57.2842V368.771ZM63.041 374C63.0736 373.398 63.1973 372.874 63.4121 372.428C63.6302 371.982 64.0534 371.576 64.6816 371.212L65.6191 370.67C66.0391 370.426 66.3337 370.217 66.5029 370.045C66.7699 369.775 66.9033 369.465 66.9033 369.117C66.9033 368.71 66.7812 368.388 66.5371 368.15C66.293 367.91 65.9674 367.789 65.5605 367.789C64.9583 367.789 64.5417 368.017 64.3105 368.473C64.1868 368.717 64.1185 369.055 64.1055 369.488H63.2119C63.2217 368.88 63.334 368.383 63.5488 367.999C63.9297 367.322 64.6019 366.983 65.5654 366.983C66.3662 366.983 66.9505 367.2 67.3184 367.633C67.6895 368.066 67.875 368.548 67.875 369.078C67.875 369.638 67.6781 370.117 67.2842 370.514C67.0563 370.745 66.6478 371.025 66.0586 371.354L65.3896 371.725C65.0706 371.9 64.82 372.068 64.6377 372.228C64.3122 372.511 64.1071 372.825 64.0225 373.17H67.8408V374H63.041ZM71 367.008C71.9049 367.008 72.5592 367.381 72.9629 368.126C73.2754 368.702 73.4316 369.492 73.4316 370.494C73.4316 371.445 73.29 372.231 73.0068 372.853C72.5967 373.744 71.9261 374.19 70.9951 374.19C70.1553 374.19 69.5303 373.826 69.1201 373.097C68.7783 372.488 68.6074 371.671 68.6074 370.646C68.6074 369.851 68.71 369.169 68.915 368.6C69.2992 367.538 69.9941 367.008 71 367.008ZM70.9902 373.39C71.446 373.39 71.8089 373.188 72.0791 372.784C72.3493 372.381 72.4844 371.629 72.4844 370.528C72.4844 369.734 72.3867 369.081 72.1914 368.57C71.9961 368.056 71.6169 367.799 71.0537 367.799C70.5361 367.799 70.1569 368.043 69.916 368.531C69.6784 369.016 69.5596 369.732 69.5596 370.68C69.5596 371.393 69.6361 371.965 69.7891 372.398C70.0234 373.059 70.4238 373.39 70.9902 373.39ZM74.1738 374C74.2064 373.398 74.3301 372.874 74.5449 372.428C74.763 371.982 75.1862 371.576 75.8145 371.212L76.752 370.67C77.1719 370.426 77.4665 370.217 77.6357 370.045C77.9027 369.775 78.0361 369.465 78.0361 369.117C78.0361 368.71 77.9141 368.388 77.6699 368.15C77.4258 367.91 77.1003 367.789 76.6934 367.789C76.0911 367.789 75.6745 368.017 75.4434 368.473C75.3197 368.717 75.2513 369.055 75.2383 369.488H74.3447C74.3545 368.88 74.4668 368.383 74.6816 367.999C75.0625 367.322 75.7347 366.983 76.6982 366.983C77.499 366.983 78.0833 367.2 78.4512 367.633C78.8223 368.066 79.0078 368.548 79.0078 369.078C79.0078 369.638 78.8109 370.117 78.417 370.514C78.1891 370.745 77.7806 371.025 77.1914 371.354L76.5225 371.725C76.2035 371.9 75.9528 372.068 75.7705 372.228C75.445 372.511 75.2399 372.825 75.1553 373.17H78.9736V374H74.1738ZM79.7402 374C79.7728 373.398 79.8965 372.874 80.1113 372.428C80.3294 371.982 80.7526 371.576 81.3809 371.212L82.3184 370.67C82.7383 370.426 83.0329 370.217 83.2021 370.045C83.4691 369.775 83.6025 369.465 83.6025 369.117C83.6025 368.71 83.4805 368.388 83.2363 368.15C82.9922 367.91 82.6667 367.789 82.2598 367.789C81.6576 367.789 81.2409 368.017 81.0098 368.473C80.8861 368.717 80.8177 369.055 80.8047 369.488H79.9111C79.9209 368.88 80.0332 368.383 80.248 367.999C80.6289 367.322 81.3011 366.983 82.2646 366.983C83.0654 366.983 83.6497 367.2 84.0176 367.633C84.3887 368.066 84.5742 368.548 84.5742 369.078C84.5742 369.638 84.3773 370.117 83.9834 370.514C83.7555 370.745 83.347 371.025 82.7578 371.354L82.0889 371.725C81.7699 371.9 81.5192 372.068 81.3369 372.228C81.0114 372.511 80.8063 372.825 80.7217 373.17H84.54V374H79.7402Z" fill="#EFEEEA"/>
<path d="M35.2822 481.861C35.2822 482.467 35.1927 482.937 35.0137 483.272C34.6816 483.884 34.0501 484.19 33.1191 484.19C32.582 484.19 32.123 484.046 31.7422 483.756C31.3613 483.463 31.1709 482.944 31.1709 482.198V481.686H32.084V482.198C32.084 482.589 32.1702 482.883 32.3428 483.082C32.5186 483.277 32.7904 483.375 33.1582 483.375C33.6758 483.375 34.0143 483.198 34.1738 482.843C34.2715 482.625 34.3203 482.213 34.3203 481.607V476.827H35.2822V481.861ZM37.3184 482.608C37.3184 482.862 37.4111 483.062 37.5967 483.209C37.7822 483.355 38.002 483.429 38.2559 483.429C38.5651 483.429 38.8646 483.357 39.1543 483.214C39.6426 482.976 39.8867 482.587 39.8867 482.047V481.339C39.7793 481.407 39.641 481.464 39.4717 481.51C39.3024 481.555 39.1364 481.588 38.9736 481.607L38.4414 481.676C38.1224 481.718 37.8831 481.785 37.7236 481.876C37.4535 482.029 37.3184 482.273 37.3184 482.608ZM39.4473 480.831C39.6491 480.805 39.7842 480.72 39.8525 480.577C39.8916 480.499 39.9111 480.387 39.9111 480.24C39.9111 479.941 39.8037 479.724 39.5889 479.591C39.3773 479.454 39.0729 479.386 38.6758 479.386C38.2168 479.386 37.8913 479.509 37.6992 479.757C37.5918 479.894 37.5218 480.097 37.4893 480.367H36.6689C36.6852 479.723 36.8936 479.275 37.2939 479.024C37.6976 478.771 38.1647 478.644 38.6953 478.644C39.3105 478.644 39.8102 478.761 40.1943 478.995C40.5752 479.229 40.7656 479.594 40.7656 480.089V483.102C40.7656 483.193 40.7835 483.266 40.8193 483.321C40.8584 483.377 40.9382 483.404 41.0586 483.404C41.0977 483.404 41.1416 483.403 41.1904 483.399C41.2393 483.393 41.2913 483.385 41.3467 483.375V484.024C41.21 484.063 41.1058 484.088 41.0342 484.098C40.9626 484.107 40.8649 484.112 40.7412 484.112C40.4385 484.112 40.2188 484.005 40.082 483.79C40.0104 483.676 39.96 483.515 39.9307 483.307C39.7516 483.541 39.4945 483.744 39.1592 483.917C38.8239 484.09 38.4544 484.176 38.0508 484.176C37.5658 484.176 37.1686 484.029 36.8594 483.736C36.5534 483.44 36.4004 483.071 36.4004 482.628C36.4004 482.143 36.5518 481.767 36.8545 481.5C37.1572 481.233 37.5544 481.069 38.0459 481.007L39.4473 480.831ZM42.2109 478.771H43.0459V479.513C43.2933 479.207 43.5553 478.987 43.832 478.854C44.1087 478.72 44.4163 478.653 44.7549 478.653C45.4971 478.653 45.9984 478.912 46.2588 479.43C46.402 479.713 46.4736 480.118 46.4736 480.646V484H45.5801V480.704C45.5801 480.385 45.5329 480.128 45.4385 479.933C45.2822 479.607 44.999 479.444 44.5889 479.444C44.3805 479.444 44.2096 479.465 44.0762 479.508C43.8353 479.579 43.6237 479.723 43.4414 479.938C43.2949 480.11 43.1989 480.289 43.1533 480.475C43.111 480.657 43.0898 480.919 43.0898 481.261V484H42.2109V478.771ZM48.6562 478.771V482.242C48.6562 482.509 48.6986 482.727 48.7832 482.896C48.9395 483.209 49.2308 483.365 49.6572 483.365C50.2692 483.365 50.6859 483.092 50.9072 482.545C51.0277 482.252 51.0879 481.85 51.0879 481.339V478.771H51.9668V484H51.1367L51.1465 483.229C51.0326 483.427 50.891 483.595 50.7217 483.731C50.3864 484.005 49.9795 484.142 49.501 484.142C48.7555 484.142 48.2477 483.893 47.9775 483.395C47.8311 483.128 47.7578 482.771 47.7578 482.325V478.771H48.6562ZM54.0176 482.608C54.0176 482.862 54.1104 483.062 54.2959 483.209C54.4814 483.355 54.7012 483.429 54.9551 483.429C55.2643 483.429 55.5638 483.357 55.8535 483.214C56.3418 482.976 56.5859 482.587 56.5859 482.047V481.339C56.4785 481.407 56.3402 481.464 56.1709 481.51C56.0016 481.555 55.8356 481.588 55.6729 481.607L55.1406 481.676C54.8216 481.718 54.5824 481.785 54.4229 481.876C54.1527 482.029 54.0176 482.273 54.0176 482.608ZM56.1465 480.831C56.3483 480.805 56.4834 480.72 56.5518 480.577C56.5908 480.499 56.6104 480.387 56.6104 480.24C56.6104 479.941 56.5029 479.724 56.2881 479.591C56.0765 479.454 55.7721 479.386 55.375 479.386C54.916 479.386 54.5905 479.509 54.3984 479.757C54.291 479.894 54.221 480.097 54.1885 480.367H53.3682C53.3844 479.723 53.5928 479.275 53.9932 479.024C54.3968 478.771 54.8639 478.644 55.3945 478.644C56.0098 478.644 56.5094 478.761 56.8936 478.995C57.2744 479.229 57.4648 479.594 57.4648 480.089V483.102C57.4648 483.193 57.4827 483.266 57.5186 483.321C57.5576 483.377 57.6374 483.404 57.7578 483.404C57.7969 483.404 57.8408 483.403 57.8896 483.399C57.9385 483.393 57.9906 483.385 58.0459 483.375V484.024C57.9092 484.063 57.805 484.088 57.7334 484.098C57.6618 484.107 57.5641 484.112 57.4404 484.112C57.1377 484.112 56.918 484.005 56.7812 483.79C56.7096 483.676 56.6592 483.515 56.6299 483.307C56.4508 483.541 56.1937 483.744 55.8584 483.917C55.5231 484.09 55.1536 484.176 54.75 484.176C54.265 484.176 53.8678 484.029 53.5586 483.736C53.2526 483.44 53.0996 483.071 53.0996 482.628C53.0996 482.143 53.251 481.767 53.5537 481.5C53.8564 481.233 54.2536 481.069 54.7451 481.007L56.1465 480.831ZM58.9346 478.771H59.7695V479.674C59.8379 479.498 60.0055 479.285 60.2725 479.034C60.5394 478.78 60.847 478.653 61.1953 478.653C61.2116 478.653 61.2393 478.655 61.2783 478.658C61.3174 478.661 61.3841 478.668 61.4785 478.678V479.605C61.4264 479.596 61.3776 479.589 61.332 479.586C61.2897 479.583 61.2425 479.581 61.1904 479.581C60.7477 479.581 60.4076 479.724 60.1699 480.011C59.9323 480.294 59.8135 480.621 59.8135 480.992V484H58.9346V478.771ZM64.6914 484C64.724 483.398 64.8477 482.874 65.0625 482.428C65.2806 481.982 65.7038 481.576 66.332 481.212L67.2695 480.67C67.6895 480.426 67.984 480.217 68.1533 480.045C68.4202 479.775 68.5537 479.465 68.5537 479.117C68.5537 478.71 68.4316 478.388 68.1875 478.15C67.9434 477.91 67.6178 477.789 67.2109 477.789C66.6087 477.789 66.1921 478.017 65.9609 478.473C65.8372 478.717 65.7689 479.055 65.7559 479.488H64.8623C64.8721 478.88 64.9844 478.383 65.1992 477.999C65.5801 477.322 66.2523 476.983 67.2158 476.983C68.0166 476.983 68.6009 477.2 68.9688 477.633C69.3398 478.066 69.5254 478.548 69.5254 479.078C69.5254 479.638 69.3285 480.117 68.9346 480.514C68.7067 480.745 68.2982 481.025 67.709 481.354L67.04 481.725C66.721 481.9 66.4704 482.068 66.2881 482.228C65.9626 482.511 65.7575 482.825 65.6729 483.17H69.4912V484H64.6914ZM72.6504 477.008C73.5553 477.008 74.2096 477.381 74.6133 478.126C74.9258 478.702 75.082 479.492 75.082 480.494C75.082 481.445 74.9404 482.231 74.6572 482.853C74.2471 483.744 73.5765 484.19 72.6455 484.19C71.8057 484.19 71.1807 483.826 70.7705 483.097C70.4287 482.488 70.2578 481.671 70.2578 480.646C70.2578 479.851 70.3604 479.169 70.5654 478.6C70.9495 477.538 71.6445 477.008 72.6504 477.008ZM72.6406 483.39C73.0964 483.39 73.4593 483.188 73.7295 482.784C73.9997 482.381 74.1348 481.629 74.1348 480.528C74.1348 479.734 74.0371 479.081 73.8418 478.57C73.6465 478.056 73.2673 477.799 72.7041 477.799C72.1865 477.799 71.8073 478.043 71.5664 478.531C71.3288 479.016 71.21 479.732 71.21 480.68C71.21 481.393 71.2865 481.965 71.4395 482.398C71.6738 483.059 72.0742 483.39 72.6406 483.39ZM75.8242 484C75.8568 483.398 75.9805 482.874 76.1953 482.428C76.4134 481.982 76.8366 481.576 77.4648 481.212L78.4023 480.67C78.8223 480.426 79.1169 480.217 79.2861 480.045C79.5531 479.775 79.6865 479.465 79.6865 479.117C79.6865 478.71 79.5645 478.388 79.3203 478.15C79.0762 477.91 78.7507 477.789 78.3438 477.789C77.7415 477.789 77.3249 478.017 77.0938 478.473C76.9701 478.717 76.9017 479.055 76.8887 479.488H75.9951C76.0049 478.88 76.1172 478.383 76.332 477.999C76.7129 477.322 77.3851 476.983 78.3486 476.983C79.1494 476.983 79.7337 477.2 80.1016 477.633C80.4727 478.066 80.6582 478.548 80.6582 479.078C80.6582 479.638 80.4613 480.117 80.0674 480.514C79.8395 480.745 79.431 481.025 78.8418 481.354L78.1729 481.725C77.8538 481.9 77.6032 482.068 77.4209 482.228C77.0954 482.511 76.8903 482.825 76.8057 483.17H80.624V484H75.8242ZM83.6758 484.19C82.849 484.19 82.2484 483.964 81.874 483.512C81.5029 483.056 81.3174 482.503 81.3174 481.852H82.2354C82.2744 482.304 82.359 482.633 82.4893 482.838C82.7171 483.206 83.1289 483.39 83.7246 483.39C84.1868 483.39 84.5579 483.266 84.8379 483.019C85.1178 482.771 85.2578 482.452 85.2578 482.062C85.2578 481.58 85.1097 481.243 84.8135 481.051C84.5205 480.859 84.112 480.763 83.5879 480.763C83.5293 480.763 83.4691 480.764 83.4072 480.768C83.3486 480.768 83.2884 480.769 83.2266 480.772V479.996C83.3177 480.006 83.3942 480.012 83.4561 480.016C83.5179 480.019 83.5846 480.021 83.6562 480.021C83.985 480.021 84.2552 479.968 84.4668 479.864C84.8379 479.682 85.0234 479.356 85.0234 478.888C85.0234 478.539 84.8997 478.271 84.6523 478.082C84.4049 477.893 84.1169 477.799 83.7881 477.799C83.2021 477.799 82.7969 477.994 82.5723 478.385C82.4486 478.6 82.3786 478.906 82.3623 479.303H81.4932C81.4932 478.782 81.5973 478.339 81.8057 477.975C82.1637 477.324 82.7936 476.998 83.6953 476.998C84.4082 476.998 84.96 477.158 85.3506 477.477C85.7412 477.792 85.9365 478.251 85.9365 478.854C85.9365 479.283 85.821 479.632 85.5898 479.898C85.4466 480.064 85.2611 480.195 85.0332 480.289C85.401 480.39 85.6875 480.585 85.8926 480.875C86.1009 481.161 86.2051 481.513 86.2051 481.93C86.2051 482.597 85.9854 483.141 85.5459 483.561C85.1064 483.98 84.4831 484.19 83.6758 484.19Z" fill="#EFEEEA"/>
<path d="M200.295 234.806H201.905V240.75L207.849 234.806H210.131L205.06 239.72L210.272 247H208.123L203.856 240.882L201.905 242.75V247H200.295V234.806ZM214.962 246.037C215.953 246.037 216.631 245.664 216.996 244.917C217.367 244.164 217.552 243.328 217.552 242.41C217.552 241.58 217.419 240.904 217.154 240.384C216.733 239.565 216.008 239.156 214.979 239.156C214.066 239.156 213.402 239.504 212.987 240.202C212.572 240.899 212.364 241.74 212.364 242.725C212.364 243.671 212.572 244.46 212.987 245.091C213.402 245.722 214.06 246.037 214.962 246.037ZM215.021 237.853C216.166 237.853 217.134 238.234 217.926 238.998C218.717 239.762 219.113 240.885 219.113 242.368C219.113 243.801 218.764 244.986 218.067 245.921C217.37 246.856 216.288 247.324 214.821 247.324C213.598 247.324 212.627 246.911 211.908 246.087C211.188 245.257 210.829 244.145 210.829 242.75C210.829 241.256 211.208 240.066 211.966 239.181C212.724 238.295 213.742 237.853 215.021 237.853ZM220.897 238.11H222.375V239.372C222.729 238.934 223.05 238.616 223.338 238.417C223.83 238.079 224.389 237.911 225.015 237.911C225.723 237.911 226.293 238.085 226.725 238.434C226.968 238.633 227.189 238.926 227.389 239.313C227.721 238.838 228.111 238.486 228.559 238.259C229.007 238.027 229.511 237.911 230.07 237.911C231.265 237.911 232.079 238.342 232.51 239.206C232.743 239.67 232.859 240.296 232.859 241.082V247H231.307V240.824C231.307 240.232 231.157 239.825 230.858 239.604C230.565 239.383 230.205 239.272 229.779 239.272C229.193 239.272 228.686 239.468 228.26 239.861C227.84 240.254 227.629 240.91 227.629 241.829V247H226.11V241.198C226.11 240.595 226.038 240.155 225.895 239.878C225.668 239.463 225.244 239.255 224.625 239.255C224.06 239.255 223.545 239.474 223.081 239.911C222.621 240.348 222.392 241.14 222.392 242.285V247H220.897V238.11ZM235.059 238.11H236.536V239.372C236.89 238.934 237.211 238.616 237.499 238.417C237.992 238.079 238.55 237.911 239.176 237.911C239.884 237.911 240.454 238.085 240.886 238.434C241.129 238.633 241.351 238.926 241.55 239.313C241.882 238.838 242.272 238.486 242.72 238.259C243.168 238.027 243.672 237.911 244.231 237.911C245.426 237.911 246.24 238.342 246.671 239.206C246.904 239.67 247.02 240.296 247.02 241.082V247H245.468V240.824C245.468 240.232 245.318 239.825 245.02 239.604C244.726 239.383 244.367 239.272 243.94 239.272C243.354 239.272 242.847 239.468 242.421 239.861C242.001 240.254 241.791 240.91 241.791 241.829V247H240.271V241.198C240.271 240.595 240.2 240.155 240.056 239.878C239.829 239.463 239.405 239.255 238.786 239.255C238.221 239.255 237.707 239.474 237.242 239.911C236.782 240.348 236.553 241.14 236.553 242.285V247H235.059V238.11ZM252.922 237.911C253.553 237.911 254.164 238.06 254.756 238.359C255.348 238.652 255.799 239.034 256.109 239.504C256.408 239.953 256.607 240.476 256.707 241.073C256.796 241.483 256.84 242.136 256.84 243.032H250.324C250.351 243.934 250.564 244.659 250.963 245.207C251.361 245.749 251.978 246.021 252.814 246.021C253.594 246.021 254.217 245.763 254.682 245.249C254.947 244.95 255.135 244.604 255.246 244.211H256.715C256.677 244.537 256.547 244.903 256.325 245.307C256.109 245.705 255.866 246.032 255.595 246.286C255.141 246.729 254.579 247.028 253.91 247.183C253.55 247.271 253.143 247.315 252.689 247.315C251.583 247.315 250.645 246.914 249.875 246.112C249.106 245.304 248.722 244.175 248.722 242.725C248.722 241.297 249.109 240.138 249.884 239.247C250.659 238.356 251.671 237.911 252.922 237.911ZM255.304 241.845C255.243 241.198 255.102 240.68 254.881 240.293C254.471 239.574 253.788 239.214 252.831 239.214C252.144 239.214 251.569 239.463 251.104 239.961C250.639 240.453 250.393 241.082 250.365 241.845H255.304ZM258.724 238.11H260.144V239.646C260.26 239.347 260.545 238.984 260.999 238.558C261.452 238.126 261.975 237.911 262.567 237.911C262.595 237.911 262.642 237.913 262.708 237.919C262.775 237.924 262.888 237.936 263.049 237.952V239.529C262.96 239.513 262.877 239.502 262.8 239.496C262.728 239.491 262.648 239.488 262.559 239.488C261.806 239.488 261.228 239.731 260.824 240.218C260.42 240.7 260.218 241.256 260.218 241.887V247H258.724V238.11ZM272.827 245.996C273.524 245.996 274.103 245.705 274.562 245.124C275.027 244.537 275.259 243.663 275.259 242.501C275.259 241.793 275.157 241.184 274.952 240.675C274.565 239.695 273.856 239.206 272.827 239.206C271.792 239.206 271.084 239.723 270.702 240.758C270.497 241.311 270.395 242.014 270.395 242.866C270.395 243.552 270.497 244.136 270.702 244.618C271.09 245.536 271.798 245.996 272.827 245.996ZM268.959 238.151H270.412V239.33C270.71 238.926 271.037 238.613 271.391 238.392C271.895 238.06 272.487 237.894 273.167 237.894C274.175 237.894 275.03 238.281 275.732 239.056C276.435 239.825 276.787 240.927 276.787 242.36C276.787 244.297 276.28 245.68 275.268 246.51C274.626 247.036 273.879 247.299 273.026 247.299C272.357 247.299 271.795 247.152 271.341 246.859C271.076 246.693 270.78 246.408 270.453 246.004V250.544H268.959V238.151ZM279.684 244.634C279.684 245.066 279.841 245.406 280.157 245.655C280.472 245.904 280.846 246.029 281.277 246.029C281.803 246.029 282.312 245.907 282.805 245.664C283.635 245.26 284.05 244.598 284.05 243.68V242.476C283.867 242.592 283.632 242.689 283.344 242.767C283.056 242.844 282.774 242.899 282.498 242.933L281.593 243.049C281.05 243.121 280.644 243.234 280.373 243.389C279.913 243.649 279.684 244.064 279.684 244.634ZM283.303 241.613C283.646 241.569 283.875 241.425 283.992 241.181C284.058 241.048 284.091 240.857 284.091 240.608C284.091 240.099 283.909 239.731 283.543 239.504C283.184 239.272 282.666 239.156 281.991 239.156C281.211 239.156 280.658 239.366 280.331 239.787C280.148 240.019 280.029 240.365 279.974 240.824H278.58C278.607 239.729 278.961 238.968 279.642 238.542C280.328 238.11 281.122 237.894 282.024 237.894C283.07 237.894 283.92 238.093 284.573 238.492C285.22 238.89 285.544 239.51 285.544 240.351V245.473C285.544 245.628 285.574 245.752 285.635 245.846C285.702 245.94 285.837 245.987 286.042 245.987C286.108 245.987 286.183 245.985 286.266 245.979C286.349 245.968 286.438 245.954 286.532 245.938V247.042C286.299 247.108 286.122 247.149 286 247.166C285.879 247.183 285.713 247.191 285.502 247.191C284.988 247.191 284.614 247.008 284.382 246.643C284.26 246.449 284.174 246.175 284.125 245.821C283.82 246.22 283.383 246.566 282.813 246.859C282.243 247.152 281.615 247.299 280.929 247.299C280.104 247.299 279.429 247.05 278.903 246.552C278.383 246.048 278.123 245.42 278.123 244.667C278.123 243.843 278.38 243.204 278.895 242.75C279.41 242.296 280.085 242.017 280.92 241.912L283.303 241.613ZM282.265 236.284C282.553 236.284 282.799 236.181 283.004 235.977C283.209 235.772 283.311 235.526 283.311 235.238C283.311 234.95 283.209 234.704 283.004 234.499C282.799 234.294 282.553 234.192 282.265 234.192C281.983 234.192 281.739 234.294 281.535 234.499C281.33 234.704 281.228 234.95 281.228 235.238C281.228 235.526 281.33 235.772 281.535 235.977C281.739 236.181 281.983 236.284 282.265 236.284ZM282.265 233.503C282.741 233.503 283.148 233.674 283.485 234.018C283.828 234.355 284 234.762 284 235.238C284 235.714 283.828 236.123 283.485 236.466C283.148 236.804 282.741 236.973 282.265 236.973C281.789 236.973 281.382 236.804 281.045 236.466C280.707 236.123 280.539 235.714 280.539 235.238C280.539 234.762 280.707 234.355 281.045 234.018C281.382 233.674 281.789 233.503 282.265 233.503ZM294.227 236.533H292.732V234.806H294.227V236.533ZM291.321 249.25C291.991 249.227 292.392 249.167 292.525 249.067C292.663 248.973 292.732 248.671 292.732 248.162V238.151H294.227V248.32C294.227 248.967 294.121 249.451 293.911 249.772C293.562 250.315 292.901 250.586 291.927 250.586C291.855 250.586 291.778 250.583 291.695 250.578C291.617 250.572 291.493 250.561 291.321 250.544V249.25ZM300.045 246.037C301.036 246.037 301.714 245.664 302.079 244.917C302.45 244.164 302.635 243.328 302.635 242.41C302.635 241.58 302.502 240.904 302.237 240.384C301.816 239.565 301.091 239.156 300.062 239.156C299.149 239.156 298.485 239.504 298.07 240.202C297.655 240.899 297.447 241.74 297.447 242.725C297.447 243.671 297.655 244.46 298.07 245.091C298.485 245.722 299.143 246.037 300.045 246.037ZM300.104 237.853C301.249 237.853 302.217 238.234 303.009 238.998C303.8 239.762 304.196 240.885 304.196 242.368C304.196 243.801 303.847 244.986 303.15 245.921C302.453 246.856 301.371 247.324 299.904 247.324C298.681 247.324 297.71 246.911 296.991 246.087C296.271 245.257 295.912 244.145 295.912 242.75C295.912 241.256 296.291 240.066 297.049 239.181C297.807 238.295 298.825 237.853 300.104 237.853ZM305.864 234.765H307.317V239.189C307.643 238.763 308.034 238.439 308.487 238.218C308.941 237.991 309.434 237.877 309.965 237.877C311.072 237.877 311.968 238.259 312.654 239.023C313.346 239.781 313.692 240.902 313.692 242.385C313.692 243.79 313.352 244.958 312.671 245.888C311.99 246.817 311.047 247.282 309.84 247.282C309.165 247.282 308.595 247.119 308.13 246.792C307.854 246.599 307.558 246.289 307.242 245.863V247H305.864V234.765ZM309.749 245.962C310.557 245.962 311.16 245.641 311.559 245C311.963 244.358 312.165 243.511 312.165 242.459C312.165 241.524 311.963 240.75 311.559 240.135C311.16 239.521 310.571 239.214 309.791 239.214C309.11 239.214 308.512 239.466 307.998 239.969C307.488 240.473 307.234 241.303 307.234 242.459C307.234 243.295 307.339 243.973 307.549 244.493C307.942 245.473 308.675 245.962 309.749 245.962ZM318.872 237.853C319.873 237.853 320.687 238.096 321.312 238.583C321.943 239.07 322.322 239.908 322.449 241.098H320.997C320.908 240.55 320.706 240.097 320.391 239.737C320.075 239.372 319.569 239.189 318.872 239.189C317.92 239.189 317.239 239.654 316.83 240.583C316.564 241.187 316.431 241.931 316.431 242.816C316.431 243.707 316.619 244.457 316.996 245.066C317.372 245.675 317.964 245.979 318.772 245.979C319.392 245.979 319.882 245.791 320.241 245.415C320.606 245.033 320.858 244.513 320.997 243.854H322.449C322.283 245.033 321.868 245.896 321.204 246.444C320.54 246.986 319.691 247.257 318.656 247.257C317.494 247.257 316.567 246.834 315.875 245.987C315.183 245.135 314.837 244.073 314.837 242.8C314.837 241.239 315.216 240.025 315.975 239.156C316.733 238.287 317.698 237.853 318.872 237.853ZM327.646 237.911C328.276 237.911 328.888 238.06 329.48 238.359C330.072 238.652 330.523 239.034 330.833 239.504C331.132 239.953 331.331 240.476 331.431 241.073C331.519 241.483 331.563 242.136 331.563 243.032H325.047C325.075 243.934 325.288 244.659 325.687 245.207C326.085 245.749 326.702 246.021 327.538 246.021C328.318 246.021 328.94 245.763 329.405 245.249C329.671 244.95 329.859 244.604 329.97 244.211H331.439C331.4 244.537 331.27 244.903 331.049 245.307C330.833 245.705 330.59 246.032 330.318 246.286C329.865 246.729 329.303 247.028 328.633 247.183C328.274 247.271 327.867 247.315 327.413 247.315C326.306 247.315 325.368 246.914 324.599 246.112C323.83 245.304 323.445 244.175 323.445 242.725C323.445 241.297 323.833 240.138 324.607 239.247C325.382 238.356 326.395 237.911 327.646 237.911ZM330.028 241.845C329.967 241.198 329.826 240.68 329.604 240.293C329.195 239.574 328.512 239.214 327.554 239.214C326.868 239.214 326.292 239.463 325.828 239.961C325.363 240.453 325.117 241.082 325.089 241.845H330.028ZM333.406 238.11H334.826V239.372C335.246 238.851 335.692 238.478 336.162 238.251C336.632 238.024 337.155 237.911 337.731 237.911C338.993 237.911 339.845 238.351 340.288 239.23C340.531 239.712 340.653 240.401 340.653 241.297V247H339.134V241.397C339.134 240.855 339.054 240.417 338.893 240.085C338.627 239.532 338.146 239.255 337.449 239.255C337.095 239.255 336.804 239.291 336.577 239.363C336.168 239.485 335.808 239.729 335.498 240.094C335.249 240.387 335.086 240.691 335.008 241.007C334.936 241.317 334.9 241.762 334.9 242.343V247H333.406V238.11ZM343.168 235.628H344.679V238.11H346.098V239.33H344.679V245.132C344.679 245.442 344.784 245.65 344.994 245.755C345.11 245.816 345.304 245.846 345.575 245.846C345.647 245.846 345.725 245.846 345.808 245.846C345.891 245.841 345.987 245.832 346.098 245.821V247C345.927 247.05 345.747 247.086 345.559 247.108C345.376 247.13 345.177 247.141 344.961 247.141C344.264 247.141 343.791 246.964 343.542 246.61C343.292 246.25 343.168 245.785 343.168 245.215V239.33H341.964V238.11H343.168V235.628ZM347.642 238.11H349.062V239.646C349.178 239.347 349.463 238.984 349.917 238.558C350.37 238.126 350.893 237.911 351.485 237.911C351.513 237.911 351.56 237.913 351.626 237.919C351.693 237.924 351.806 237.936 351.967 237.952V239.529C351.878 239.513 351.795 239.502 351.718 239.496C351.646 239.491 351.566 239.488 351.477 239.488C350.724 239.488 350.146 239.731 349.742 240.218C349.338 240.7 349.136 241.256 349.136 241.887V247H347.642V238.11ZM356.964 237.911C357.595 237.911 358.206 238.06 358.798 238.359C359.39 238.652 359.841 239.034 360.151 239.504C360.45 239.953 360.649 240.476 360.749 241.073C360.838 241.483 360.882 242.136 360.882 243.032H354.366C354.393 243.934 354.606 244.659 355.005 245.207C355.403 245.749 356.02 246.021 356.856 246.021C357.636 246.021 358.259 245.763 358.724 245.249C358.989 244.95 359.177 244.604 359.288 244.211H360.757C360.719 244.537 360.589 244.903 360.367 245.307C360.151 245.705 359.908 246.032 359.637 246.286C359.183 246.729 358.621 247.028 357.952 247.183C357.592 247.271 357.185 247.315 356.731 247.315C355.625 247.315 354.687 246.914 353.917 246.112C353.148 245.304 352.764 244.175 352.764 242.725C352.764 241.297 353.151 240.138 353.926 239.247C354.701 238.356 355.713 237.911 356.964 237.911ZM359.346 241.845C359.285 241.198 359.144 240.68 358.923 240.293C358.513 239.574 357.83 239.214 356.873 239.214C356.186 239.214 355.611 239.463 355.146 239.961C354.681 240.453 354.435 241.082 354.407 241.845H359.346ZM363.023 235.628H364.534V238.11H365.954V239.33H364.534V245.132C364.534 245.442 364.639 245.65 364.85 245.755C364.966 245.816 365.16 245.846 365.431 245.846C365.503 245.846 365.58 245.846 365.663 245.846C365.746 245.841 365.843 245.832 365.954 245.821V247C365.782 247.05 365.602 247.086 365.414 247.108C365.231 247.13 365.032 247.141 364.816 247.141C364.119 247.141 363.646 246.964 363.397 246.61C363.148 246.25 363.023 245.785 363.023 245.215V239.33H361.82V238.11H363.023V235.628Z" fill="#EFEEEA"/>
<path d="M159.554 359.003L157.703 353.616L155.735 359.003H159.554ZM156.839 351.806H158.707L163.131 364H161.322L160.085 360.348H155.262L153.942 364H152.249L156.839 351.806ZM164.435 355.11H165.854V356.372C166.275 355.851 166.72 355.478 167.19 355.251C167.661 355.024 168.184 354.911 168.759 354.911C170.021 354.911 170.873 355.351 171.316 356.23C171.559 356.712 171.681 357.401 171.681 358.297V364H170.162V358.397C170.162 357.855 170.082 357.417 169.921 357.085C169.656 356.532 169.174 356.255 168.477 356.255C168.123 356.255 167.832 356.291 167.605 356.363C167.196 356.485 166.836 356.729 166.526 357.094C166.277 357.387 166.114 357.691 166.037 358.007C165.965 358.317 165.929 358.762 165.929 359.343V364H164.435V355.11ZM174.786 361.211C174.83 361.709 174.954 362.091 175.159 362.356C175.535 362.838 176.188 363.079 177.118 363.079C177.672 363.079 178.159 362.96 178.579 362.722C179 362.478 179.21 362.105 179.21 361.601C179.21 361.219 179.041 360.929 178.704 360.729C178.488 360.608 178.062 360.467 177.425 360.306L176.238 360.007C175.48 359.819 174.921 359.609 174.562 359.376C173.92 358.972 173.599 358.414 173.599 357.7C173.599 356.859 173.9 356.178 174.503 355.658C175.112 355.138 175.928 354.877 176.952 354.877C178.291 354.877 179.257 355.27 179.849 356.056C180.22 356.554 180.4 357.091 180.389 357.667H178.978C178.95 357.329 178.831 357.022 178.621 356.745C178.278 356.352 177.683 356.156 176.836 356.156C176.271 356.156 175.843 356.264 175.549 356.479C175.262 356.695 175.118 356.98 175.118 357.334C175.118 357.722 175.309 358.032 175.69 358.264C175.912 358.403 176.238 358.524 176.67 358.629L177.658 358.87C178.731 359.13 179.451 359.382 179.816 359.625C180.397 360.007 180.688 360.608 180.688 361.427C180.688 362.218 180.386 362.902 179.783 363.477C179.185 364.053 178.272 364.34 177.043 364.34C175.721 364.34 174.783 364.042 174.229 363.444C173.682 362.841 173.388 362.096 173.35 361.211H174.786ZM194.11 358.845C194.093 357.976 193.853 357.321 193.388 356.878C192.928 356.43 192.367 356.206 191.703 356.206C191.039 356.206 190.466 356.43 189.984 356.878C189.503 357.321 189.237 357.976 189.188 358.845H194.11ZM187.793 359.476C187.655 359.57 187.519 359.645 187.386 359.7C187.253 359.75 187.018 359.803 186.681 359.858L185.411 360.049C184.796 360.148 184.356 360.273 184.091 360.422C183.654 360.677 183.435 361.075 183.435 361.618C183.435 362.083 183.609 362.439 183.958 362.688C184.312 362.938 184.727 363.062 185.203 363.062C185.474 363.062 185.79 362.993 186.149 362.854C186.509 362.716 186.841 362.503 187.146 362.215C187.417 361.961 187.594 361.701 187.677 361.435C187.727 361.269 187.765 360.99 187.793 360.597V359.476ZM186.988 358.613C187.27 358.574 187.48 358.474 187.619 358.314C187.757 358.153 187.826 357.927 187.826 357.633C187.826 357.157 187.671 356.795 187.361 356.546C187.051 356.297 186.556 356.172 185.875 356.172C185.322 356.172 184.879 356.261 184.547 356.438C183.994 356.764 183.717 357.235 183.717 357.849H182.281C182.337 356.598 182.826 355.743 183.75 355.284C184.282 355.024 185.012 354.894 185.942 354.894C186.678 354.894 187.309 355.03 187.834 355.301C188.277 355.539 188.615 355.849 188.847 356.23C189.174 355.804 189.58 355.475 190.067 355.243C190.56 355.01 191.113 354.894 191.728 354.894C192.375 354.894 192.973 355.01 193.521 355.243C194.068 355.47 194.525 355.851 194.89 356.388C195.217 356.831 195.432 357.343 195.538 357.924C195.648 358.499 195.704 359.202 195.704 360.032H189.171C189.199 360.951 189.425 361.679 189.852 362.215C190.278 362.752 190.875 363.021 191.645 363.021C192.364 363.021 192.912 362.863 193.288 362.547C193.664 362.232 193.924 361.786 194.068 361.211H195.579C195.529 361.654 195.344 362.11 195.023 362.581C194.702 363.045 194.364 363.394 194.01 363.626C193.623 363.881 193.227 364.055 192.823 364.149C192.425 364.249 192.013 364.299 191.586 364.299C190.773 364.299 190.054 364.089 189.428 363.668C188.853 363.242 188.485 362.821 188.324 362.406C187.87 363.076 187.353 363.56 186.772 363.859C186.196 364.152 185.571 364.299 184.896 364.299C183.944 364.299 183.208 364.061 182.688 363.585C182.168 363.109 181.908 362.495 181.908 361.742C181.908 360.757 182.243 360.021 182.912 359.534C183.338 359.224 183.908 359.022 184.622 358.928L186.988 358.613ZM197.82 352.628H199.331V355.11H200.75V356.33H199.331V362.132C199.331 362.442 199.436 362.65 199.646 362.755C199.763 362.816 199.956 362.846 200.228 362.846C200.299 362.846 200.377 362.846 200.46 362.846C200.543 362.841 200.64 362.832 200.75 362.821V364C200.579 364.05 200.399 364.086 200.211 364.108C200.028 364.13 199.829 364.141 199.613 364.141C198.916 364.141 198.443 363.964 198.194 363.61C197.945 363.25 197.82 362.785 197.82 362.215V356.33H196.617V355.11H197.82V352.628ZM202.552 352.628H204.062V355.11H205.482V356.33H204.062V362.132C204.062 362.442 204.168 362.65 204.378 362.755C204.494 362.816 204.688 362.846 204.959 362.846C205.031 362.846 205.108 362.846 205.191 362.846C205.274 362.841 205.371 362.832 205.482 362.821V364C205.31 364.05 205.131 364.086 204.942 364.108C204.76 364.13 204.561 364.141 204.345 364.141C203.647 364.141 203.174 363.964 202.925 363.61C202.676 363.25 202.552 362.785 202.552 362.215V356.33H201.348V355.11H202.552V352.628ZM210.687 354.911C211.317 354.911 211.929 355.06 212.521 355.359C213.113 355.652 213.564 356.034 213.874 356.504C214.173 356.953 214.372 357.476 214.472 358.073C214.56 358.483 214.604 359.136 214.604 360.032H208.088C208.116 360.934 208.329 361.659 208.728 362.207C209.126 362.749 209.743 363.021 210.579 363.021C211.359 363.021 211.981 362.763 212.446 362.249C212.712 361.95 212.9 361.604 213.011 361.211H214.48C214.441 361.537 214.311 361.903 214.09 362.307C213.874 362.705 213.631 363.032 213.359 363.286C212.906 363.729 212.344 364.028 211.674 364.183C211.315 364.271 210.908 364.315 210.454 364.315C209.347 364.315 208.409 363.914 207.64 363.112C206.871 362.304 206.486 361.175 206.486 359.725C206.486 358.297 206.874 357.138 207.648 356.247C208.423 355.356 209.436 354.911 210.687 354.911ZM213.069 358.845C213.008 358.198 212.867 357.68 212.646 357.293C212.236 356.574 211.553 356.214 210.595 356.214C209.909 356.214 209.333 356.463 208.869 356.961C208.404 357.453 208.158 358.082 208.13 358.845H213.069ZM217.335 361.211C217.38 361.709 217.504 362.091 217.709 362.356C218.085 362.838 218.738 363.079 219.668 363.079C220.221 363.079 220.708 362.96 221.129 362.722C221.549 362.478 221.76 362.105 221.76 361.601C221.76 361.219 221.591 360.929 221.253 360.729C221.038 360.608 220.611 360.467 219.975 360.306L218.788 360.007C218.03 359.819 217.471 359.609 217.111 359.376C216.469 358.972 216.148 358.414 216.148 357.7C216.148 356.859 216.45 356.178 217.053 355.658C217.662 355.138 218.478 354.877 219.502 354.877C220.841 354.877 221.807 355.27 222.399 356.056C222.77 356.554 222.95 357.091 222.938 357.667H221.527C221.5 357.329 221.381 357.022 221.17 356.745C220.827 356.352 220.232 356.156 219.386 356.156C218.821 356.156 218.392 356.264 218.099 356.479C217.811 356.695 217.667 356.98 217.667 357.334C217.667 357.722 217.858 358.032 218.24 358.264C218.462 358.403 218.788 358.524 219.22 358.629L220.208 358.87C221.281 359.13 222 359.382 222.366 359.625C222.947 360.007 223.237 360.608 223.237 361.427C223.237 362.218 222.936 362.902 222.333 363.477C221.735 364.053 220.822 364.34 219.593 364.34C218.271 364.34 217.333 364.042 216.779 363.444C216.231 362.841 215.938 362.096 215.899 361.211H217.335ZM229.679 351.765H231.173V356.313C231.527 355.865 231.845 355.55 232.127 355.367C232.609 355.052 233.209 354.894 233.929 354.894C235.218 354.894 236.092 355.345 236.552 356.247C236.801 356.74 236.925 357.423 236.925 358.297V364H235.39V358.397C235.39 357.744 235.307 357.265 235.141 356.961C234.869 356.474 234.36 356.23 233.613 356.23C232.993 356.23 232.432 356.444 231.928 356.87C231.425 357.296 231.173 358.101 231.173 359.285V364H229.679V351.765ZM242.669 363.037C243.66 363.037 244.338 362.664 244.703 361.917C245.074 361.164 245.259 360.328 245.259 359.41C245.259 358.58 245.126 357.904 244.861 357.384C244.44 356.565 243.715 356.156 242.686 356.156C241.773 356.156 241.109 356.504 240.694 357.202C240.279 357.899 240.071 358.74 240.071 359.725C240.071 360.671 240.279 361.46 240.694 362.091C241.109 362.722 241.767 363.037 242.669 363.037ZM242.728 354.853C243.873 354.853 244.841 355.234 245.633 355.998C246.424 356.762 246.82 357.885 246.82 359.368C246.82 360.801 246.471 361.986 245.774 362.921C245.077 363.856 243.995 364.324 242.528 364.324C241.305 364.324 240.334 363.911 239.615 363.087C238.895 362.257 238.536 361.145 238.536 359.75C238.536 358.256 238.915 357.066 239.673 356.181C240.431 355.295 241.449 354.853 242.728 354.853ZM249.493 361.211C249.537 361.709 249.661 362.091 249.866 362.356C250.243 362.838 250.896 363.079 251.825 363.079C252.379 363.079 252.866 362.96 253.286 362.722C253.707 362.478 253.917 362.105 253.917 361.601C253.917 361.219 253.748 360.929 253.411 360.729C253.195 360.608 252.769 360.467 252.132 360.306L250.945 360.007C250.187 359.819 249.628 359.609 249.269 359.376C248.627 358.972 248.306 358.414 248.306 357.7C248.306 356.859 248.607 356.178 249.21 355.658C249.819 355.138 250.635 354.877 251.659 354.877C252.998 354.877 253.964 355.27 254.556 356.056C254.927 356.554 255.107 357.091 255.096 357.667H253.685C253.657 357.329 253.538 357.022 253.328 356.745C252.985 356.352 252.39 356.156 251.543 356.156C250.979 356.156 250.55 356.264 250.256 356.479C249.969 356.695 249.825 356.98 249.825 357.334C249.825 357.722 250.016 358.032 250.397 358.264C250.619 358.403 250.945 358.524 251.377 358.629L252.365 358.87C253.438 359.13 254.158 359.382 254.523 359.625C255.104 360.007 255.395 360.608 255.395 361.427C255.395 362.218 255.093 362.902 254.49 363.477C253.892 364.053 252.979 364.34 251.75 364.34C250.428 364.34 249.49 364.042 248.937 363.444C248.389 362.841 248.095 362.096 248.057 361.211H249.493ZM262.409 351.806H264.077V364H262.409V351.806ZM275.64 351.806V353.259H271.531V364H269.854V353.259H265.746V351.806H275.64ZM277.118 351.806H279.483L282.986 362.116L286.464 351.806H288.805V364H287.236V356.803C287.236 356.554 287.242 356.142 287.253 355.566C287.264 354.991 287.27 354.374 287.27 353.715L283.792 364H282.156L278.653 353.715V354.089C278.653 354.388 278.659 354.844 278.67 355.458C278.687 356.067 278.695 356.515 278.695 356.803V364H277.118V351.806ZM292.283 351.806L295.786 362.19L299.248 351.806H301.099L296.649 364H294.898L290.457 351.806H292.283Z" fill="#EFEEEA"/>
<path d="M175.374 466.065C175.413 466.757 175.576 467.319 175.864 467.75C176.412 468.558 177.377 468.962 178.761 468.962C179.381 468.962 179.945 468.874 180.454 468.697C181.439 468.354 181.932 467.739 181.932 466.854C181.932 466.19 181.724 465.717 181.309 465.435C180.889 465.158 180.23 464.917 179.333 464.712L177.682 464.339C176.603 464.095 175.839 463.827 175.391 463.534C174.616 463.025 174.229 462.264 174.229 461.251C174.229 460.155 174.608 459.256 175.366 458.553C176.124 457.85 177.197 457.499 178.586 457.499C179.865 457.499 180.949 457.809 181.84 458.429C182.737 459.043 183.185 460.028 183.185 461.384H181.633C181.55 460.731 181.373 460.23 181.102 459.881C180.598 459.245 179.743 458.927 178.537 458.927C177.563 458.927 176.863 459.132 176.437 459.541C176.01 459.951 175.797 460.426 175.797 460.969C175.797 461.566 176.046 462.004 176.544 462.28C176.871 462.457 177.61 462.679 178.761 462.944L180.471 463.334C181.295 463.523 181.932 463.78 182.38 464.106C183.155 464.676 183.542 465.504 183.542 466.588C183.542 467.939 183.049 468.904 182.064 469.485C181.085 470.066 179.945 470.357 178.645 470.357C177.128 470.357 175.941 469.97 175.083 469.195C174.226 468.426 173.805 467.382 173.822 466.065H175.374ZM190.988 461.11H192.64C192.429 461.68 191.962 462.98 191.237 465.011C190.694 466.539 190.241 467.784 189.875 468.747C189.012 471.015 188.403 472.399 188.049 472.897C187.695 473.395 187.086 473.644 186.223 473.644C186.013 473.644 185.85 473.636 185.733 473.619C185.623 473.603 185.484 473.572 185.318 473.528V472.167C185.578 472.238 185.767 472.283 185.883 472.299C185.999 472.316 186.101 472.324 186.19 472.324C186.467 472.324 186.669 472.277 186.796 472.183C186.929 472.095 187.039 471.984 187.128 471.851C187.156 471.807 187.255 471.58 187.427 471.17C187.598 470.761 187.723 470.457 187.8 470.257L184.513 461.11H186.207L188.589 468.348L190.988 461.11ZM197.637 460.911C198.268 460.911 198.879 461.06 199.471 461.359C200.063 461.652 200.514 462.034 200.824 462.504C201.123 462.953 201.322 463.476 201.422 464.073C201.51 464.483 201.555 465.136 201.555 466.032H195.039C195.066 466.934 195.279 467.659 195.678 468.207C196.076 468.749 196.693 469.021 197.529 469.021C198.309 469.021 198.932 468.763 199.396 468.249C199.662 467.95 199.85 467.604 199.961 467.211H201.43C201.391 467.537 201.261 467.903 201.04 468.307C200.824 468.705 200.581 469.032 200.31 469.286C199.856 469.729 199.294 470.028 198.625 470.183C198.265 470.271 197.858 470.315 197.404 470.315C196.298 470.315 195.36 469.914 194.59 469.112C193.821 468.304 193.437 467.175 193.437 465.725C193.437 464.297 193.824 463.138 194.599 462.247C195.373 461.356 196.386 460.911 197.637 460.911ZM200.019 464.845C199.958 464.198 199.817 463.68 199.596 463.293C199.186 462.574 198.503 462.214 197.545 462.214C196.859 462.214 196.284 462.463 195.819 462.961C195.354 463.453 195.108 464.082 195.08 464.845H200.019ZM203.439 461.11H204.858V462.646C204.975 462.347 205.26 461.984 205.713 461.558C206.167 461.126 206.69 460.911 207.282 460.911C207.31 460.911 207.357 460.913 207.423 460.919C207.49 460.924 207.603 460.936 207.764 460.952V462.529C207.675 462.513 207.592 462.502 207.515 462.496C207.443 462.491 207.362 462.488 207.274 462.488C206.521 462.488 205.943 462.731 205.539 463.218C205.135 463.7 204.933 464.256 204.933 464.887V470H203.439V461.11ZM214.678 467.211C214.722 467.709 214.847 468.091 215.052 468.356C215.428 468.838 216.081 469.079 217.011 469.079C217.564 469.079 218.051 468.96 218.472 468.722C218.892 468.478 219.103 468.105 219.103 467.601C219.103 467.219 218.934 466.929 218.596 466.729C218.38 466.608 217.954 466.467 217.318 466.306L216.131 466.007C215.373 465.819 214.814 465.609 214.454 465.376C213.812 464.972 213.491 464.414 213.491 463.7C213.491 462.859 213.793 462.178 214.396 461.658C215.005 461.138 215.821 460.877 216.845 460.877C218.184 460.877 219.15 461.27 219.742 462.056C220.112 462.554 220.292 463.091 220.281 463.667H218.87C218.842 463.329 218.723 463.022 218.513 462.745C218.17 462.352 217.575 462.156 216.729 462.156C216.164 462.156 215.735 462.264 215.442 462.479C215.154 462.695 215.01 462.98 215.01 463.334C215.01 463.722 215.201 464.032 215.583 464.264C215.804 464.403 216.131 464.524 216.562 464.629L217.55 464.87C218.624 465.13 219.343 465.382 219.708 465.625C220.29 466.007 220.58 466.608 220.58 467.427C220.58 468.218 220.278 468.902 219.675 469.477C219.078 470.053 218.165 470.34 216.936 470.34C215.613 470.34 214.675 470.042 214.122 469.444C213.574 468.841 213.281 468.096 213.242 467.211H214.678ZM222.29 461.151H223.809V470H222.29V461.151ZM222.29 457.806H223.809V459.5H222.29V457.806ZM226.374 458.628H227.885V461.11H229.304V462.33H227.885V468.132C227.885 468.442 227.99 468.65 228.2 468.755C228.316 468.816 228.51 468.846 228.781 468.846C228.853 468.846 228.931 468.846 229.014 468.846C229.097 468.841 229.194 468.832 229.304 468.821V470C229.133 470.05 228.953 470.086 228.765 470.108C228.582 470.13 228.383 470.141 228.167 470.141C227.47 470.141 226.997 469.964 226.748 469.61C226.499 469.25 226.374 468.785 226.374 468.215V462.33H225.17V461.11H226.374V458.628ZM235.912 459.757C235.934 459.137 236.042 458.683 236.235 458.396C236.584 457.886 237.256 457.632 238.252 457.632C238.347 457.632 238.443 457.635 238.543 457.64C238.643 457.646 238.756 457.654 238.883 457.665V459.026C238.728 459.015 238.615 459.01 238.543 459.01C238.477 459.004 238.413 459.001 238.352 459.001C237.898 459.001 237.627 459.12 237.539 459.358C237.45 459.591 237.406 460.188 237.406 461.151H238.883V462.33H237.389V470H235.912V462.33H234.675V461.151H235.912V459.757ZM246.196 463.002C246.041 462.764 245.792 462.565 245.449 462.405C245.106 462.239 244.724 462.156 244.304 462.156C243.501 462.156 242.857 462.493 242.37 463.168C241.888 463.838 241.647 464.701 241.647 465.758C241.647 466.157 241.689 466.539 241.772 466.904C241.822 467.109 241.905 467.369 242.021 467.684L246.196 463.002ZM242.395 468.232C242.666 468.547 242.959 468.76 243.274 468.871C243.59 468.982 243.911 469.037 244.237 469.037C245.283 469.037 246.025 468.545 246.462 467.56C246.728 466.967 246.86 466.287 246.86 465.518C246.86 465.02 246.819 464.591 246.736 464.231C246.692 464.037 246.617 463.81 246.512 463.55L242.395 468.232ZM239.938 469.967L241 468.846C240.723 468.437 240.51 467.977 240.361 467.468C240.211 466.959 240.137 466.356 240.137 465.659C240.137 464.403 240.485 463.287 241.183 462.313C241.885 461.334 242.906 460.844 244.246 460.844C244.943 460.844 245.554 460.972 246.08 461.226C246.39 461.375 246.744 461.619 247.143 461.957L248.18 460.778L248.612 461.193L247.549 462.388C247.898 462.897 248.147 463.481 248.296 464.14C248.39 464.566 248.438 464.992 248.438 465.418C248.438 466.846 248.053 468.024 247.284 468.954C246.514 469.878 245.491 470.34 244.212 470.34C243.604 470.34 243.061 470.249 242.585 470.066C242.11 469.889 241.725 469.646 241.432 469.336L240.427 470.398L239.938 469.967ZM250.704 461.11H252.123V462.646C252.239 462.347 252.524 461.984 252.978 461.558C253.432 461.126 253.955 460.911 254.547 460.911C254.575 460.911 254.622 460.913 254.688 460.919C254.754 460.924 254.868 460.936 255.028 460.952V462.529C254.94 462.513 254.857 462.502 254.779 462.496C254.707 462.491 254.627 462.488 254.539 462.488C253.786 462.488 253.208 462.731 252.804 463.218C252.4 463.7 252.198 464.256 252.198 464.887V470H250.704V461.11ZM257.211 467.211C257.256 467.709 257.38 468.091 257.585 468.356C257.961 468.838 258.614 469.079 259.544 469.079C260.097 469.079 260.584 468.96 261.005 468.722C261.425 468.478 261.636 468.105 261.636 467.601C261.636 467.219 261.467 466.929 261.129 466.729C260.914 466.608 260.487 466.467 259.851 466.306L258.664 466.007C257.906 465.819 257.347 465.609 256.987 465.376C256.345 464.972 256.024 464.414 256.024 463.7C256.024 462.859 256.326 462.178 256.929 461.658C257.538 461.138 258.354 460.877 259.378 460.877C260.717 460.877 261.683 461.27 262.275 462.056C262.646 462.554 262.826 463.091 262.814 463.667H261.403C261.376 463.329 261.257 463.022 261.046 462.745C260.703 462.352 260.108 462.156 259.262 462.156C258.697 462.156 258.268 462.264 257.975 462.479C257.687 462.695 257.543 462.98 257.543 463.334C257.543 463.722 257.734 464.032 258.116 464.264C258.338 464.403 258.664 464.524 259.096 464.629L260.083 464.87C261.157 465.13 261.876 465.382 262.242 465.625C262.823 466.007 263.113 466.608 263.113 467.427C263.113 468.218 262.812 468.902 262.208 469.477C261.611 470.053 260.698 470.34 259.469 470.34C258.147 470.34 257.209 470.042 256.655 469.444C256.107 468.841 255.814 468.096 255.775 467.211H257.211ZM265.122 458.628H266.633V461.11H268.052V462.33H266.633V468.132C266.633 468.442 266.738 468.65 266.948 468.755C267.064 468.816 267.258 468.846 267.529 468.846C267.601 468.846 267.679 468.846 267.762 468.846C267.845 468.841 267.942 468.832 268.052 468.821V470C267.881 470.05 267.701 470.086 267.513 470.108C267.33 470.13 267.131 470.141 266.915 470.141C266.218 470.141 265.745 469.964 265.496 469.61C265.247 469.25 265.122 468.785 265.122 468.215V462.33H263.918V461.11H265.122V458.628ZM273.257 460.911C273.888 460.911 274.499 461.06 275.091 461.359C275.683 461.652 276.134 462.034 276.444 462.504C276.743 462.953 276.942 463.476 277.042 464.073C277.131 464.483 277.175 465.136 277.175 466.032H270.659C270.686 466.934 270.899 467.659 271.298 468.207C271.696 468.749 272.313 469.021 273.149 469.021C273.929 469.021 274.552 468.763 275.017 468.249C275.282 467.95 275.47 467.604 275.581 467.211H277.05C277.012 467.537 276.882 467.903 276.66 468.307C276.444 468.705 276.201 469.032 275.93 469.286C275.476 469.729 274.914 470.028 274.245 470.183C273.885 470.271 273.478 470.315 273.024 470.315C271.918 470.315 270.98 469.914 270.21 469.112C269.441 468.304 269.057 467.175 269.057 465.725C269.057 464.297 269.444 463.138 270.219 462.247C270.993 461.356 272.006 460.911 273.257 460.911ZM275.639 464.845C275.578 464.198 275.437 463.68 275.216 463.293C274.806 462.574 274.123 462.214 273.166 462.214C272.479 462.214 271.904 462.463 271.439 462.961C270.974 463.453 270.728 464.082 270.7 464.845H275.639ZM287.501 468.996C288.198 468.996 288.777 468.705 289.236 468.124C289.701 467.537 289.933 466.663 289.933 465.501C289.933 464.793 289.831 464.184 289.626 463.675C289.239 462.695 288.53 462.206 287.501 462.206C286.466 462.206 285.758 462.723 285.376 463.758C285.171 464.311 285.069 465.014 285.069 465.866C285.069 466.552 285.171 467.136 285.376 467.618C285.763 468.536 286.472 468.996 287.501 468.996ZM283.633 461.151H285.085V462.33C285.384 461.926 285.711 461.613 286.065 461.392C286.569 461.06 287.161 460.894 287.841 460.894C288.848 460.894 289.703 461.281 290.406 462.056C291.109 462.825 291.46 463.927 291.46 465.36C291.46 467.297 290.954 468.68 289.941 469.51C289.299 470.036 288.552 470.299 287.7 470.299C287.031 470.299 286.469 470.152 286.015 469.859C285.75 469.693 285.453 469.408 285.127 469.004V473.544H283.633V461.151ZM293.253 461.11H294.673V462.646C294.789 462.347 295.074 461.984 295.528 461.558C295.982 461.126 296.505 460.911 297.097 460.911C297.124 460.911 297.171 460.913 297.238 460.919C297.304 460.924 297.418 460.936 297.578 460.952V462.529C297.49 462.513 297.407 462.502 297.329 462.496C297.257 462.491 297.177 462.488 297.088 462.488C296.336 462.488 295.757 462.731 295.354 463.218C294.95 463.7 294.748 464.256 294.748 464.887V470H293.253V461.11ZM302.401 469.037C303.391 469.037 304.069 468.664 304.435 467.917C304.805 467.164 304.991 466.328 304.991 465.41C304.991 464.58 304.858 463.904 304.592 463.384C304.172 462.565 303.447 462.156 302.417 462.156C301.504 462.156 300.84 462.504 300.425 463.202C300.01 463.899 299.803 464.74 299.803 465.725C299.803 466.671 300.01 467.46 300.425 468.091C300.84 468.722 301.499 469.037 302.401 469.037ZM302.459 460.853C303.604 460.853 304.573 461.234 305.364 461.998C306.156 462.762 306.551 463.885 306.551 465.368C306.551 466.801 306.203 467.986 305.505 468.921C304.808 469.856 303.726 470.324 302.26 470.324C301.037 470.324 300.066 469.911 299.346 469.087C298.627 468.257 298.267 467.145 298.267 465.75C298.267 464.256 298.646 463.066 299.404 462.181C300.162 461.295 301.181 460.853 302.459 460.853ZM309.282 465.659C309.282 466.611 309.484 467.407 309.888 468.049C310.292 468.691 310.94 469.012 311.831 469.012C312.522 469.012 313.09 468.716 313.532 468.124C313.98 467.526 314.205 466.671 314.205 465.559C314.205 464.436 313.975 463.606 313.516 463.069C313.056 462.527 312.489 462.255 311.814 462.255C311.061 462.255 310.45 462.543 309.979 463.119C309.515 463.694 309.282 464.541 309.282 465.659ZM311.532 460.952C312.212 460.952 312.782 461.096 313.242 461.384C313.507 461.55 313.809 461.84 314.146 462.255V457.765H315.583V470H314.238V468.763C313.889 469.311 313.477 469.707 313.001 469.95C312.525 470.194 311.98 470.315 311.366 470.315C310.375 470.315 309.517 469.9 308.792 469.07C308.068 468.235 307.705 467.125 307.705 465.742C307.705 464.447 308.034 463.326 308.693 462.38C309.357 461.428 310.303 460.952 311.532 460.952ZM319.293 461.11V467.012C319.293 467.465 319.365 467.836 319.509 468.124C319.774 468.655 320.27 468.921 320.995 468.921C322.035 468.921 322.743 468.456 323.12 467.526C323.324 467.028 323.427 466.345 323.427 465.476V461.11H324.921V470H323.51L323.526 468.688C323.333 469.026 323.092 469.311 322.804 469.543C322.234 470.008 321.542 470.241 320.729 470.241C319.462 470.241 318.598 469.817 318.139 468.971C317.89 468.517 317.766 467.911 317.766 467.153V461.11H319.293ZM327.229 457.806H328.665V464.887L332.5 461.11H334.409L331.005 464.438L334.6 470H332.69L329.918 465.518L328.665 466.663V470H327.229V457.806ZM336.061 458.628H337.571V461.11H338.991V462.33H337.571V468.132C337.571 468.442 337.676 468.65 337.887 468.755C338.003 468.816 338.197 468.846 338.468 468.846C338.54 468.846 338.617 468.846 338.7 468.846C338.783 468.841 338.88 468.832 338.991 468.821V470C338.819 470.05 338.639 470.086 338.451 470.108C338.269 470.13 338.069 470.141 337.854 470.141C337.156 470.141 336.683 469.964 336.434 469.61C336.185 469.25 336.061 468.785 336.061 468.215V462.33H334.857V461.11H336.061V458.628Z" fill="#EFEEEA"/>
<circle cx="213" cy="154" r="4" fill="white"/>
<circle cx="297" cy="265" r="4" fill="white"/>
<circle cx="242" cy="373" r="4" fill="white"/>
<circle cx="261" cy="482" r="4" fill="white"/>
</svg>
