<svg width="1512" height="982" viewBox="0 0 1512 982" fill="none" xmlns="http://www.w3.org/2000/svg">
<g clip-path="url(#clip0_466_315)">
<rect width="1512" height="982" fill="white"/>
<rect x="-2" width="1514" height="982" fill="#3D5C6D"/>
<path d="M467 185V802" stroke="white" stroke-width="4.64927"/>
<path d="M467 150V185" stroke="white" stroke-width="4.64927" stroke-dasharray="10.85 10.85"/>
<path d="M467 802V838" stroke="white" stroke-width="4.64927" stroke-dasharray="10.85 10.85"/>
<line x1="467" y1="584.675" x2="1034" y2="584.675" stroke="white" stroke-width="4.64927"/>
<line x1="467" y1="416.675" x2="1247" y2="416.675" stroke="white" stroke-width="4.64927"/>
<line x1="467" y1="753.675" x2="1108" y2="753.675" stroke="white" stroke-width="4.64927"/>
<line x1="467" y1="243.675" x2="921" y2="243.675" stroke="white" stroke-width="4.64927"/>
<path d="M696.251 211.103H709.36V213.418H698.811V219.155H708.086V221.407H698.811V230H696.251V211.103ZM711.868 211.103H714.184V230H711.868V211.103ZM726.276 216.222H728.836C728.51 217.106 727.786 219.121 726.662 222.269C725.822 224.636 725.118 226.565 724.552 228.058C723.215 231.574 722.271 233.718 721.722 234.49C721.173 235.261 720.23 235.647 718.892 235.647C718.566 235.647 718.313 235.635 718.133 235.609C717.962 235.583 717.747 235.536 717.49 235.467V233.358C717.893 233.469 718.185 233.538 718.365 233.563C718.545 233.589 718.704 233.602 718.841 233.602C719.27 233.602 719.583 233.529 719.78 233.383C719.986 233.246 720.157 233.075 720.294 232.869C720.337 232.8 720.492 232.448 720.758 231.814C721.023 231.179 721.216 230.708 721.336 230.399L716.242 216.222H718.866L722.558 227.44L726.276 216.222ZM735.706 215.978C736.786 215.978 737.73 216.244 738.536 216.776C738.973 217.076 739.419 217.513 739.874 218.088V216.351H742.009V228.881C742.009 230.63 741.752 232.011 741.237 233.023C740.277 234.893 738.463 235.827 735.796 235.827C734.312 235.827 733.064 235.493 732.052 234.824C731.04 234.164 730.474 233.126 730.354 231.711H732.708C732.82 232.328 733.043 232.804 733.377 233.139C733.9 233.653 734.724 233.911 735.847 233.911C737.622 233.911 738.785 233.285 739.333 232.033C739.659 231.295 739.809 229.979 739.784 228.083C739.321 228.786 738.763 229.31 738.111 229.653C737.46 229.996 736.598 230.167 735.526 230.167C734.033 230.167 732.725 229.64 731.602 228.585C730.487 227.522 729.93 225.768 729.93 223.323C729.93 221.017 730.491 219.216 731.615 217.921C732.747 216.626 734.111 215.978 735.706 215.978ZM739.874 223.053C739.874 221.347 739.522 220.082 738.819 219.258C738.116 218.435 737.219 218.023 736.13 218.023C734.501 218.023 733.386 218.787 732.786 220.313C732.468 221.128 732.31 222.196 732.31 223.516C732.31 225.069 732.623 226.252 733.249 227.067C733.883 227.873 734.732 228.276 735.796 228.276C737.46 228.276 738.63 227.526 739.308 226.025C739.685 225.176 739.874 224.185 739.874 223.053ZM745.971 212.376H748.313V216.222H750.512V218.113H748.313V227.106C748.313 227.586 748.476 227.907 748.801 228.07C748.982 228.165 749.282 228.212 749.702 228.212C749.813 228.212 749.933 228.212 750.062 228.212C750.191 228.203 750.341 228.19 750.512 228.173V230C750.247 230.077 749.968 230.133 749.676 230.167C749.393 230.202 749.084 230.219 748.75 230.219C747.669 230.219 746.936 229.944 746.55 229.395C746.164 228.838 745.971 228.118 745.971 227.234V218.113H744.106V216.222H745.971V212.376ZM758.578 215.914C759.556 215.914 760.504 216.145 761.421 216.608C762.339 217.063 763.038 217.655 763.518 218.384C763.981 219.078 764.29 219.889 764.444 220.815C764.581 221.45 764.65 222.462 764.65 223.851H754.552C754.595 225.249 754.925 226.372 755.542 227.221C756.16 228.062 757.116 228.482 758.411 228.482C759.62 228.482 760.585 228.083 761.305 227.286C761.717 226.823 762.009 226.287 762.18 225.678H764.457C764.397 226.184 764.196 226.75 763.853 227.376C763.518 227.993 763.141 228.499 762.72 228.894C762.017 229.58 761.147 230.043 760.109 230.283C759.552 230.42 758.921 230.489 758.218 230.489C756.503 230.489 755.049 229.867 753.857 228.624C752.665 227.371 752.069 225.622 752.069 223.375C752.069 221.162 752.669 219.366 753.87 217.985C755.071 216.604 756.64 215.914 758.578 215.914ZM762.27 222.011C762.176 221.008 761.957 220.206 761.614 219.606C760.98 218.491 759.92 217.933 758.437 217.933C757.373 217.933 756.481 218.319 755.761 219.091C755.041 219.854 754.659 220.828 754.616 222.011H762.27ZM767.57 216.222H769.77V218.602C769.95 218.139 770.392 217.577 771.095 216.917C771.798 216.248 772.609 215.914 773.526 215.914C773.569 215.914 773.642 215.918 773.745 215.927C773.848 215.935 774.024 215.952 774.273 215.978V218.422C774.135 218.397 774.007 218.379 773.887 218.371C773.775 218.362 773.651 218.358 773.514 218.358C772.347 218.358 771.451 218.735 770.825 219.49C770.199 220.236 769.886 221.098 769.886 222.076V230H767.57V216.222ZM784.075 212.376H786.416V216.222H788.616V218.113H786.416V227.106C786.416 227.586 786.579 227.907 786.905 228.07C787.085 228.165 787.385 228.212 787.806 228.212C787.917 228.212 788.037 228.212 788.166 228.212C788.294 228.203 788.445 228.19 788.616 228.173V230C788.35 230.077 788.071 230.133 787.78 230.167C787.497 230.202 787.188 230.219 786.854 230.219C785.773 230.219 785.04 229.944 784.654 229.395C784.268 228.838 784.075 228.118 784.075 227.234V218.113H782.21V216.222H784.075V212.376ZM790.944 216.287H793.299V230H790.944V216.287ZM790.944 211.103H793.299V213.727H790.944V211.103ZM796.875 211.103H799.19V230H796.875V211.103ZM817.573 227.813C818.44 227.813 819.151 227.723 819.709 227.543C820.704 227.208 821.518 226.565 822.153 225.613C822.659 224.85 823.023 223.872 823.246 222.68C823.375 221.968 823.439 221.308 823.439 220.699C823.439 218.358 822.972 216.54 822.037 215.245C821.111 213.95 819.614 213.302 817.548 213.302H813.007V227.813H817.573ZM810.434 211.103H818.088C820.686 211.103 822.702 212.024 824.134 213.868C825.412 215.532 826.051 217.663 826.051 220.262C826.051 222.269 825.674 224.082 824.919 225.703C823.59 228.568 821.304 230 818.062 230H810.434V211.103ZM830.823 226.334C830.823 227.003 831.068 227.53 831.557 227.916C832.046 228.302 832.624 228.495 833.293 228.495C834.108 228.495 834.897 228.306 835.66 227.929C836.947 227.303 837.59 226.278 837.59 224.854V222.989C837.307 223.169 836.943 223.319 836.497 223.439C836.051 223.559 835.613 223.645 835.184 223.697L833.782 223.877C832.942 223.988 832.311 224.164 831.891 224.404C831.179 224.807 830.823 225.45 830.823 226.334ZM836.432 221.651C836.964 221.583 837.32 221.36 837.5 220.982C837.603 220.776 837.654 220.481 837.654 220.095C837.654 219.306 837.371 218.735 836.805 218.384C836.248 218.023 835.446 217.843 834.4 217.843C833.19 217.843 832.333 218.169 831.827 218.821C831.544 219.181 831.359 219.717 831.274 220.429H829.113C829.155 218.731 829.704 217.552 830.759 216.891C831.823 216.222 833.053 215.888 834.451 215.888C836.072 215.888 837.388 216.197 838.4 216.814C839.404 217.432 839.906 218.392 839.906 219.696V227.633C839.906 227.873 839.953 228.066 840.047 228.212C840.15 228.358 840.36 228.431 840.677 228.431C840.78 228.431 840.896 228.426 841.025 228.418C841.153 228.401 841.291 228.379 841.436 228.353V230.064C841.076 230.167 840.802 230.232 840.613 230.257C840.424 230.283 840.167 230.296 839.841 230.296C839.044 230.296 838.465 230.013 838.105 229.447C837.916 229.147 837.783 228.722 837.706 228.173C837.234 228.791 836.557 229.327 835.673 229.781C834.79 230.236 833.817 230.463 832.753 230.463C831.475 230.463 830.429 230.077 829.614 229.305C828.808 228.525 828.405 227.552 828.405 226.385C828.405 225.107 828.804 224.117 829.601 223.414C830.399 222.71 831.445 222.277 832.74 222.114L836.432 221.651ZM843.713 216.222H845.913V218.178C846.565 217.372 847.255 216.793 847.984 216.441C848.713 216.09 849.524 215.914 850.416 215.914C852.371 215.914 853.692 216.596 854.378 217.959C854.755 218.705 854.944 219.773 854.944 221.162V230H852.59V221.317C852.59 220.476 852.465 219.799 852.217 219.284C851.805 218.427 851.059 217.998 849.978 217.998C849.429 217.998 848.979 218.053 848.627 218.165C847.993 218.354 847.435 218.731 846.955 219.297C846.569 219.752 846.316 220.223 846.196 220.712C846.085 221.192 846.029 221.883 846.029 222.783V230H843.713V216.222ZM858.379 216.222H860.668V218.178C861.217 217.5 861.715 217.007 862.161 216.698C862.924 216.175 863.79 215.914 864.759 215.914C865.857 215.914 866.74 216.184 867.409 216.724C867.787 217.033 868.13 217.487 868.438 218.088C868.953 217.35 869.558 216.806 870.252 216.454C870.947 216.094 871.727 215.914 872.593 215.914C874.446 215.914 875.707 216.583 876.376 217.921C876.736 218.641 876.916 219.61 876.916 220.828V230H874.51V220.429C874.51 219.511 874.279 218.881 873.816 218.538C873.361 218.195 872.804 218.023 872.143 218.023C871.234 218.023 870.449 218.328 869.789 218.937C869.137 219.546 868.811 220.562 868.811 221.986V230H866.457V221.008C866.457 220.073 866.346 219.391 866.123 218.963C865.771 218.319 865.115 217.998 864.155 217.998C863.28 217.998 862.482 218.336 861.762 219.014C861.05 219.692 860.694 220.918 860.694 222.693V230H858.379V216.222ZM882.1 226.334C882.1 227.003 882.345 227.53 882.833 227.916C883.322 228.302 883.901 228.495 884.57 228.495C885.385 228.495 886.174 228.306 886.937 227.929C888.223 227.303 888.867 226.278 888.867 224.854V222.989C888.584 223.169 888.219 223.319 887.773 223.439C887.327 223.559 886.89 223.645 886.461 223.697L885.059 223.877C884.218 223.988 883.588 224.164 883.168 224.404C882.456 224.807 882.1 225.45 882.1 226.334ZM887.709 221.651C888.241 221.583 888.597 221.36 888.777 220.982C888.88 220.776 888.931 220.481 888.931 220.095C888.931 219.306 888.648 218.735 888.082 218.384C887.525 218.023 886.723 217.843 885.676 217.843C884.467 217.843 883.61 218.169 883.104 218.821C882.821 219.181 882.636 219.717 882.55 220.429H880.389C880.432 218.731 880.981 217.552 882.036 216.891C883.099 216.222 884.33 215.888 885.728 215.888C887.349 215.888 888.665 216.197 889.677 216.814C890.681 217.432 891.182 218.392 891.182 219.696V227.633C891.182 227.873 891.229 228.066 891.324 228.212C891.427 228.358 891.637 228.431 891.954 228.431C892.057 228.431 892.173 228.426 892.301 228.418C892.43 228.401 892.567 228.379 892.713 228.353V230.064C892.353 230.167 892.078 230.232 891.89 230.257C891.701 230.283 891.444 230.296 891.118 230.296C890.32 230.296 889.741 230.013 889.381 229.447C889.193 229.147 889.06 228.722 888.982 228.173C888.511 228.791 887.833 229.327 886.95 229.781C886.067 230.236 885.093 230.463 884.03 230.463C882.752 230.463 881.706 230.077 880.891 229.305C880.085 228.525 879.682 227.552 879.682 226.385C879.682 225.107 880.08 224.117 880.878 223.414C881.676 222.71 882.722 222.277 884.017 222.114L887.709 221.651ZM895.054 216.222H897.254V218.602C897.434 218.139 897.876 217.577 898.579 216.917C899.282 216.248 900.093 215.914 901.01 215.914C901.053 215.914 901.126 215.918 901.229 215.927C901.332 215.935 901.508 215.952 901.757 215.978V218.422C901.619 218.397 901.491 218.379 901.371 218.371C901.259 218.362 901.135 218.358 900.998 218.358C899.831 218.358 898.935 218.735 898.309 219.49C897.683 220.236 897.37 221.098 897.37 222.076V230H895.054V216.222ZM903.712 211.103H905.937V222.076L911.881 216.222H914.839L909.565 221.381L915.135 230H912.177L907.88 223.053L905.937 224.829V230H903.712V211.103Z" fill="#EFEEEA"/>
<path d="M345.357 233.654H348.141L352.262 245.783L356.354 233.654H359.107V248H357.262V239.533C357.262 239.24 357.268 238.755 357.281 238.078C357.294 237.401 357.301 236.675 357.301 235.9L353.209 248H351.285L347.164 235.9V236.34C347.164 236.691 347.171 237.229 347.184 237.951C347.203 238.667 347.213 239.195 347.213 239.533V248H345.357V233.654ZM363.18 245.217C363.18 245.725 363.365 246.125 363.736 246.418C364.107 246.711 364.547 246.857 365.055 246.857C365.673 246.857 366.272 246.714 366.852 246.428C367.828 245.952 368.316 245.174 368.316 244.094V242.678C368.102 242.814 367.825 242.928 367.486 243.02C367.148 243.111 366.816 243.176 366.49 243.215L365.426 243.352C364.788 243.436 364.309 243.57 363.99 243.752C363.45 244.058 363.18 244.546 363.18 245.217ZM367.438 241.662C367.841 241.61 368.111 241.441 368.248 241.154C368.326 240.998 368.365 240.773 368.365 240.48C368.365 239.882 368.15 239.449 367.721 239.182C367.298 238.908 366.689 238.771 365.895 238.771C364.977 238.771 364.326 239.019 363.941 239.514C363.727 239.787 363.587 240.194 363.521 240.734H361.881C361.913 239.445 362.33 238.55 363.131 238.049C363.938 237.541 364.872 237.287 365.934 237.287C367.164 237.287 368.163 237.521 368.932 237.99C369.693 238.459 370.074 239.188 370.074 240.178V246.203C370.074 246.385 370.11 246.532 370.182 246.643C370.26 246.753 370.419 246.809 370.66 246.809C370.738 246.809 370.826 246.805 370.924 246.799C371.021 246.786 371.126 246.77 371.236 246.75V248.049C370.963 248.127 370.755 248.176 370.611 248.195C370.468 248.215 370.273 248.225 370.025 248.225C369.42 248.225 368.98 248.01 368.707 247.58C368.564 247.352 368.463 247.03 368.404 246.613C368.046 247.082 367.532 247.489 366.861 247.834C366.191 248.179 365.452 248.352 364.645 248.352C363.674 248.352 362.88 248.059 362.262 247.473C361.65 246.88 361.344 246.141 361.344 245.256C361.344 244.286 361.646 243.534 362.252 243C362.857 242.466 363.652 242.137 364.635 242.014L367.438 241.662ZM373.014 237.541H374.684V239.348C374.82 238.996 375.156 238.57 375.689 238.068C376.223 237.561 376.839 237.307 377.535 237.307C377.568 237.307 377.623 237.31 377.701 237.316C377.779 237.323 377.913 237.336 378.102 237.355V239.211C377.997 239.191 377.9 239.178 377.809 239.172C377.724 239.165 377.63 239.162 377.525 239.162C376.64 239.162 375.96 239.449 375.484 240.021C375.009 240.588 374.771 241.242 374.771 241.984V248H373.014V237.541ZM379.977 234.621H381.754V237.541H383.424V238.977H381.754V245.803C381.754 246.167 381.878 246.411 382.125 246.535C382.262 246.607 382.49 246.643 382.809 246.643C382.893 246.643 382.984 246.643 383.082 246.643C383.18 246.636 383.294 246.626 383.424 246.613V248C383.222 248.059 383.01 248.101 382.789 248.127C382.574 248.153 382.34 248.166 382.086 248.166C381.266 248.166 380.709 247.958 380.416 247.541C380.123 247.118 379.977 246.571 379.977 245.9V238.977H378.561V237.541H379.977V234.621ZM386.236 244.719C386.288 245.305 386.435 245.754 386.676 246.066C387.118 246.633 387.887 246.916 388.98 246.916C389.632 246.916 390.204 246.776 390.699 246.496C391.194 246.21 391.441 245.77 391.441 245.178C391.441 244.729 391.243 244.387 390.846 244.152C390.592 244.009 390.09 243.843 389.342 243.654L387.945 243.303C387.053 243.081 386.396 242.834 385.973 242.561C385.217 242.085 384.84 241.428 384.84 240.588C384.84 239.598 385.195 238.798 385.904 238.186C386.62 237.574 387.581 237.268 388.785 237.268C390.361 237.268 391.497 237.73 392.193 238.654C392.63 239.24 392.841 239.872 392.828 240.549H391.168C391.135 240.152 390.995 239.79 390.748 239.465C390.344 239.003 389.645 238.771 388.648 238.771C387.984 238.771 387.48 238.898 387.135 239.152C386.796 239.406 386.627 239.742 386.627 240.158C386.627 240.614 386.852 240.979 387.301 241.252C387.561 241.415 387.945 241.558 388.453 241.682L389.615 241.965C390.878 242.271 391.725 242.567 392.154 242.854C392.838 243.303 393.18 244.009 393.18 244.973C393.18 245.904 392.825 246.708 392.115 247.385C391.412 248.062 390.338 248.4 388.893 248.4C387.337 248.4 386.233 248.049 385.582 247.346C384.938 246.636 384.592 245.76 384.547 244.719H386.236ZM400.094 248C400.159 246.796 400.406 245.747 400.836 244.855C401.272 243.964 402.118 243.153 403.375 242.424L405.25 241.34C406.09 240.852 406.679 240.435 407.018 240.09C407.551 239.549 407.818 238.931 407.818 238.234C407.818 237.421 407.574 236.776 407.086 236.301C406.598 235.819 405.947 235.578 405.133 235.578C403.928 235.578 403.095 236.034 402.633 236.945C402.385 237.434 402.249 238.111 402.223 238.977H400.436C400.455 237.759 400.68 236.766 401.109 235.998C401.871 234.644 403.215 233.967 405.143 233.967C406.744 233.967 407.913 234.4 408.648 235.266C409.391 236.132 409.762 237.095 409.762 238.156C409.762 239.276 409.368 240.233 408.58 241.027C408.124 241.49 407.307 242.049 406.129 242.707L404.791 243.449C404.153 243.801 403.652 244.136 403.287 244.455C402.636 245.021 402.226 245.65 402.057 246.34H409.693V248H400.094ZM416.012 234.016C417.822 234.016 419.13 234.761 419.938 236.252C420.562 237.404 420.875 238.983 420.875 240.988C420.875 242.889 420.592 244.462 420.025 245.705C419.205 247.489 417.864 248.381 416.002 248.381C414.322 248.381 413.072 247.652 412.252 246.193C411.568 244.976 411.227 243.342 411.227 241.291C411.227 239.702 411.432 238.339 411.842 237.199C412.61 235.077 414 234.016 416.012 234.016ZM415.992 246.779C416.904 246.779 417.63 246.376 418.17 245.568C418.71 244.761 418.98 243.257 418.98 241.057C418.98 239.468 418.785 238.163 418.395 237.141C418.004 236.112 417.245 235.598 416.119 235.598C415.084 235.598 414.326 236.086 413.844 237.062C413.368 238.033 413.131 239.465 413.131 241.359C413.131 242.785 413.284 243.931 413.59 244.797C414.059 246.118 414.859 246.779 415.992 246.779ZM422.359 248C422.424 246.796 422.672 245.747 423.102 244.855C423.538 243.964 424.384 243.153 425.641 242.424L427.516 241.34C428.355 240.852 428.945 240.435 429.283 240.09C429.817 239.549 430.084 238.931 430.084 238.234C430.084 237.421 429.84 236.776 429.352 236.301C428.863 235.819 428.212 235.578 427.398 235.578C426.194 235.578 425.361 236.034 424.898 236.945C424.651 237.434 424.514 238.111 424.488 238.977H422.701C422.721 237.759 422.945 236.766 423.375 235.998C424.137 234.644 425.481 233.967 427.408 233.967C429.01 233.967 430.178 234.4 430.914 235.266C431.656 236.132 432.027 237.095 432.027 238.156C432.027 239.276 431.633 240.233 430.846 241.027C430.39 241.49 429.573 242.049 428.395 242.707L427.057 243.449C426.419 243.801 425.917 244.136 425.553 244.455C424.902 245.021 424.492 245.65 424.322 246.34H431.959V248H422.359ZM433.492 248C433.557 246.796 433.805 245.747 434.234 244.855C434.671 243.964 435.517 243.153 436.773 242.424L438.648 241.34C439.488 240.852 440.077 240.435 440.416 240.09C440.95 239.549 441.217 238.931 441.217 238.234C441.217 237.421 440.973 236.776 440.484 236.301C439.996 235.819 439.345 235.578 438.531 235.578C437.327 235.578 436.493 236.034 436.031 236.945C435.784 237.434 435.647 238.111 435.621 238.977H433.834C433.854 237.759 434.078 236.766 434.508 235.998C435.27 234.644 436.614 233.967 438.541 233.967C440.143 233.967 441.311 234.4 442.047 235.266C442.789 236.132 443.16 237.095 443.16 238.156C443.16 239.276 442.766 240.233 441.979 241.027C441.523 241.49 440.706 242.049 439.527 242.707L438.189 243.449C437.551 243.801 437.05 244.136 436.686 244.455C436.035 245.021 435.624 245.65 435.455 246.34H443.092V248H433.492Z" fill="#EFEEEA"/>
<path d="M363.131 403.63H365.914L370.035 415.759L374.127 403.63H376.881V417.976H375.035V409.509C375.035 409.216 375.042 408.731 375.055 408.054C375.068 407.377 375.074 406.651 375.074 405.876L370.982 417.976H369.059L364.938 405.876V406.315C364.938 406.667 364.944 407.204 364.957 407.927C364.977 408.643 364.986 409.17 364.986 409.509V417.976H363.131V403.63ZM380.953 415.192C380.953 415.7 381.139 416.101 381.51 416.394C381.881 416.687 382.32 416.833 382.828 416.833C383.447 416.833 384.046 416.69 384.625 416.403C385.602 415.928 386.09 415.15 386.09 414.069V412.653C385.875 412.79 385.598 412.904 385.26 412.995C384.921 413.086 384.589 413.151 384.264 413.19L383.199 413.327C382.561 413.412 382.083 413.545 381.764 413.728C381.223 414.034 380.953 414.522 380.953 415.192ZM385.211 411.638C385.615 411.586 385.885 411.416 386.021 411.13C386.1 410.974 386.139 410.749 386.139 410.456C386.139 409.857 385.924 409.424 385.494 409.157C385.071 408.884 384.462 408.747 383.668 408.747C382.75 408.747 382.099 408.994 381.715 409.489C381.5 409.763 381.36 410.17 381.295 410.71H379.654C379.687 409.421 380.104 408.526 380.904 408.024C381.712 407.517 382.646 407.263 383.707 407.263C384.938 407.263 385.937 407.497 386.705 407.966C387.467 408.435 387.848 409.164 387.848 410.153V416.179C387.848 416.361 387.883 416.507 387.955 416.618C388.033 416.729 388.193 416.784 388.434 416.784C388.512 416.784 388.6 416.781 388.697 416.774C388.795 416.761 388.899 416.745 389.01 416.726V418.024C388.736 418.103 388.528 418.151 388.385 418.171C388.242 418.19 388.046 418.2 387.799 418.2C387.193 418.2 386.754 417.985 386.48 417.556C386.337 417.328 386.236 417.006 386.178 416.589C385.82 417.058 385.305 417.465 384.635 417.81C383.964 418.155 383.225 418.327 382.418 418.327C381.448 418.327 380.654 418.034 380.035 417.448C379.423 416.856 379.117 416.117 379.117 415.231C379.117 414.261 379.42 413.509 380.025 412.976C380.631 412.442 381.425 412.113 382.408 411.989L385.211 411.638ZM392.496 405.661H390.738V403.63H392.496V405.661ZM389.078 420.622C389.866 420.596 390.338 420.524 390.494 420.407C390.657 420.297 390.738 419.942 390.738 419.343V407.565H392.496V419.528C392.496 420.29 392.372 420.86 392.125 421.237C391.715 421.875 390.937 422.194 389.791 422.194C389.706 422.194 389.615 422.191 389.518 422.185C389.426 422.178 389.28 422.165 389.078 422.146V420.622ZM400.094 417.976C400.159 416.771 400.406 415.723 400.836 414.831C401.272 413.939 402.118 413.129 403.375 412.399L405.25 411.315C406.09 410.827 406.679 410.41 407.018 410.065C407.551 409.525 407.818 408.907 407.818 408.21C407.818 407.396 407.574 406.752 407.086 406.276C406.598 405.795 405.947 405.554 405.133 405.554C403.928 405.554 403.095 406.009 402.633 406.921C402.385 407.409 402.249 408.086 402.223 408.952H400.436C400.455 407.735 400.68 406.742 401.109 405.974C401.871 404.619 403.215 403.942 405.143 403.942C406.744 403.942 407.913 404.375 408.648 405.241C409.391 406.107 409.762 407.071 409.762 408.132C409.762 409.252 409.368 410.209 408.58 411.003C408.124 411.465 407.307 412.025 406.129 412.683L404.791 413.425C404.153 413.776 403.652 414.112 403.287 414.431C402.636 414.997 402.226 415.625 402.057 416.315H409.693V417.976H400.094ZM416.012 403.991C417.822 403.991 419.13 404.737 419.938 406.228C420.562 407.38 420.875 408.959 420.875 410.964C420.875 412.865 420.592 414.437 420.025 415.681C419.205 417.465 417.864 418.356 416.002 418.356C414.322 418.356 413.072 417.627 412.252 416.169C411.568 414.951 411.227 413.317 411.227 411.267C411.227 409.678 411.432 408.314 411.842 407.175C412.61 405.052 414 403.991 416.012 403.991ZM415.992 416.755C416.904 416.755 417.63 416.351 418.17 415.544C418.71 414.737 418.98 413.233 418.98 411.032C418.98 409.444 418.785 408.138 418.395 407.116C418.004 406.088 417.245 405.573 416.119 405.573C415.084 405.573 414.326 406.062 413.844 407.038C413.368 408.008 413.131 409.44 413.131 411.335C413.131 412.761 413.284 413.907 413.59 414.772C414.059 416.094 414.859 416.755 415.992 416.755ZM422.359 417.976C422.424 416.771 422.672 415.723 423.102 414.831C423.538 413.939 424.384 413.129 425.641 412.399L427.516 411.315C428.355 410.827 428.945 410.41 429.283 410.065C429.817 409.525 430.084 408.907 430.084 408.21C430.084 407.396 429.84 406.752 429.352 406.276C428.863 405.795 428.212 405.554 427.398 405.554C426.194 405.554 425.361 406.009 424.898 406.921C424.651 407.409 424.514 408.086 424.488 408.952H422.701C422.721 407.735 422.945 406.742 423.375 405.974C424.137 404.619 425.481 403.942 427.408 403.942C429.01 403.942 430.178 404.375 430.914 405.241C431.656 406.107 432.027 407.071 432.027 408.132C432.027 409.252 431.633 410.209 430.846 411.003C430.39 411.465 429.573 412.025 428.395 412.683L427.057 413.425C426.419 413.776 425.917 414.112 425.553 414.431C424.902 414.997 424.492 415.625 424.322 416.315H431.959V417.976H422.359ZM433.492 417.976C433.557 416.771 433.805 415.723 434.234 414.831C434.671 413.939 435.517 413.129 436.773 412.399L438.648 411.315C439.488 410.827 440.077 410.41 440.416 410.065C440.95 409.525 441.217 408.907 441.217 408.21C441.217 407.396 440.973 406.752 440.484 406.276C439.996 405.795 439.345 405.554 438.531 405.554C437.327 405.554 436.493 406.009 436.031 406.921C435.784 407.409 435.647 408.086 435.621 408.952H433.834C433.854 407.735 434.078 406.742 434.508 405.974C435.27 404.619 436.614 403.942 438.541 403.942C440.143 403.942 441.311 404.375 442.047 405.241C442.789 406.107 443.16 407.071 443.16 408.132C443.16 409.252 442.766 410.209 441.979 411.003C441.523 411.465 440.706 412.025 439.527 412.683L438.189 413.425C437.551 413.776 437.05 414.112 436.686 414.431C436.035 414.997 435.624 415.625 435.455 416.315H443.092V417.976H433.492Z" fill="#EFEEEA"/>
<path d="M298.805 584.322C298.85 585.136 299.042 585.797 299.381 586.305C300.025 587.255 301.161 587.73 302.789 587.73C303.518 587.73 304.182 587.626 304.781 587.418C305.94 587.014 306.52 586.292 306.52 585.25C306.52 584.469 306.275 583.912 305.787 583.58C305.292 583.255 304.518 582.971 303.463 582.73L301.52 582.291C300.25 582.005 299.352 581.689 298.824 581.344C297.913 580.745 297.457 579.85 297.457 578.658C297.457 577.369 297.903 576.311 298.795 575.484C299.687 574.658 300.95 574.244 302.584 574.244C304.088 574.244 305.364 574.609 306.412 575.338C307.467 576.061 307.994 577.219 307.994 578.814H306.168C306.07 578.046 305.862 577.457 305.543 577.047C304.951 576.298 303.945 575.924 302.525 575.924C301.38 575.924 300.556 576.165 300.055 576.646C299.553 577.128 299.303 577.688 299.303 578.326C299.303 579.029 299.596 579.544 300.182 579.869C300.566 580.077 301.435 580.338 302.789 580.65L304.801 581.109C305.771 581.331 306.52 581.633 307.047 582.018C307.958 582.688 308.414 583.661 308.414 584.938C308.414 586.526 307.835 587.662 306.676 588.346C305.523 589.029 304.182 589.371 302.652 589.371C300.868 589.371 299.472 588.915 298.463 588.004C297.454 587.099 296.959 585.872 296.979 584.322H298.805ZM314.996 578.258C315.738 578.258 316.458 578.434 317.154 578.785C317.851 579.13 318.382 579.579 318.746 580.133C319.098 580.66 319.332 581.275 319.449 581.979C319.553 582.46 319.605 583.229 319.605 584.283H311.939C311.972 585.344 312.223 586.197 312.691 586.842C313.16 587.48 313.886 587.799 314.869 587.799C315.787 587.799 316.52 587.496 317.066 586.891C317.379 586.539 317.6 586.132 317.73 585.67H319.459C319.413 586.054 319.26 586.484 319 586.959C318.746 587.428 318.46 587.812 318.141 588.111C317.607 588.632 316.946 588.984 316.158 589.166C315.735 589.27 315.257 589.322 314.723 589.322C313.421 589.322 312.317 588.85 311.412 587.906C310.507 586.956 310.055 585.628 310.055 583.922C310.055 582.242 310.51 580.878 311.422 579.83C312.333 578.782 313.525 578.258 314.996 578.258ZM317.799 582.887C317.727 582.125 317.561 581.516 317.301 581.061C316.819 580.214 316.015 579.791 314.889 579.791C314.081 579.791 313.404 580.084 312.857 580.67C312.311 581.249 312.021 581.988 311.988 582.887H317.799ZM326.188 587.77C327.008 587.77 327.688 587.428 328.229 586.744C328.775 586.054 329.049 585.025 329.049 583.658C329.049 582.825 328.928 582.109 328.688 581.51C328.232 580.357 327.398 579.781 326.188 579.781C324.97 579.781 324.137 580.39 323.688 581.607C323.447 582.258 323.326 583.085 323.326 584.088C323.326 584.895 323.447 585.582 323.688 586.148C324.143 587.229 324.977 587.77 326.188 587.77ZM321.637 578.541H323.346V579.928C323.697 579.452 324.081 579.085 324.498 578.824C325.09 578.434 325.787 578.238 326.588 578.238C327.773 578.238 328.779 578.694 329.605 579.605C330.432 580.51 330.846 581.806 330.846 583.492C330.846 585.771 330.25 587.398 329.059 588.375C328.303 588.993 327.424 589.303 326.422 589.303C325.634 589.303 324.973 589.13 324.439 588.785C324.127 588.59 323.779 588.255 323.395 587.779V593.121H321.637V578.541ZM333.258 575.572H335.035V578.492H336.705V579.928H335.035V586.754C335.035 587.118 335.159 587.363 335.406 587.486C335.543 587.558 335.771 587.594 336.09 587.594C336.174 587.594 336.266 587.594 336.363 587.594C336.461 587.587 336.575 587.577 336.705 587.564V588.951C336.503 589.01 336.292 589.052 336.07 589.078C335.855 589.104 335.621 589.117 335.367 589.117C334.547 589.117 333.99 588.909 333.697 588.492C333.404 588.069 333.258 587.522 333.258 586.852V579.928H331.842V578.492H333.258V575.572ZM342.828 578.258C343.57 578.258 344.29 578.434 344.986 578.785C345.683 579.13 346.214 579.579 346.578 580.133C346.93 580.66 347.164 581.275 347.281 581.979C347.385 582.46 347.438 583.229 347.438 584.283H339.771C339.804 585.344 340.055 586.197 340.523 586.842C340.992 587.48 341.718 587.799 342.701 587.799C343.619 587.799 344.352 587.496 344.898 586.891C345.211 586.539 345.432 586.132 345.562 585.67H347.291C347.245 586.054 347.092 586.484 346.832 586.959C346.578 587.428 346.292 587.812 345.973 588.111C345.439 588.632 344.778 588.984 343.99 589.166C343.567 589.27 343.089 589.322 342.555 589.322C341.253 589.322 340.149 588.85 339.244 587.906C338.339 586.956 337.887 585.628 337.887 583.922C337.887 582.242 338.342 580.878 339.254 579.83C340.165 578.782 341.357 578.258 342.828 578.258ZM345.631 582.887C345.559 582.125 345.393 581.516 345.133 581.061C344.651 580.214 343.847 579.791 342.721 579.791C341.913 579.791 341.236 580.084 340.689 580.67C340.143 581.249 339.853 581.988 339.82 582.887H345.631ZM349.605 578.492H351.344V579.977C351.76 579.462 352.138 579.088 352.477 578.854C353.056 578.456 353.714 578.258 354.449 578.258C355.283 578.258 355.953 578.463 356.461 578.873C356.747 579.107 357.008 579.452 357.242 579.908C357.633 579.348 358.092 578.935 358.619 578.668C359.146 578.395 359.739 578.258 360.396 578.258C361.803 578.258 362.76 578.766 363.268 579.781C363.541 580.328 363.678 581.064 363.678 581.988V588.951H361.852V581.686C361.852 580.989 361.676 580.51 361.324 580.25C360.979 579.99 360.556 579.859 360.055 579.859C359.365 579.859 358.769 580.09 358.268 580.553C357.773 581.015 357.525 581.786 357.525 582.867V588.951H355.738V582.125C355.738 581.415 355.654 580.898 355.484 580.572C355.217 580.084 354.719 579.84 353.99 579.84C353.326 579.84 352.721 580.097 352.174 580.611C351.633 581.126 351.363 582.057 351.363 583.404V588.951H349.605V578.492ZM366.129 574.557H367.838V579.762C368.222 579.26 368.681 578.88 369.215 578.619C369.749 578.352 370.328 578.219 370.953 578.219C372.255 578.219 373.31 578.668 374.117 579.566C374.931 580.458 375.338 581.777 375.338 583.521C375.338 585.175 374.938 586.549 374.137 587.643C373.336 588.736 372.226 589.283 370.807 589.283C370.012 589.283 369.342 589.091 368.795 588.707C368.469 588.479 368.121 588.115 367.75 587.613V588.951H366.129V574.557ZM370.699 587.73C371.65 587.73 372.359 587.353 372.828 586.598C373.303 585.842 373.541 584.846 373.541 583.609C373.541 582.509 373.303 581.598 372.828 580.875C372.359 580.152 371.666 579.791 370.748 579.791C369.947 579.791 369.244 580.087 368.639 580.68C368.04 581.272 367.74 582.249 367.74 583.609C367.74 584.592 367.864 585.39 368.111 586.002C368.574 587.154 369.436 587.73 370.699 587.73ZM381.754 578.258C382.496 578.258 383.215 578.434 383.912 578.785C384.609 579.13 385.139 579.579 385.504 580.133C385.855 580.66 386.09 581.275 386.207 581.979C386.311 582.46 386.363 583.229 386.363 584.283H378.697C378.73 585.344 378.98 586.197 379.449 586.842C379.918 587.48 380.644 587.799 381.627 587.799C382.545 587.799 383.277 587.496 383.824 586.891C384.137 586.539 384.358 586.132 384.488 585.67H386.217C386.171 586.054 386.018 586.484 385.758 586.959C385.504 587.428 385.217 587.812 384.898 588.111C384.365 588.632 383.704 588.984 382.916 589.166C382.493 589.27 382.014 589.322 381.48 589.322C380.178 589.322 379.075 588.85 378.17 587.906C377.265 586.956 376.812 585.628 376.812 583.922C376.812 582.242 377.268 580.878 378.18 579.83C379.091 578.782 380.283 578.258 381.754 578.258ZM384.557 582.887C384.485 582.125 384.319 581.516 384.059 581.061C383.577 580.214 382.773 579.791 381.646 579.791C380.839 579.791 380.162 580.084 379.615 580.67C379.068 581.249 378.779 581.988 378.746 582.887H384.557ZM388.58 578.492H390.25V580.299C390.387 579.947 390.722 579.521 391.256 579.02C391.79 578.512 392.405 578.258 393.102 578.258C393.134 578.258 393.189 578.261 393.268 578.268C393.346 578.274 393.479 578.287 393.668 578.307V580.162C393.564 580.143 393.466 580.13 393.375 580.123C393.29 580.117 393.196 580.113 393.092 580.113C392.206 580.113 391.526 580.4 391.051 580.973C390.576 581.539 390.338 582.193 390.338 582.936V588.951H388.58V578.492ZM400.094 588.951C400.159 587.747 400.406 586.699 400.836 585.807C401.272 584.915 402.118 584.104 403.375 583.375L405.25 582.291C406.09 581.803 406.679 581.386 407.018 581.041C407.551 580.501 407.818 579.882 407.818 579.186C407.818 578.372 407.574 577.727 407.086 577.252C406.598 576.77 405.947 576.529 405.133 576.529C403.928 576.529 403.095 576.985 402.633 577.896C402.385 578.385 402.249 579.062 402.223 579.928H400.436C400.455 578.71 400.68 577.717 401.109 576.949C401.871 575.595 403.215 574.918 405.143 574.918C406.744 574.918 407.913 575.351 408.648 576.217C409.391 577.083 409.762 578.046 409.762 579.107C409.762 580.227 409.368 581.184 408.58 581.979C408.124 582.441 407.307 583.001 406.129 583.658L404.791 584.4C404.153 584.752 403.652 585.087 403.287 585.406C402.636 585.973 402.226 586.601 402.057 587.291H409.693V588.951H400.094ZM416.012 574.967C417.822 574.967 419.13 575.712 419.938 577.203C420.562 578.355 420.875 579.934 420.875 581.939C420.875 583.84 420.592 585.413 420.025 586.656C419.205 588.44 417.864 589.332 416.002 589.332C414.322 589.332 413.072 588.603 412.252 587.145C411.568 585.927 411.227 584.293 411.227 582.242C411.227 580.654 411.432 579.29 411.842 578.15C412.61 576.028 414 574.967 416.012 574.967ZM415.992 587.73C416.904 587.73 417.63 587.327 418.17 586.52C418.71 585.712 418.98 584.208 418.98 582.008C418.98 580.419 418.785 579.114 418.395 578.092C418.004 577.063 417.245 576.549 416.119 576.549C415.084 576.549 414.326 577.037 413.844 578.014C413.368 578.984 413.131 580.416 413.131 582.311C413.131 583.736 413.284 584.882 413.59 585.748C414.059 587.07 414.859 587.73 415.992 587.73ZM422.359 588.951C422.424 587.747 422.672 586.699 423.102 585.807C423.538 584.915 424.384 584.104 425.641 583.375L427.516 582.291C428.355 581.803 428.945 581.386 429.283 581.041C429.817 580.501 430.084 579.882 430.084 579.186C430.084 578.372 429.84 577.727 429.352 577.252C428.863 576.77 428.212 576.529 427.398 576.529C426.194 576.529 425.361 576.985 424.898 577.896C424.651 578.385 424.514 579.062 424.488 579.928H422.701C422.721 578.71 422.945 577.717 423.375 576.949C424.137 575.595 425.481 574.918 427.408 574.918C429.01 574.918 430.178 575.351 430.914 576.217C431.656 577.083 432.027 578.046 432.027 579.107C432.027 580.227 431.633 581.184 430.846 581.979C430.39 582.441 429.573 583.001 428.395 583.658L427.057 584.4C426.419 584.752 425.917 585.087 425.553 585.406C424.902 585.973 424.492 586.601 424.322 587.291H431.959V588.951H422.359ZM433.492 588.951C433.557 587.747 433.805 586.699 434.234 585.807C434.671 584.915 435.517 584.104 436.773 583.375L438.648 582.291C439.488 581.803 440.077 581.386 440.416 581.041C440.95 580.501 441.217 579.882 441.217 579.186C441.217 578.372 440.973 577.727 440.484 577.252C439.996 576.77 439.345 576.529 438.531 576.529C437.327 576.529 436.493 576.985 436.031 577.896C435.784 578.385 435.647 579.062 435.621 579.928H433.834C433.854 578.71 434.078 577.717 434.508 576.949C435.27 575.595 436.614 574.918 438.541 574.918C440.143 574.918 441.311 575.351 442.047 576.217C442.789 577.083 443.16 578.046 443.16 579.107C443.16 580.227 442.766 581.184 441.979 581.979C441.523 582.441 440.706 583.001 439.527 583.658L438.189 584.4C437.551 584.752 437.05 585.087 436.686 585.406C436.035 585.973 435.624 586.601 435.455 587.291H443.092V588.951H433.492Z" fill="#EFEEEA"/>
<path d="M341.275 754.649C341.275 755.86 341.096 756.801 340.738 757.472C340.074 758.696 338.811 759.308 336.949 759.308C335.875 759.308 334.957 759.018 334.195 758.438C333.434 757.853 333.053 756.814 333.053 755.323V754.298H334.879V755.323C334.879 756.104 335.051 756.694 335.396 757.091C335.748 757.481 336.292 757.677 337.027 757.677C338.062 757.677 338.74 757.322 339.059 756.612C339.254 756.176 339.352 755.353 339.352 754.142V744.581H341.275V754.649ZM345.348 756.144C345.348 756.651 345.533 757.052 345.904 757.345C346.275 757.638 346.715 757.784 347.223 757.784C347.841 757.784 348.44 757.641 349.02 757.354C349.996 756.879 350.484 756.101 350.484 755.021V753.604C350.27 753.741 349.993 753.855 349.654 753.946C349.316 754.037 348.984 754.103 348.658 754.142L347.594 754.278C346.956 754.363 346.477 754.496 346.158 754.679C345.618 754.985 345.348 755.473 345.348 756.144ZM349.605 752.589C350.009 752.537 350.279 752.368 350.416 752.081C350.494 751.925 350.533 751.7 350.533 751.407C350.533 750.808 350.318 750.375 349.889 750.108C349.465 749.835 348.857 749.698 348.062 749.698C347.145 749.698 346.493 749.946 346.109 750.44C345.895 750.714 345.755 751.121 345.689 751.661H344.049C344.081 750.372 344.498 749.477 345.299 748.976C346.106 748.468 347.04 748.214 348.102 748.214C349.332 748.214 350.331 748.448 351.1 748.917C351.861 749.386 352.242 750.115 352.242 751.104V757.13C352.242 757.312 352.278 757.459 352.35 757.569C352.428 757.68 352.587 757.735 352.828 757.735C352.906 757.735 352.994 757.732 353.092 757.726C353.189 757.713 353.294 757.696 353.404 757.677V758.976C353.131 759.054 352.923 759.103 352.779 759.122C352.636 759.142 352.441 759.151 352.193 759.151C351.588 759.151 351.148 758.937 350.875 758.507C350.732 758.279 350.631 757.957 350.572 757.54C350.214 758.009 349.7 758.416 349.029 758.761C348.359 759.106 347.62 759.278 346.812 759.278C345.842 759.278 345.048 758.985 344.43 758.399C343.818 757.807 343.512 757.068 343.512 756.183C343.512 755.213 343.814 754.461 344.42 753.927C345.025 753.393 345.82 753.064 346.803 752.94L349.605 752.589ZM355.133 748.468H356.803V749.952C357.298 749.34 357.822 748.901 358.375 748.634C358.928 748.367 359.544 748.233 360.221 748.233C361.705 748.233 362.708 748.751 363.229 749.786C363.515 750.353 363.658 751.163 363.658 752.218V758.927H361.871V752.335C361.871 751.697 361.777 751.183 361.588 750.792C361.275 750.141 360.709 749.815 359.889 749.815C359.472 749.815 359.13 749.858 358.863 749.942C358.382 750.086 357.958 750.372 357.594 750.802C357.301 751.147 357.109 751.505 357.018 751.876C356.933 752.241 356.891 752.765 356.891 753.448V758.927H355.133V748.468ZM368.023 748.468V755.411C368.023 755.945 368.108 756.381 368.277 756.72C368.59 757.345 369.173 757.657 370.025 757.657C371.249 757.657 372.083 757.11 372.525 756.017C372.766 755.431 372.887 754.627 372.887 753.604V748.468H374.645V758.927H372.984L373.004 757.384C372.776 757.781 372.493 758.116 372.154 758.39C371.484 758.937 370.67 759.21 369.713 759.21C368.222 759.21 367.206 758.712 366.666 757.716C366.373 757.182 366.227 756.469 366.227 755.577V748.468H368.023ZM378.746 756.144C378.746 756.651 378.932 757.052 379.303 757.345C379.674 757.638 380.113 757.784 380.621 757.784C381.24 757.784 381.839 757.641 382.418 757.354C383.395 756.879 383.883 756.101 383.883 755.021V753.604C383.668 753.741 383.391 753.855 383.053 753.946C382.714 754.037 382.382 754.103 382.057 754.142L380.992 754.278C380.354 754.363 379.876 754.496 379.557 754.679C379.016 754.985 378.746 755.473 378.746 756.144ZM383.004 752.589C383.408 752.537 383.678 752.368 383.814 752.081C383.893 751.925 383.932 751.7 383.932 751.407C383.932 750.808 383.717 750.375 383.287 750.108C382.864 749.835 382.255 749.698 381.461 749.698C380.543 749.698 379.892 749.946 379.508 750.44C379.293 750.714 379.153 751.121 379.088 751.661H377.447C377.48 750.372 377.896 749.477 378.697 748.976C379.505 748.468 380.439 748.214 381.5 748.214C382.73 748.214 383.73 748.448 384.498 748.917C385.26 749.386 385.641 750.115 385.641 751.104V757.13C385.641 757.312 385.676 757.459 385.748 757.569C385.826 757.68 385.986 757.735 386.227 757.735C386.305 757.735 386.393 757.732 386.49 757.726C386.588 757.713 386.692 757.696 386.803 757.677V758.976C386.529 759.054 386.321 759.103 386.178 759.122C386.035 759.142 385.839 759.151 385.592 759.151C384.986 759.151 384.547 758.937 384.273 758.507C384.13 758.279 384.029 757.957 383.971 757.54C383.613 758.009 383.098 758.416 382.428 758.761C381.757 759.106 381.018 759.278 380.211 759.278C379.241 759.278 378.447 758.985 377.828 758.399C377.216 757.807 376.91 757.068 376.91 756.183C376.91 755.213 377.213 754.461 377.818 753.927C378.424 753.393 379.218 753.064 380.201 752.94L383.004 752.589ZM388.58 748.468H390.25V750.274C390.387 749.923 390.722 749.496 391.256 748.995C391.79 748.487 392.405 748.233 393.102 748.233C393.134 748.233 393.189 748.237 393.268 748.243C393.346 748.25 393.479 748.263 393.668 748.282V750.138C393.564 750.118 393.466 750.105 393.375 750.099C393.29 750.092 393.196 750.089 393.092 750.089C392.206 750.089 391.526 750.375 391.051 750.948C390.576 751.515 390.338 752.169 390.338 752.911V758.927H388.58V748.468ZM400.094 758.927C400.159 757.722 400.406 756.674 400.836 755.782C401.272 754.89 402.118 754.08 403.375 753.351L405.25 752.267C406.09 751.778 406.679 751.362 407.018 751.017C407.551 750.476 407.818 749.858 407.818 749.161C407.818 748.347 407.574 747.703 407.086 747.228C406.598 746.746 405.947 746.505 405.133 746.505C403.928 746.505 403.095 746.961 402.633 747.872C402.385 748.36 402.249 749.037 402.223 749.903H400.436C400.455 748.686 400.68 747.693 401.109 746.925C401.871 745.571 403.215 744.894 405.143 744.894C406.744 744.894 407.913 745.326 408.648 746.192C409.391 747.058 409.762 748.022 409.762 749.083C409.762 750.203 409.368 751.16 408.58 751.954C408.124 752.416 407.307 752.976 406.129 753.634L404.791 754.376C404.153 754.728 403.652 755.063 403.287 755.382C402.636 755.948 402.226 756.576 402.057 757.267H409.693V758.927H400.094ZM416.012 744.942C417.822 744.942 419.13 745.688 419.938 747.179C420.562 748.331 420.875 749.91 420.875 751.915C420.875 753.816 420.592 755.388 420.025 756.632C419.205 758.416 417.864 759.308 416.002 759.308C414.322 759.308 413.072 758.578 412.252 757.12C411.568 755.903 411.227 754.269 411.227 752.218C411.227 750.629 411.432 749.265 411.842 748.126C412.61 746.004 414 744.942 416.012 744.942ZM415.992 757.706C416.904 757.706 417.63 757.302 418.17 756.495C418.71 755.688 418.98 754.184 418.98 751.983C418.98 750.395 418.785 749.09 418.395 748.067C418.004 747.039 417.245 746.524 416.119 746.524C415.084 746.524 414.326 747.013 413.844 747.989C413.368 748.959 413.131 750.392 413.131 752.286C413.131 753.712 413.284 754.858 413.59 755.724C414.059 757.045 414.859 757.706 415.992 757.706ZM422.359 758.927C422.424 757.722 422.672 756.674 423.102 755.782C423.538 754.89 424.384 754.08 425.641 753.351L427.516 752.267C428.355 751.778 428.945 751.362 429.283 751.017C429.817 750.476 430.084 749.858 430.084 749.161C430.084 748.347 429.84 747.703 429.352 747.228C428.863 746.746 428.212 746.505 427.398 746.505C426.194 746.505 425.361 746.961 424.898 747.872C424.651 748.36 424.514 749.037 424.488 749.903H422.701C422.721 748.686 422.945 747.693 423.375 746.925C424.137 745.571 425.481 744.894 427.408 744.894C429.01 744.894 430.178 745.326 430.914 746.192C431.656 747.058 432.027 748.022 432.027 749.083C432.027 750.203 431.633 751.16 430.846 751.954C430.39 752.416 429.573 752.976 428.395 753.634L427.057 754.376C426.419 754.728 425.917 755.063 425.553 755.382C424.902 755.948 424.492 756.576 424.322 757.267H431.959V758.927H422.359ZM438.062 759.308C436.409 759.308 435.208 758.855 434.459 757.95C433.717 757.039 433.346 755.932 433.346 754.63H435.182C435.26 755.535 435.429 756.192 435.689 756.603C436.145 757.338 436.969 757.706 438.16 757.706C439.085 757.706 439.827 757.459 440.387 756.964C440.947 756.469 441.227 755.831 441.227 755.05C441.227 754.086 440.93 753.412 440.338 753.028C439.752 752.644 438.935 752.452 437.887 752.452C437.77 752.452 437.649 752.455 437.525 752.462C437.408 752.462 437.288 752.465 437.164 752.472V750.919C437.346 750.938 437.499 750.951 437.623 750.958C437.747 750.965 437.88 750.968 438.023 750.968C438.681 750.968 439.221 750.864 439.645 750.655C440.387 750.291 440.758 749.64 440.758 748.702C440.758 748.006 440.51 747.468 440.016 747.091C439.521 746.713 438.945 746.524 438.287 746.524C437.115 746.524 436.305 746.915 435.855 747.696C435.608 748.126 435.468 748.738 435.436 749.532H433.697C433.697 748.491 433.906 747.605 434.322 746.876C435.038 745.574 436.298 744.923 438.102 744.923C439.527 744.923 440.631 745.242 441.412 745.88C442.193 746.511 442.584 747.429 442.584 748.634C442.584 749.493 442.353 750.19 441.891 750.724C441.604 751.056 441.233 751.316 440.777 751.505C441.513 751.707 442.086 752.097 442.496 752.677C442.913 753.25 443.121 753.953 443.121 754.786C443.121 756.121 442.682 757.208 441.803 758.048C440.924 758.888 439.677 759.308 438.062 759.308Z" fill="#EFEEEA"/>
<path d="M987.007 384.103H989.502V393.313L998.713 384.103H1002.25L994.391 391.718L1002.47 403H999.138L992.526 393.519L989.502 396.414V403H987.007V384.103ZM1009.74 401.508C1011.27 401.508 1012.32 400.929 1012.89 399.771C1013.46 398.605 1013.75 397.31 1013.75 395.886C1013.75 394.6 1013.55 393.553 1013.13 392.747C1012.48 391.478 1011.36 390.843 1009.76 390.843C1008.35 390.843 1007.32 391.384 1006.68 392.464C1006.03 393.545 1005.71 394.848 1005.71 396.375C1005.71 397.841 1006.03 399.064 1006.68 400.041C1007.32 401.019 1008.34 401.508 1009.74 401.508ZM1009.83 388.824C1011.6 388.824 1013.1 389.415 1014.33 390.599C1015.56 391.782 1016.17 393.523 1016.17 395.822C1016.17 398.043 1015.63 399.878 1014.55 401.328C1013.47 402.777 1011.79 403.502 1009.52 403.502C1007.62 403.502 1006.12 402.863 1005 401.585C1003.89 400.299 1003.33 398.575 1003.33 396.414C1003.33 394.098 1003.92 392.254 1005.09 390.882C1006.27 389.51 1007.85 388.824 1009.83 388.824ZM1018.94 389.222H1021.23V391.178C1021.77 390.5 1022.27 390.007 1022.72 389.698C1023.48 389.175 1024.35 388.914 1025.32 388.914C1026.41 388.914 1027.3 389.184 1027.97 389.724C1028.34 390.033 1028.69 390.487 1029 391.088C1029.51 390.35 1030.11 389.806 1030.81 389.454C1031.5 389.094 1032.28 388.914 1033.15 388.914C1035 388.914 1036.26 389.583 1036.93 390.921C1037.29 391.641 1037.47 392.61 1037.47 393.828V403H1035.07V393.429C1035.07 392.511 1034.84 391.881 1034.37 391.538C1033.92 391.195 1033.36 391.023 1032.7 391.023C1031.79 391.023 1031.01 391.328 1030.35 391.937C1029.69 392.546 1029.37 393.562 1029.37 394.986V403H1027.01V394.008C1027.01 393.073 1026.9 392.391 1026.68 391.963C1026.33 391.319 1025.67 390.998 1024.71 390.998C1023.84 390.998 1023.04 391.336 1022.32 392.014C1021.61 392.692 1021.25 393.918 1021.25 395.693V403H1018.94V389.222ZM1040.88 389.222H1043.17V391.178C1043.72 390.5 1044.22 390.007 1044.66 389.698C1045.43 389.175 1046.29 388.914 1047.26 388.914C1048.36 388.914 1049.24 389.184 1049.91 389.724C1050.29 390.033 1050.63 390.487 1050.94 391.088C1051.46 390.35 1052.06 389.806 1052.76 389.454C1053.45 389.094 1054.23 388.914 1055.1 388.914C1056.95 388.914 1058.21 389.583 1058.88 390.921C1059.24 391.641 1059.42 392.61 1059.42 393.828V403H1057.01V393.429C1057.01 392.511 1056.78 391.881 1056.32 391.538C1055.86 391.195 1055.31 391.023 1054.65 391.023C1053.74 391.023 1052.95 391.328 1052.29 391.937C1051.64 392.546 1051.31 393.562 1051.31 394.986V403H1048.96V394.008C1048.96 393.073 1048.85 392.391 1048.63 391.963C1048.27 391.319 1047.62 390.998 1046.66 390.998C1045.78 390.998 1044.99 391.336 1044.27 392.014C1043.55 392.692 1043.2 393.918 1043.2 395.693V403H1040.88V389.222ZM1068.57 388.914C1069.54 388.914 1070.49 389.145 1071.41 389.608C1072.33 390.063 1073.03 390.655 1073.51 391.384C1073.97 392.078 1074.28 392.889 1074.43 393.815C1074.57 394.45 1074.64 395.462 1074.64 396.851H1064.54C1064.58 398.249 1064.91 399.372 1065.53 400.221C1066.15 401.062 1067.1 401.482 1068.4 401.482C1069.61 401.482 1070.57 401.083 1071.29 400.286C1071.7 399.823 1072 399.287 1072.17 398.678H1074.44C1074.38 399.184 1074.18 399.75 1073.84 400.376C1073.51 400.993 1073.13 401.499 1072.71 401.894C1072 402.58 1071.13 403.043 1070.1 403.283C1069.54 403.42 1068.91 403.489 1068.21 403.489C1066.49 403.489 1065.04 402.867 1063.84 401.624C1062.65 400.371 1062.06 398.622 1062.06 396.375C1062.06 394.162 1062.66 392.366 1063.86 390.985C1065.06 389.604 1066.63 388.914 1068.57 388.914ZM1072.26 395.011C1072.16 394.008 1071.94 393.206 1071.6 392.606C1070.97 391.491 1069.91 390.933 1068.42 390.933C1067.36 390.933 1066.47 391.319 1065.75 392.091C1065.03 392.854 1064.65 393.828 1064.6 395.011H1072.26ZM1077.56 389.222H1079.76V391.602C1079.94 391.139 1080.38 390.577 1081.08 389.917C1081.79 389.248 1082.6 388.914 1083.51 388.914C1083.56 388.914 1083.63 388.918 1083.73 388.927C1083.84 388.935 1084.01 388.952 1084.26 388.978V391.422C1084.12 391.397 1083.99 391.379 1083.87 391.371C1083.76 391.362 1083.64 391.358 1083.5 391.358C1082.33 391.358 1081.44 391.735 1080.81 392.49C1080.19 393.236 1079.87 394.098 1079.87 395.076V403H1077.56V389.222ZM1099.41 401.443C1100.49 401.443 1101.39 400.993 1102.1 400.093C1102.82 399.184 1103.18 397.829 1103.18 396.028C1103.18 394.93 1103.02 393.986 1102.71 393.197C1102.11 391.68 1101.01 390.921 1099.41 390.921C1097.81 390.921 1096.71 391.722 1096.12 393.326C1095.8 394.184 1095.64 395.273 1095.64 396.594C1095.64 397.657 1095.8 398.562 1096.12 399.308C1096.72 400.732 1097.82 401.443 1099.41 401.443ZM1093.42 389.287H1095.67V391.113C1096.13 390.487 1096.64 390.003 1097.19 389.66C1097.97 389.145 1098.89 388.888 1099.94 388.888C1101.5 388.888 1102.83 389.488 1103.92 390.689C1105.01 391.881 1105.55 393.588 1105.55 395.809C1105.55 398.811 1104.77 400.955 1103.2 402.241C1102.2 403.056 1101.04 403.463 1099.72 403.463C1098.69 403.463 1097.81 403.236 1097.11 402.781C1096.7 402.524 1096.24 402.082 1095.73 401.456V408.493H1093.42V389.287ZM1110.04 399.334C1110.04 400.003 1110.28 400.53 1110.77 400.916C1111.26 401.302 1111.84 401.495 1112.51 401.495C1113.32 401.495 1114.11 401.306 1114.88 400.929C1116.16 400.303 1116.81 399.278 1116.81 397.854V395.989C1116.52 396.169 1116.16 396.319 1115.71 396.439C1115.27 396.559 1114.83 396.645 1114.4 396.697L1113 396.877C1112.16 396.988 1111.53 397.164 1111.11 397.404C1110.4 397.807 1110.04 398.45 1110.04 399.334ZM1115.65 394.651C1116.18 394.583 1116.54 394.36 1116.72 393.982C1116.82 393.776 1116.87 393.481 1116.87 393.095C1116.87 392.306 1116.59 391.735 1116.02 391.384C1115.46 391.023 1114.66 390.843 1113.62 390.843C1112.41 390.843 1111.55 391.169 1111.04 391.821C1110.76 392.181 1110.58 392.717 1110.49 393.429H1108.33C1108.37 391.731 1108.92 390.552 1109.98 389.891C1111.04 389.222 1112.27 388.888 1113.67 388.888C1115.29 388.888 1116.6 389.197 1117.62 389.814C1118.62 390.432 1119.12 391.392 1119.12 392.696V400.633C1119.12 400.873 1119.17 401.066 1119.26 401.212C1119.37 401.358 1119.58 401.431 1119.89 401.431C1120 401.431 1120.11 401.426 1120.24 401.418C1120.37 401.401 1120.51 401.379 1120.65 401.353V403.064C1120.29 403.167 1120.02 403.232 1119.83 403.257C1119.64 403.283 1119.38 403.296 1119.06 403.296C1118.26 403.296 1117.68 403.013 1117.32 402.447C1117.13 402.147 1117 401.722 1116.92 401.173C1116.45 401.791 1115.77 402.327 1114.89 402.781C1114.01 403.236 1113.03 403.463 1111.97 403.463C1110.69 403.463 1109.65 403.077 1108.83 402.305C1108.02 401.525 1107.62 400.552 1107.62 399.385C1107.62 398.107 1108.02 397.117 1108.82 396.414C1109.62 395.71 1110.66 395.277 1111.96 395.114L1115.65 394.651ZM1114.04 386.392C1114.49 386.392 1114.87 386.234 1115.19 385.916C1115.5 385.599 1115.66 385.217 1115.66 384.771C1115.66 384.325 1115.5 383.944 1115.19 383.627C1114.87 383.309 1114.49 383.151 1114.04 383.151C1113.6 383.151 1113.23 383.309 1112.91 383.627C1112.59 383.944 1112.43 384.325 1112.43 384.771C1112.43 385.217 1112.59 385.599 1112.91 385.916C1113.23 386.234 1113.6 386.392 1114.04 386.392ZM1114.04 382.083C1114.78 382.083 1115.41 382.349 1115.93 382.88C1116.46 383.404 1116.73 384.034 1116.73 384.771C1116.73 385.509 1116.46 386.144 1115.93 386.675C1115.41 387.198 1114.78 387.46 1114.04 387.46C1113.3 387.46 1112.67 387.198 1112.15 386.675C1111.63 386.144 1111.36 385.509 1111.36 384.771C1111.36 384.034 1111.63 383.404 1112.15 382.88C1112.67 382.349 1113.3 382.083 1114.04 382.083ZM1132.58 386.778H1130.26V384.103H1132.58V386.778ZM1128.08 406.486C1129.11 406.452 1129.73 406.358 1129.94 406.203C1130.16 406.057 1130.26 405.59 1130.26 404.801V389.287H1132.58V405.045C1132.58 406.049 1132.41 406.799 1132.09 407.297C1131.55 408.137 1130.52 408.557 1129.01 408.557C1128.9 408.557 1128.78 408.553 1128.65 408.544C1128.53 408.536 1128.34 408.519 1128.08 408.493V406.486ZM1141.6 401.508C1143.13 401.508 1144.18 400.929 1144.75 399.771C1145.32 398.605 1145.61 397.31 1145.61 395.886C1145.61 394.6 1145.4 393.553 1144.99 392.747C1144.34 391.478 1143.22 390.843 1141.62 390.843C1140.21 390.843 1139.18 391.384 1138.53 392.464C1137.89 393.545 1137.57 394.848 1137.57 396.375C1137.57 397.841 1137.89 399.064 1138.53 400.041C1139.18 401.019 1140.2 401.508 1141.6 401.508ZM1141.69 388.824C1143.46 388.824 1144.96 389.415 1146.19 390.599C1147.41 391.782 1148.03 393.523 1148.03 395.822C1148.03 398.043 1147.49 399.878 1146.41 401.328C1145.33 402.777 1143.65 403.502 1141.38 403.502C1139.48 403.502 1137.98 402.863 1136.86 401.585C1135.75 400.299 1135.19 398.575 1135.19 396.414C1135.19 394.098 1135.78 392.254 1136.95 390.882C1138.13 389.51 1139.7 388.824 1141.69 388.824ZM1150.61 384.038H1152.86V390.895C1153.37 390.234 1153.98 389.733 1154.68 389.39C1155.38 389.038 1156.15 388.862 1156.97 388.862C1158.68 388.862 1160.07 389.454 1161.14 390.638C1162.21 391.812 1162.74 393.549 1162.74 395.848C1162.74 398.026 1162.22 399.835 1161.16 401.276C1160.11 402.717 1158.65 403.437 1156.78 403.437C1155.73 403.437 1154.85 403.184 1154.13 402.678C1153.7 402.378 1153.24 401.898 1152.75 401.238V403H1150.61V384.038ZM1156.63 401.392C1157.89 401.392 1158.82 400.895 1159.44 399.9C1160.06 398.905 1160.38 397.593 1160.38 395.963C1160.38 394.514 1160.06 393.313 1159.44 392.361C1158.82 391.409 1157.91 390.933 1156.7 390.933C1155.64 390.933 1154.72 391.324 1153.92 392.104C1153.13 392.884 1152.74 394.171 1152.74 395.963C1152.74 397.258 1152.9 398.309 1153.22 399.115C1153.83 400.633 1154.97 401.392 1156.63 401.392ZM1170.77 388.824C1172.32 388.824 1173.58 389.201 1174.55 389.956C1175.53 390.71 1176.12 392.01 1176.32 393.854H1174.06C1173.93 393.005 1173.61 392.301 1173.13 391.744C1172.64 391.178 1171.85 390.895 1170.77 390.895C1169.3 390.895 1168.24 391.615 1167.61 393.056C1167.2 393.991 1166.99 395.144 1166.99 396.516C1166.99 397.897 1167.28 399.059 1167.86 400.003C1168.45 400.946 1169.37 401.418 1170.62 401.418C1171.58 401.418 1172.34 401.126 1172.89 400.543C1173.46 399.951 1173.85 399.145 1174.06 398.124H1176.32C1176.06 399.951 1175.42 401.289 1174.39 402.138C1173.36 402.979 1172.04 403.399 1170.44 403.399C1168.64 403.399 1167.2 402.743 1166.13 401.431C1165.06 400.11 1164.52 398.463 1164.52 396.491C1164.52 394.072 1165.11 392.19 1166.28 390.843C1167.46 389.497 1168.95 388.824 1170.77 388.824ZM1184.37 388.914C1185.35 388.914 1186.29 389.145 1187.21 389.608C1188.13 390.063 1188.83 390.655 1189.31 391.384C1189.77 392.078 1190.08 392.889 1190.24 393.815C1190.37 394.45 1190.44 395.462 1190.44 396.851H1180.34C1180.39 398.249 1180.72 399.372 1181.33 400.221C1181.95 401.062 1182.91 401.482 1184.2 401.482C1185.41 401.482 1186.38 401.083 1187.1 400.286C1187.51 399.823 1187.8 399.287 1187.97 398.678H1190.25C1190.19 399.184 1189.99 399.75 1189.64 400.376C1189.31 400.993 1188.93 401.499 1188.51 401.894C1187.81 402.58 1186.94 403.043 1185.9 403.283C1185.34 403.42 1184.71 403.489 1184.01 403.489C1182.29 403.489 1180.84 402.867 1179.65 401.624C1178.46 400.371 1177.86 398.622 1177.86 396.375C1177.86 394.162 1178.46 392.366 1179.66 390.985C1180.86 389.604 1182.43 388.914 1184.37 388.914ZM1188.06 395.011C1187.97 394.008 1187.75 393.206 1187.41 392.606C1186.77 391.491 1185.71 390.933 1184.23 390.933C1183.16 390.933 1182.27 391.319 1181.55 392.091C1180.83 392.854 1180.45 393.828 1180.41 395.011H1188.06ZM1193.3 389.222H1195.5V391.178C1196.15 390.372 1196.84 389.793 1197.57 389.441C1198.3 389.09 1199.11 388.914 1200 388.914C1201.95 388.914 1203.28 389.596 1203.96 390.959C1204.34 391.705 1204.53 392.773 1204.53 394.162V403H1202.17V394.317C1202.17 393.476 1202.05 392.799 1201.8 392.284C1201.39 391.427 1200.64 390.998 1199.56 390.998C1199.01 390.998 1198.56 391.053 1198.21 391.165C1197.58 391.354 1197.02 391.731 1196.54 392.297C1196.15 392.752 1195.9 393.223 1195.78 393.712C1195.67 394.192 1195.61 394.883 1195.61 395.783V403H1193.3V389.222ZM1208.43 385.376H1210.77V389.222H1212.97V391.113H1210.77V400.106C1210.77 400.586 1210.93 400.907 1211.26 401.07C1211.44 401.165 1211.74 401.212 1212.16 401.212C1212.27 401.212 1212.39 401.212 1212.52 401.212C1212.64 401.203 1212.79 401.19 1212.97 401.173V403C1212.7 403.077 1212.42 403.133 1212.13 403.167C1211.85 403.202 1211.54 403.219 1211.2 403.219C1210.12 403.219 1209.39 402.944 1209 402.395C1208.62 401.838 1208.43 401.118 1208.43 400.234V391.113H1206.56V389.222H1208.43V385.376ZM1215.36 389.222H1217.56V391.602C1217.74 391.139 1218.18 390.577 1218.88 389.917C1219.59 389.248 1220.4 388.914 1221.32 388.914C1221.36 388.914 1221.43 388.918 1221.53 388.927C1221.64 388.935 1221.81 388.952 1222.06 388.978V391.422C1221.92 391.397 1221.8 391.379 1221.68 391.371C1221.56 391.362 1221.44 391.358 1221.3 391.358C1220.14 391.358 1219.24 391.735 1218.61 392.49C1217.99 393.236 1217.67 394.098 1217.67 395.076V403H1215.36V389.222ZM1229.81 388.914C1230.78 388.914 1231.73 389.145 1232.65 389.608C1233.57 390.063 1234.27 390.655 1234.75 391.384C1235.21 392.078 1235.52 392.889 1235.67 393.815C1235.81 394.45 1235.88 395.462 1235.88 396.851H1225.78C1225.82 398.249 1226.15 399.372 1226.77 400.221C1227.39 401.062 1228.34 401.482 1229.64 401.482C1230.85 401.482 1231.81 401.083 1232.53 400.286C1232.94 399.823 1233.24 399.287 1233.41 398.678H1235.68C1235.62 399.184 1235.42 399.75 1235.08 400.376C1234.75 400.993 1234.37 401.499 1233.95 401.894C1233.24 402.58 1232.37 403.043 1231.34 403.283C1230.78 403.42 1230.15 403.489 1229.45 403.489C1227.73 403.489 1226.28 402.867 1225.08 401.624C1223.89 400.371 1223.3 398.622 1223.3 396.375C1223.3 394.162 1223.9 392.366 1225.1 390.985C1226.3 389.604 1227.87 388.914 1229.81 388.914ZM1233.5 395.011C1233.4 394.008 1233.18 393.206 1232.84 392.606C1232.21 391.491 1231.15 390.933 1229.66 390.933C1228.6 390.933 1227.71 391.319 1226.99 392.091C1226.27 392.854 1225.89 393.828 1225.84 395.011H1233.5ZM1239.2 385.376H1241.54V389.222H1243.74V391.113H1241.54V400.106C1241.54 400.586 1241.7 400.907 1242.03 401.07C1242.21 401.165 1242.51 401.212 1242.93 401.212C1243.04 401.212 1243.16 401.212 1243.29 401.212C1243.42 401.203 1243.57 401.19 1243.74 401.173V403C1243.47 403.077 1243.19 403.133 1242.9 403.167C1242.62 403.202 1242.31 403.219 1241.97 403.219C1240.89 403.219 1240.16 402.944 1239.78 402.395C1239.39 401.838 1239.2 401.118 1239.2 400.234V391.113H1237.33V389.222H1239.2V385.376Z" fill="#EFEEEA"/>
<path d="M807.706 562.256L804.838 553.907L801.789 562.256H807.706ZM803.5 551.103H806.394L813.251 570H810.446L808.53 564.34H801.056L799.01 570H796.386L803.5 551.103ZM815.271 556.222H817.47V558.178C818.122 557.372 818.812 556.793 819.541 556.441C820.27 556.09 821.081 555.914 821.973 555.914C823.928 555.914 825.249 556.596 825.935 557.959C826.312 558.705 826.501 559.773 826.501 561.162V570H824.147V561.317C824.147 560.476 824.022 559.799 823.774 559.284C823.362 558.427 822.616 557.998 821.535 557.998C820.987 557.998 820.536 558.053 820.185 558.165C819.55 558.354 818.993 558.731 818.512 559.297C818.126 559.752 817.873 560.223 817.753 560.712C817.642 561.192 817.586 561.883 817.586 562.783V570H815.271V556.222ZM831.312 565.678C831.381 566.449 831.574 567.041 831.891 567.453C832.474 568.199 833.486 568.572 834.927 568.572C835.785 568.572 836.539 568.388 837.191 568.019C837.843 567.642 838.169 567.063 838.169 566.282C838.169 565.69 837.907 565.24 837.384 564.932C837.05 564.743 836.389 564.524 835.403 564.275L833.563 563.812C832.388 563.521 831.522 563.195 830.965 562.835C829.97 562.209 829.473 561.342 829.473 560.236C829.473 558.933 829.94 557.878 830.875 557.071C831.818 556.265 833.083 555.862 834.67 555.862C836.745 555.862 838.242 556.471 839.159 557.689C839.734 558.461 840.013 559.293 839.996 560.185H837.809C837.766 559.661 837.581 559.186 837.255 558.757C836.724 558.148 835.802 557.843 834.49 557.843C833.615 557.843 832.95 558.011 832.496 558.345C832.05 558.68 831.827 559.121 831.827 559.67C831.827 560.27 832.123 560.751 832.714 561.111C833.057 561.325 833.563 561.514 834.232 561.677L835.763 562.05C837.427 562.453 838.542 562.843 839.108 563.221C840.008 563.812 840.459 564.743 840.459 566.012C840.459 567.238 839.991 568.298 839.056 569.19C838.13 570.081 836.715 570.527 834.811 570.527C832.762 570.527 831.308 570.064 830.45 569.138C829.601 568.203 829.147 567.05 829.087 565.678H831.312ZM861.26 562.011C861.234 560.665 860.861 559.649 860.141 558.963C859.429 558.268 858.559 557.921 857.529 557.921C856.5 557.921 855.613 558.268 854.867 558.963C854.12 559.649 853.709 560.665 853.632 562.011H861.26ZM851.47 562.989C851.256 563.135 851.046 563.251 850.84 563.336C850.634 563.414 850.27 563.495 849.747 563.581L847.778 563.877C846.826 564.031 846.145 564.224 845.733 564.456C845.055 564.85 844.717 565.468 844.717 566.308C844.717 567.028 844.987 567.582 845.527 567.967C846.076 568.353 846.719 568.546 847.457 568.546C847.877 568.546 848.366 568.439 848.923 568.225C849.481 568.01 849.995 567.68 850.467 567.234C850.887 566.84 851.162 566.437 851.29 566.025C851.367 565.768 851.427 565.335 851.47 564.726V562.989ZM850.223 561.651C850.66 561.591 850.986 561.437 851.2 561.188C851.415 560.939 851.522 560.588 851.522 560.133C851.522 559.396 851.282 558.834 850.801 558.448C850.321 558.062 849.554 557.869 848.499 557.869C847.641 557.869 846.955 558.006 846.44 558.281C845.583 558.787 845.154 559.516 845.154 560.468H842.929C843.014 558.529 843.773 557.204 845.206 556.493C846.029 556.09 847.161 555.888 848.602 555.888C849.742 555.888 850.72 556.098 851.535 556.518C852.221 556.887 852.744 557.367 853.104 557.959C853.61 557.299 854.24 556.788 854.995 556.428C855.758 556.068 856.616 555.888 857.568 555.888C858.571 555.888 859.498 556.068 860.347 556.428C861.196 556.78 861.903 557.372 862.469 558.204C862.975 558.89 863.31 559.683 863.473 560.583C863.644 561.475 863.73 562.565 863.73 563.851H853.606C853.649 565.275 854 566.402 854.661 567.234C855.321 568.066 856.247 568.482 857.439 568.482C858.554 568.482 859.403 568.238 859.986 567.749C860.57 567.26 860.973 566.57 861.196 565.678H863.537C863.46 566.364 863.172 567.071 862.675 567.8C862.178 568.521 861.655 569.061 861.106 569.421C860.505 569.816 859.892 570.086 859.266 570.232C858.649 570.386 858.01 570.463 857.349 570.463C856.089 570.463 854.974 570.137 854.005 569.485C853.113 568.825 852.542 568.173 852.294 567.53C851.59 568.568 850.789 569.318 849.888 569.781C848.996 570.236 848.027 570.463 846.981 570.463C845.506 570.463 844.365 570.094 843.559 569.357C842.753 568.619 842.35 567.667 842.35 566.501C842.35 564.974 842.869 563.834 843.906 563.079C844.567 562.599 845.45 562.286 846.556 562.14L850.223 561.651ZM867.01 552.376H869.352V556.222H871.551V558.113H869.352V567.106C869.352 567.586 869.515 567.907 869.84 568.07C870.021 568.165 870.321 568.212 870.741 568.212C870.852 568.212 870.972 568.212 871.101 568.212C871.23 568.203 871.38 568.19 871.551 568.173V570C871.285 570.077 871.007 570.133 870.715 570.167C870.432 570.202 870.123 570.219 869.789 570.219C868.708 570.219 867.975 569.944 867.589 569.395C867.203 568.838 867.01 568.118 867.01 567.234V558.113H865.145V556.222H867.01V552.376ZM874.343 552.376H876.684V556.222H878.884V558.113H876.684V567.106C876.684 567.586 876.847 567.907 877.173 568.07C877.353 568.165 877.653 568.212 878.073 568.212C878.185 568.212 878.305 568.212 878.434 568.212C878.562 568.203 878.712 568.19 878.884 568.173V570C878.618 570.077 878.339 570.133 878.048 570.167C877.765 570.202 877.456 570.219 877.122 570.219C876.041 570.219 875.308 569.944 874.922 569.395C874.536 568.838 874.343 568.118 874.343 567.234V558.113H872.478V556.222H874.343V552.376ZM886.95 555.914C887.927 555.914 888.875 556.145 889.793 556.608C890.71 557.063 891.409 557.655 891.89 558.384C892.353 559.078 892.661 559.889 892.816 560.815C892.953 561.45 893.022 562.462 893.022 563.851H882.923C882.966 565.249 883.296 566.372 883.914 567.221C884.531 568.062 885.488 568.482 886.783 568.482C887.992 568.482 888.957 568.083 889.677 567.286C890.089 566.823 890.38 566.287 890.552 565.678H892.829C892.769 566.184 892.567 566.75 892.224 567.376C891.89 567.993 891.512 568.499 891.092 568.894C890.389 569.58 889.518 570.043 888.481 570.283C887.923 570.42 887.293 570.489 886.59 570.489C884.874 570.489 883.421 569.867 882.229 568.624C881.037 567.371 880.441 565.622 880.441 563.375C880.441 561.162 881.041 559.366 882.241 557.985C883.442 556.604 885.012 555.914 886.95 555.914ZM890.642 562.011C890.547 561.008 890.329 560.206 889.986 559.606C889.351 558.491 888.292 557.933 886.808 557.933C885.745 557.933 884.853 558.319 884.133 559.091C883.412 559.854 883.031 560.828 882.988 562.011H890.642ZM897.254 565.678C897.323 566.449 897.516 567.041 897.833 567.453C898.416 568.199 899.428 568.572 900.869 568.572C901.726 568.572 902.481 568.388 903.133 568.019C903.785 567.642 904.111 567.063 904.111 566.282C904.111 565.69 903.849 565.24 903.326 564.932C902.991 564.743 902.331 564.524 901.345 564.275L899.505 563.812C898.33 563.521 897.464 563.195 896.907 562.835C895.912 562.209 895.414 561.342 895.414 560.236C895.414 558.933 895.882 557.878 896.817 557.071C897.76 556.265 899.025 555.862 900.612 555.862C902.687 555.862 904.184 556.471 905.101 557.689C905.676 558.461 905.954 559.293 905.937 560.185H903.75C903.708 559.661 903.523 559.186 903.197 558.757C902.666 558.148 901.744 557.843 900.431 557.843C899.557 557.843 898.892 558.011 898.438 558.345C897.992 558.68 897.769 559.121 897.769 559.67C897.769 560.27 898.064 560.751 898.656 561.111C898.999 561.325 899.505 561.514 900.174 561.677L901.705 562.05C903.369 562.453 904.484 562.843 905.05 563.221C905.95 563.812 906.4 564.743 906.4 566.012C906.4 567.238 905.933 568.298 904.998 569.19C904.072 570.081 902.657 570.527 900.753 570.527C898.703 570.527 897.25 570.064 896.392 569.138C895.543 568.203 895.089 567.05 895.028 565.678H897.254ZM916.383 551.038H918.699V558.088C919.247 557.393 919.741 556.904 920.178 556.621C920.924 556.132 921.855 555.888 922.97 555.888C924.968 555.888 926.323 556.587 927.035 557.985C927.421 558.748 927.613 559.807 927.613 561.162V570H925.234V561.317C925.234 560.305 925.105 559.563 924.848 559.091C924.427 558.336 923.638 557.959 922.481 557.959C921.52 557.959 920.65 558.289 919.869 558.95C919.089 559.61 918.699 560.858 918.699 562.693V570H916.383V551.038ZM936.515 568.508C938.051 568.508 939.101 567.929 939.667 566.771C940.242 565.605 940.529 564.31 940.529 562.886C940.529 561.6 940.323 560.553 939.912 559.747C939.26 558.478 938.136 557.843 936.541 557.843C935.126 557.843 934.097 558.384 933.454 559.464C932.811 560.545 932.489 561.848 932.489 563.375C932.489 564.841 932.811 566.064 933.454 567.041C934.097 568.019 935.118 568.508 936.515 568.508ZM936.606 555.824C938.381 555.824 939.882 556.415 941.108 557.599C942.334 558.782 942.948 560.523 942.948 562.822C942.948 565.043 942.407 566.878 941.327 568.328C940.246 569.777 938.569 570.502 936.297 570.502C934.401 570.502 932.896 569.863 931.781 568.585C930.667 567.299 930.109 565.575 930.109 563.414C930.109 561.098 930.697 559.254 931.872 557.882C933.046 556.51 934.624 555.824 936.606 555.824ZM947.09 565.678C947.158 566.449 947.351 567.041 947.669 567.453C948.252 568.199 949.264 568.572 950.705 568.572C951.562 568.572 952.317 568.388 952.969 568.019C953.621 567.642 953.946 567.063 953.946 566.282C953.946 565.69 953.685 565.24 953.162 564.932C952.827 564.743 952.167 564.524 951.181 564.275L949.341 563.812C948.166 563.521 947.3 563.195 946.743 562.835C945.748 562.209 945.25 561.342 945.25 560.236C945.25 558.933 945.718 557.878 946.652 557.071C947.596 556.265 948.861 555.862 950.447 555.862C952.523 555.862 954.019 556.471 954.937 557.689C955.512 558.461 955.79 559.293 955.773 560.185H953.586C953.543 559.661 953.359 559.186 953.033 558.757C952.501 558.148 951.579 557.843 950.267 557.843C949.393 557.843 948.728 558.011 948.273 558.345C947.827 558.68 947.604 559.121 947.604 559.67C947.604 560.27 947.9 560.751 948.492 561.111C948.835 561.325 949.341 561.514 950.01 561.677L951.541 562.05C953.205 562.453 954.32 562.843 954.886 563.221C955.786 563.812 956.236 564.743 956.236 566.012C956.236 567.238 955.769 568.298 954.834 569.19C953.908 570.081 952.493 570.527 950.589 570.527C948.539 570.527 947.086 570.064 946.228 569.138C945.379 568.203 944.924 567.05 944.864 565.678H947.09ZM967.107 551.103H969.692V570H967.107V551.103ZM987.612 551.103V553.354H981.244V570H978.646V553.354H972.278V551.103H987.612ZM989.902 551.103H993.568L998.997 567.08L1004.39 551.103H1008.01V570H1005.58V558.847C1005.58 558.461 1005.59 557.822 1005.61 556.93C1005.63 556.038 1005.63 555.082 1005.63 554.061L1000.24 570H997.71L992.282 554.061V554.64C992.282 555.103 992.29 555.811 992.307 556.763C992.333 557.706 992.346 558.401 992.346 558.847V570H989.902V551.103ZM1013.4 551.103L1018.83 567.196L1024.2 551.103H1027.07L1020.17 570H1017.46L1010.57 551.103H1013.4Z" fill="#EFEEEA"/>
<path d="M846.679 730.902C846.739 731.974 846.992 732.845 847.438 733.514C848.287 734.766 849.784 735.392 851.928 735.392C852.888 735.392 853.763 735.255 854.552 734.98C856.079 734.449 856.842 733.497 856.842 732.124C856.842 731.095 856.52 730.362 855.877 729.925C855.225 729.496 854.205 729.123 852.815 728.806L850.255 728.227C848.583 727.849 847.4 727.433 846.705 726.979C845.504 726.19 844.904 725.011 844.904 723.441C844.904 721.743 845.491 720.349 846.666 719.26C847.841 718.171 849.505 717.627 851.658 717.627C853.639 717.627 855.32 718.107 856.7 719.067C858.09 720.019 858.784 721.546 858.784 723.647H856.379C856.25 722.635 855.976 721.859 855.555 721.319C854.775 720.332 853.45 719.839 851.58 719.839C850.071 719.839 848.986 720.156 848.326 720.791C847.665 721.426 847.335 722.163 847.335 723.004C847.335 723.93 847.721 724.608 848.493 725.036C848.999 725.311 850.144 725.654 851.928 726.065L854.578 726.67C855.856 726.962 856.842 727.36 857.537 727.866C858.737 728.75 859.338 730.032 859.338 731.713C859.338 733.805 858.574 735.302 857.048 736.202C855.53 737.103 853.763 737.553 851.748 737.553C849.398 737.553 847.558 736.953 846.229 735.752C844.9 734.56 844.248 732.943 844.274 730.902H846.679ZM870.877 723.222H873.437C873.111 724.106 872.386 726.121 871.263 729.269C870.422 731.636 869.719 733.565 869.153 735.058C867.815 738.574 866.872 740.718 866.323 741.49C865.774 742.261 864.831 742.647 863.493 742.647C863.167 742.647 862.914 742.635 862.734 742.609C862.562 742.583 862.348 742.536 862.09 742.467V740.358C862.494 740.469 862.785 740.538 862.965 740.563C863.145 740.589 863.304 740.602 863.441 740.602C863.87 740.602 864.183 740.529 864.38 740.383C864.586 740.246 864.758 740.075 864.895 739.869C864.938 739.8 865.092 739.448 865.358 738.814C865.624 738.179 865.817 737.708 865.937 737.399L860.843 723.222H863.467L867.159 734.44L870.877 723.222ZM881.181 722.914C882.159 722.914 883.106 723.145 884.024 723.608C884.942 724.063 885.64 724.655 886.121 725.384C886.584 726.078 886.893 726.889 887.047 727.815C887.184 728.45 887.253 729.462 887.253 730.851H877.154C877.197 732.249 877.527 733.372 878.145 734.221C878.762 735.062 879.719 735.482 881.014 735.482C882.223 735.482 883.188 735.083 883.908 734.286C884.32 733.823 884.611 733.287 884.783 732.678H887.06C887 733.184 886.798 733.75 886.455 734.376C886.121 734.993 885.743 735.499 885.323 735.894C884.62 736.58 883.749 737.043 882.712 737.283C882.154 737.42 881.524 737.489 880.821 737.489C879.105 737.489 877.652 736.867 876.46 735.624C875.268 734.371 874.672 732.622 874.672 730.375C874.672 728.162 875.272 726.366 876.473 724.985C877.673 723.604 879.243 722.914 881.181 722.914ZM884.873 729.011C884.779 728.008 884.56 727.206 884.217 726.606C883.582 725.491 882.523 724.933 881.039 724.933C879.976 724.933 879.084 725.319 878.364 726.091C877.643 726.854 877.262 727.828 877.219 729.011H884.873ZM890.173 723.222H892.373V725.602C892.553 725.139 892.995 724.577 893.698 723.917C894.401 723.248 895.211 722.914 896.129 722.914C896.172 722.914 896.245 722.918 896.348 722.927C896.451 722.935 896.626 722.952 896.875 722.978V725.422C896.738 725.397 896.609 725.379 896.489 725.371C896.378 725.362 896.253 725.358 896.116 725.358C894.95 725.358 894.054 725.735 893.428 726.49C892.802 727.236 892.489 728.098 892.489 729.076V737H890.173V723.222ZM907.591 732.678C907.66 733.449 907.853 734.041 908.17 734.453C908.753 735.199 909.765 735.572 911.206 735.572C912.064 735.572 912.818 735.388 913.47 735.019C914.122 734.642 914.448 734.063 914.448 733.282C914.448 732.69 914.186 732.24 913.663 731.932C913.328 731.743 912.668 731.524 911.682 731.275L909.842 730.812C908.667 730.521 907.801 730.195 907.244 729.835C906.249 729.209 905.751 728.342 905.751 727.236C905.751 725.933 906.219 724.878 907.154 724.071C908.097 723.265 909.362 722.862 910.949 722.862C913.024 722.862 914.521 723.471 915.438 724.689C916.013 725.461 916.292 726.293 916.274 727.185H914.087C914.045 726.661 913.86 726.186 913.534 725.757C913.003 725.148 912.081 724.843 910.769 724.843C909.894 724.843 909.229 725.011 908.775 725.345C908.329 725.68 908.106 726.121 908.106 726.67C908.106 727.27 908.402 727.751 908.993 728.111C909.336 728.325 909.842 728.514 910.511 728.677L912.042 729.05C913.706 729.453 914.821 729.843 915.387 730.221C916.287 730.812 916.738 731.743 916.738 733.012C916.738 734.238 916.27 735.298 915.335 736.19C914.409 737.081 912.994 737.527 911.09 737.527C909.04 737.527 907.587 737.064 906.729 736.138C905.88 735.203 905.426 734.05 905.366 732.678H907.591ZM919.388 723.287H921.742V737H919.388V723.287ZM919.388 718.103H921.742V720.727H919.388V718.103ZM925.717 719.376H928.058V723.222H930.258V725.113H928.058V734.106C928.058 734.586 928.221 734.907 928.547 735.07C928.727 735.165 929.027 735.212 929.447 735.212C929.559 735.212 929.679 735.212 929.808 735.212C929.936 735.203 930.086 735.19 930.258 735.173V737C929.992 737.077 929.713 737.133 929.422 737.167C929.139 737.202 928.83 737.219 928.495 737.219C927.415 737.219 926.682 736.944 926.296 736.395C925.91 735.838 925.717 735.118 925.717 734.234V725.113H923.851V723.222H925.717V719.376ZM940.498 721.126C940.532 720.165 940.699 719.462 940.999 719.016C941.54 718.227 942.582 717.832 944.125 717.832C944.271 717.832 944.421 717.837 944.576 717.845C944.73 717.854 944.906 717.867 945.103 717.884V719.994C944.863 719.976 944.687 719.968 944.576 719.968C944.473 719.959 944.374 719.955 944.28 719.955C943.576 719.955 943.156 720.139 943.019 720.508C942.882 720.868 942.813 721.795 942.813 723.287H945.103V725.113H942.787V737H940.498V725.113H938.581V723.287H940.498V721.126ZM956.436 726.155C956.196 725.787 955.81 725.478 955.279 725.229C954.747 724.972 954.155 724.843 953.503 724.843C952.26 724.843 951.261 725.366 950.506 726.413C949.76 727.45 949.387 728.788 949.387 730.426C949.387 731.044 949.451 731.636 949.58 732.202C949.657 732.519 949.786 732.922 949.966 733.411L956.436 726.155ZM950.545 734.26C950.965 734.749 951.419 735.079 951.908 735.25C952.397 735.422 952.894 735.508 953.4 735.508C955.021 735.508 956.171 734.744 956.848 733.218C957.26 732.3 957.466 731.245 957.466 730.053C957.466 729.281 957.401 728.617 957.273 728.059C957.204 727.759 957.088 727.408 956.925 727.005L950.545 734.26ZM946.737 736.949L948.383 735.212C947.955 734.577 947.624 733.865 947.393 733.076C947.161 732.287 947.046 731.353 947.046 730.272C947.046 728.325 947.586 726.597 948.666 725.088C949.756 723.57 951.338 722.811 953.413 722.811C954.494 722.811 955.442 723.008 956.256 723.403C956.737 723.634 957.285 724.011 957.903 724.535L959.511 722.708L960.18 723.351L958.533 725.204C959.074 725.993 959.459 726.897 959.691 727.918C959.837 728.578 959.91 729.239 959.91 729.899C959.91 732.112 959.314 733.938 958.122 735.379C956.93 736.811 955.343 737.527 953.362 737.527C952.418 737.527 951.578 737.386 950.84 737.103C950.103 736.828 949.507 736.451 949.052 735.971L947.496 737.617L946.737 736.949ZM963.422 723.222H965.621V725.602C965.802 725.139 966.243 724.577 966.946 723.917C967.65 723.248 968.46 722.914 969.378 722.914C969.421 722.914 969.494 722.918 969.596 722.927C969.699 722.935 969.875 722.952 970.124 722.978V725.422C969.987 725.397 969.858 725.379 969.738 725.371C969.626 725.362 969.502 725.358 969.365 725.358C968.199 725.358 967.302 725.735 966.676 726.49C966.05 727.236 965.737 728.098 965.737 729.076V737H963.422V723.222ZM973.507 732.678C973.576 733.449 973.769 734.041 974.086 734.453C974.669 735.199 975.681 735.572 977.122 735.572C977.98 735.572 978.734 735.388 979.386 735.019C980.038 734.642 980.364 734.063 980.364 733.282C980.364 732.69 980.102 732.24 979.579 731.932C979.245 731.743 978.584 731.524 977.598 731.275L975.758 730.812C974.583 730.521 973.717 730.195 973.16 729.835C972.165 729.209 971.668 728.342 971.668 727.236C971.668 725.933 972.135 724.878 973.07 724.071C974.013 723.265 975.278 722.862 976.865 722.862C978.94 722.862 980.437 723.471 981.354 724.689C981.929 725.461 982.208 726.293 982.19 727.185H980.004C979.961 726.661 979.776 726.186 979.45 725.757C978.919 725.148 977.997 724.843 976.685 724.843C975.81 724.843 975.145 725.011 974.691 725.345C974.245 725.68 974.022 726.121 974.022 726.67C974.022 727.27 974.318 727.751 974.909 728.111C975.252 728.325 975.758 728.514 976.427 728.677L977.958 729.05C979.622 729.453 980.737 729.843 981.303 730.221C982.203 730.812 982.654 731.743 982.654 733.012C982.654 734.238 982.186 735.298 981.251 736.19C980.325 737.081 978.91 737.527 977.006 737.527C974.957 737.527 973.503 737.064 972.645 736.138C971.796 735.203 971.342 734.05 971.282 732.678H973.507ZM985.767 719.376H988.108V723.222H990.308V725.113H988.108V734.106C988.108 734.586 988.271 734.907 988.597 735.07C988.777 735.165 989.077 735.212 989.497 735.212C989.609 735.212 989.729 735.212 989.858 735.212C989.986 735.203 990.136 735.19 990.308 735.173V737C990.042 737.077 989.763 737.133 989.472 737.167C989.189 737.202 988.88 737.219 988.545 737.219C987.465 737.219 986.732 736.944 986.346 736.395C985.96 735.838 985.767 735.118 985.767 734.234V725.113H983.901V723.222H985.767V719.376ZM998.374 722.914C999.351 722.914 1000.3 723.145 1001.22 723.608C1002.13 724.063 1002.83 724.655 1003.31 725.384C1003.78 726.078 1004.09 726.889 1004.24 727.815C1004.38 728.45 1004.45 729.462 1004.45 730.851H994.347C994.39 732.249 994.72 733.372 995.338 734.221C995.955 735.062 996.911 735.482 998.206 735.482C999.416 735.482 1000.38 735.083 1001.1 734.286C1001.51 733.823 1001.8 733.287 1001.98 732.678H1004.25C1004.19 733.184 1003.99 733.75 1003.65 734.376C1003.31 734.993 1002.94 735.499 1002.52 735.894C1001.81 736.58 1000.94 737.043 999.904 737.283C999.347 737.42 998.717 737.489 998.013 737.489C996.298 737.489 994.845 736.867 993.652 735.624C992.46 734.371 991.864 732.622 991.864 730.375C991.864 728.162 992.465 726.366 993.665 724.985C994.866 723.604 996.435 722.914 998.374 722.914ZM1002.07 729.011C1001.97 728.008 1001.75 727.206 1001.41 726.606C1000.77 725.491 999.716 724.933 998.232 724.933C997.169 724.933 996.277 725.319 995.556 726.091C994.836 726.854 994.454 727.828 994.411 729.011H1002.07ZM1020.45 735.443C1021.53 735.443 1022.43 734.993 1023.14 734.093C1023.86 733.184 1024.22 731.829 1024.22 730.028C1024.22 728.93 1024.06 727.986 1023.74 727.197C1023.14 725.68 1022.04 724.921 1020.45 724.921C1018.84 724.921 1017.75 725.722 1017.16 727.326C1016.84 728.184 1016.68 729.273 1016.68 730.594C1016.68 731.657 1016.84 732.562 1017.16 733.308C1017.76 734.732 1018.85 735.443 1020.45 735.443ZM1014.45 723.287H1016.71V725.113C1017.17 724.487 1017.67 724.003 1018.22 723.66C1019 723.145 1019.92 722.888 1020.98 722.888C1022.54 722.888 1023.86 723.488 1024.95 724.689C1026.04 725.881 1026.58 727.588 1026.58 729.809C1026.58 732.811 1025.8 734.955 1024.23 736.241C1023.24 737.056 1022.08 737.463 1020.76 737.463C1019.72 737.463 1018.85 737.236 1018.15 736.781C1017.73 736.524 1017.28 736.082 1016.77 735.456V742.493H1014.45V723.287ZM1029.36 723.222H1031.56V725.602C1031.74 725.139 1032.18 724.577 1032.89 723.917C1033.59 723.248 1034.4 722.914 1035.32 722.914C1035.36 722.914 1035.44 722.918 1035.54 722.927C1035.64 722.935 1035.82 722.952 1036.07 722.978V725.422C1035.93 725.397 1035.8 725.379 1035.68 725.371C1035.57 725.362 1035.44 725.358 1035.31 725.358C1034.14 725.358 1033.24 725.735 1032.62 726.49C1031.99 727.236 1031.68 728.098 1031.68 729.076V737H1029.36V723.222ZM1043.54 735.508C1045.07 735.508 1046.13 734.929 1046.69 733.771C1047.27 732.605 1047.55 731.31 1047.55 729.886C1047.55 728.6 1047.35 727.553 1046.94 726.747C1046.28 725.478 1045.16 724.843 1043.57 724.843C1042.15 724.843 1041.12 725.384 1040.48 726.464C1039.83 727.545 1039.51 728.848 1039.51 730.375C1039.51 731.841 1039.83 733.064 1040.48 734.041C1041.12 735.019 1042.14 735.508 1043.54 735.508ZM1043.63 722.824C1045.41 722.824 1046.91 723.415 1048.13 724.599C1049.36 725.782 1049.97 727.523 1049.97 729.822C1049.97 732.043 1049.43 733.878 1048.35 735.328C1047.27 736.777 1045.59 737.502 1043.32 737.502C1041.43 737.502 1039.92 736.863 1038.81 735.585C1037.69 734.299 1037.13 732.575 1037.13 730.414C1037.13 728.098 1037.72 726.254 1038.9 724.882C1040.07 723.51 1041.65 722.824 1043.63 722.824ZM1054.2 730.272C1054.2 731.747 1054.52 732.982 1055.14 733.977C1055.77 734.972 1056.77 735.469 1058.15 735.469C1059.23 735.469 1060.1 735.01 1060.79 734.093C1061.49 733.166 1061.83 731.841 1061.83 730.118C1061.83 728.377 1061.48 727.09 1060.76 726.258C1060.05 725.418 1059.17 724.998 1058.13 724.998C1056.96 724.998 1056.01 725.444 1055.28 726.336C1054.56 727.228 1054.2 728.54 1054.2 730.272ZM1057.69 722.978C1058.75 722.978 1059.63 723.201 1060.34 723.647C1060.75 723.904 1061.22 724.355 1061.74 724.998V718.038H1063.97V737H1061.88V735.083C1061.34 735.932 1060.7 736.545 1059.97 736.923C1059.23 737.3 1058.39 737.489 1057.43 737.489C1055.9 737.489 1054.57 736.846 1053.45 735.559C1052.32 734.264 1051.76 732.545 1051.76 730.401C1051.76 728.394 1052.27 726.657 1053.29 725.191C1054.32 723.716 1055.79 722.978 1057.69 722.978ZM1069.72 723.222V732.369C1069.72 733.072 1069.83 733.647 1070.05 734.093C1070.46 734.916 1071.23 735.328 1072.36 735.328C1073.97 735.328 1075.07 734.607 1075.65 733.166C1075.97 732.395 1076.12 731.335 1076.12 729.989V723.222H1078.44V737H1076.25L1076.28 734.967C1075.98 735.491 1075.61 735.932 1075.16 736.292C1074.28 737.013 1073.2 737.373 1071.94 737.373C1069.98 737.373 1068.64 736.717 1067.93 735.405C1067.54 734.702 1067.35 733.763 1067.35 732.588V723.222H1069.72ZM1082.02 718.103H1084.24V729.076L1090.19 723.222H1093.14L1087.87 728.381L1093.44 737H1090.48L1086.18 730.053L1084.24 731.829V737H1082.02V718.103ZM1095.7 719.376H1098.05V723.222H1100.25V725.113H1098.05V734.106C1098.05 734.586 1098.21 734.907 1098.53 735.07C1098.71 735.165 1099.01 735.212 1099.43 735.212C1099.55 735.212 1099.67 735.212 1099.79 735.212C1099.92 735.203 1100.07 735.19 1100.25 735.173V737C1099.98 737.077 1099.7 737.133 1099.41 737.167C1099.13 737.202 1098.82 737.219 1098.48 737.219C1097.4 737.219 1096.67 736.944 1096.28 736.395C1095.9 735.838 1095.7 735.118 1095.7 734.234V725.113H1093.84V723.222H1095.7V719.376Z" fill="#EFEEEA"/>
<ellipse cx="924" cy="243.5" rx="9" ry="6.5" fill="white"/>
<ellipse cx="1252.5" cy="416.5" rx="8.5" ry="6.5" fill="white"/>
<ellipse cx="1035.5" cy="584" rx="8.5" ry="6" fill="white"/>
<ellipse cx="1109.5" cy="752.5" rx="8.5" ry="6.5" fill="white"/>
</g>
<defs>
<clipPath id="clip0_466_315">
<rect width="1512" height="982" fill="white"/>
</clipPath>
</defs>
</svg>
