<?xml version="1.0" encoding="UTF-8"?>
<svg id="VsmLogo" xmlns="http://www.w3.org/2000/svg" viewBox="0 0 128.12 60">
  <defs>
    <style>
      .cls-1 {
        fill: #000;
        stroke-width: 0px;
      }
    </style>
  </defs>
  <path class="cls-1" d="M24.46,42.39h1.29v-10.5h-1.29v10.5ZM38.19,31.89h-1.64l-4.74,5.05v-5.05h-1.29v10.5h1.29v-5.29l4.78,5.29h1.8l-5.09-5.43,4.89-5.07ZM41.52,42.39h1.3v-10.5h-1.3v10.5ZM55.01,36.94c0,1.88.04,3.19.09,3.94h-.01c-.41-.72-.89-1.48-1.35-2.18l-4.49-6.8h-1.67v10.5h1.27l-.02-6.1c0-1.33-.06-2.2-.1-2.95h.02c.36.69.81,1.45,1.27,2.16l4.57,6.88h1.67v-10.5h-1.27l.02,5.05ZM68.8,41.93v-4.83h-1.29v4.02c-.57.21-1.31.3-2.06.3-2.52,0-4.24-1.51-4.24-4.26,0-2.95,2.02-4.36,4.26-4.36,1.01,0,1.97.23,2.95.59l.16-1.17c-1.01-.3-1.98-.44-3.01-.44-3.57,0-5.72,2.4-5.72,5.55,0,3.35,2.2,5.19,5.35,5.19,1.35,0,2.5-.21,3.59-.59ZM73.32,42.39h5.55v-1.02h-4.26v-3.9h4.08v-.99h-4.08v-3.58h4.26v-1.01h-5.55v10.5ZM72.56,49.34l-2.54,7.19c-.26.72-.43,1.19-.57,1.9h-.01c-.12-.57-.35-1.25-.63-2l-2.46-7.09h-1.59l-1.53,10.51h1.29l.8-6.36c.14-1.05.25-1.9.29-2.71h.02c.1.61.4,1.44.69,2.2l2.38,6.87h1.43l2.57-7.33c.24-.69.42-1.29.52-1.74h.01c.07.55.15,1.4.33,2.67l.89,6.4h1.35l-1.51-10.51h-1.72ZM87.24,55.86c0,1.8-.81,3.07-3.09,3.07-1.89,0-3.04-.89-3.04-2.81v-6.79h-1.29v6.93c0,2.45,1.51,3.72,4.24,3.72,3.19,0,4.46-1.92,4.46-4.12v-6.52h-1.27s0,6.52,0,6.52ZM93.56,52.04c0-1.09.83-1.8,2.59-1.8.65,0,1.59.14,2.2.32l.07-1.19c-.63-.1-1.52-.18-2.18-.18-2.48,0-4,1.17-4,3.01,0,3.33,5.43,2.2,5.43,4.65,0,1.49-1.39,2.04-2.64,2.04-.97,0-1.87-.18-2.52-.47l-.08,1.29c.58.17,1.58.29,2.42.29,2.22,0,4.2-1.21,4.2-3.27,0-3.42-5.47-2.26-5.47-4.68ZM102.87,59.84h5.55v-1.03h-4.26v-3.9h4.08v-.99h-4.08v-3.58h4.26v-1.01h-5.55s0,10.5,0,10.5ZM112.5,59.84h5.55v-1.03h-4.26v-3.9h4.08v-.99h-4.08v-3.58h4.26v-1.01h-5.55v10.5ZM120.35,49.34v1.05h3.23v9.45h1.3v-9.45h3.25v-1.05h-7.78ZM18.4,28.75v12.34c-3.69,0-7.68-.9-8.31-5.41-.05-.38-.36-2.82,1.07-6.14l-1.2-.78c-.69,1.66-1.29,3.93-1.29,5.76,0,1.24.3,2.59.81,3.67,1.97,4.19,8.35,4.02,10.31,3.86v-13.3s-1.38,0-1.38,0ZM84.79,34.59c0-1.09.82-1.79,2.59-1.79.64,0,1.59.14,2.2.32l.06-1.19c-.63-.1-1.51-.19-2.18-.19-2.48,0-4,1.17-4,3.01,0,3.33,5.43,2.2,5.43,4.65,0,1.5-1.39,2.04-2.65,2.04-.97,0-1.87-.18-2.52-.47l-.08,1.29c.59.17,1.58.28,2.43.28,2.22,0,4.2-1.21,4.2-3.27,0-3.41-5.47-2.27-5.47-4.69ZM101.77,31.89h-1.63l-4.75,5.05v-5.05h-1.29v10.5h1.29v-5.29l4.79,5.29h1.79l-5.08-5.43,4.88-5.07ZM106.39,31.89h-1.29v10.5h1.29v-10.5h0ZM117.98,39.28c0-1.17-.71-2.14-2.22-2.45v-.02c1.25-.42,1.98-1.31,1.98-2.46,0-1.46-.99-2.5-3.43-2.5-1.39,0-2.38.04-3.15.04v10.5c.99.02,2,.04,2.66.04,3.49,0,4.16-2.02,4.16-3.15ZM112.45,32.86c.47,0,1.03-.02,1.58-.02,1.85,0,2.38.73,2.38,1.68,0,1.31-1.09,1.98-2.95,1.98-.16,0-.58,0-1.01-.03,0,0,0-3.61,0-3.61ZM112.45,37.47c.28-.02.83-.02,1.03-.02,1.8,0,3.17.4,3.17,1.88,0,1.23-.82,2.1-2.72,2.1-.69,0-1.17-.02-1.48-.08v-3.88h0ZM126.58,39.4c0,1.5-1.39,2.04-2.64,2.04-.97,0-1.88-.18-2.53-.47l-.08,1.29c.59.17,1.58.28,2.42.28,2.22,0,4.2-1.21,4.2-3.27,0-3.41-5.47-2.27-5.47-4.69,0-1.09.83-1.79,2.58-1.79.65,0,1.59.14,2.21.32l.06-1.19c-.63-.1-1.51-.19-2.18-.19-2.49,0-4,1.17-4,3.01,0,3.34,5.43,2.2,5.43,4.65ZM15.01,7.7c-1.05,0-3.68,1.29-4.24,3.8.3.1.32.09.53-.12.35-.35,1.35-1.33,2.54-1.33.5,0,2.05-.29,2.05-1.44,0-.59-.44-.9-.88-.9ZM13.17,0C6.07,0,.32,5.75.32,12.85c0,6.48,4.85,11.86,10.94,12.7,3.9-6.67,8.06-7.8,8.06-10.66,0-.76-.33-1.4-.68-1.66.12-1.57,1.15-3.11,1.97-3.62,1.44.78,3.06,2.3,3.06,4.52,0,1-.19,1.88-.5,2.69-.08.23-.18.45-.29.67-1.2,2.5-3.39,4.28-3.83,6.78,4.13-2.13,6.96-6.45,6.96-11.42,0-7.1-5.75-12.85-12.84-12.85ZM10.04,16.38c-.67-.28-.51-1.11-.34-1.7.56.28,1.16.53,1.81.68-.24.66-.79,1.3-1.47,1.03ZM13.54,17.43c-.66,0-1.59-.54-1.71-2.01.31.05.63.08.95.08.12,0,.27,0,.38-.01,0,.47.15.74.23.87.07.01.16,0,.22-.05-.01-.05-.01-.1-.01-.13,0-.09.02-.58.58-.58.34,0,.62.3.62.73,0,.87-.84,1.11-1.26,1.11ZM12.78,15.04c-1.35,0-2.56-.51-3.59-1.1-.47,1.08-1.74,4.63-4.31,4.63-1.68,0-2.69-1.37-2.69-2.53,0-.94.65-1.98,1.71-1.98.78,0,1.28.4,1.28,1.13s-.58.93-.82.93c-.03.04-.07.14-.08.23.1.04.3.07.41.07,1.68,0,.8-3.98,4.29-3.98,1.49,0,2.83,1.12,4.59,1.12.33,0,.25,0,.6-.04,0-.06,0-.16-.02-.23-.04,0-.43-.2-.43-.61s.38-.56.65-.56c.36,0,.91.39.91,1.32,0,1.06-1.14,1.6-2.49,1.6ZM15.45,12.27c-.35-.35-.73-.53-1.18-.53-.81,0-1.22.62-.89,1.39-.44,0-.71-.08-1.16-.2.28-.8.67-1.43.99-1.72-.06-.05-.12-.11-.17-.17-.57.07-1.52.98-1.86,1.54-.75-.28-1.45-.56-2.2-.56h-.05c1.64-3.66,4.07-5.44,7.29-5.44,1.11,0,2.25.01,3-2.24.02-.08.05-.11.07-.11.03,0,.09-.02.12-.02.03,0,.06,0,.09.03.26.31.77.86.77,1.97,0,.21-.05,1.04-.7,1.36-1.24.62-2.92,1.96-3.18,4.67-.23-.02-.78-.03-.95.04ZM21.23,9.44s-.42-.3-.74-.37c-.76.4-2.39,2.13-2.39,4.37.3.15.51.5.56.59-.27.21-.53.2-1.13-.13-.35-.2-.59-.53-.63-.8-.23-1.36.76-3.97,2.64-4.97.56-.3,1.2.22,1.42.44.51.48.3.83.27.87Z"/>
</svg>